<mxfile host="Electron" modified="2024-01-16T05:53:33.003Z" agent="Mozilla/5.0 (Windows NT 10.0; Win64; x64) AppleWebKit/537.36 (KHTML, like Gecko) draw.io/22.1.11 Chrome/114.0.5735.289 Electron/25.9.8 Safari/537.36" etag="TXnXizXPsjzUBj0Yt6x2" version="22.1.11" type="device">
  <diagram name="페이지-1" id="8-OUmQG4L1zFWOJBYLKE">
    <mxGraphModel dx="1091" dy="662" grid="1" gridSize="10" guides="1" tooltips="1" connect="1" arrows="1" fold="1" page="1" pageScale="1" pageWidth="827" pageHeight="1169" math="0" shadow="0">
      <root>
        <mxCell id="0" />
        <mxCell id="1" parent="0" />
        <mxCell id="BugLoS8FiQRtQ0UN0Pm9-152" value="" style="group" vertex="1" connectable="0" parent="1">
          <mxGeometry x="70" y="940" width="210" height="40" as="geometry" />
        </mxCell>
        <mxCell id="BugLoS8FiQRtQ0UN0Pm9-98" value="" style="rounded=0;whiteSpace=wrap;html=1;" vertex="1" parent="BugLoS8FiQRtQ0UN0Pm9-152">
          <mxGeometry x="10" width="40" height="20" as="geometry" />
        </mxCell>
        <mxCell id="BugLoS8FiQRtQ0UN0Pm9-99" value="" style="rounded=0;whiteSpace=wrap;html=1;" vertex="1" parent="BugLoS8FiQRtQ0UN0Pm9-152">
          <mxGeometry x="140" width="60" height="20" as="geometry" />
        </mxCell>
        <mxCell id="BugLoS8FiQRtQ0UN0Pm9-101" value="" style="endArrow=none;dashed=1;html=1;strokeWidth=2;rounded=0;exitX=0.5;exitY=0;exitDx=0;exitDy=0;entryX=0.25;entryY=0;entryDx=0;entryDy=0;dashPattern=1 1;" edge="1" parent="BugLoS8FiQRtQ0UN0Pm9-152">
          <mxGeometry width="50" height="50" relative="1" as="geometry">
            <mxPoint x="159.79999999999995" y="20" as="sourcePoint" />
            <mxPoint x="159.79999999999995" as="targetPoint" />
          </mxGeometry>
        </mxCell>
        <mxCell id="BugLoS8FiQRtQ0UN0Pm9-102" value="" style="rounded=0;whiteSpace=wrap;html=1;" vertex="1" parent="BugLoS8FiQRtQ0UN0Pm9-152">
          <mxGeometry x="60" width="20" height="20" as="geometry" />
        </mxCell>
        <mxCell id="BugLoS8FiQRtQ0UN0Pm9-103" value="4" style="text;html=1;strokeColor=none;fillColor=none;align=center;verticalAlign=middle;whiteSpace=wrap;rounded=0;" vertex="1" parent="BugLoS8FiQRtQ0UN0Pm9-152">
          <mxGeometry x="40" y="20" width="30" height="20" as="geometry" />
        </mxCell>
        <mxCell id="BugLoS8FiQRtQ0UN0Pm9-104" value="0" style="text;html=1;strokeColor=none;fillColor=none;align=center;verticalAlign=middle;whiteSpace=wrap;rounded=0;" vertex="1" parent="BugLoS8FiQRtQ0UN0Pm9-152">
          <mxGeometry y="20" width="20" height="20" as="geometry" />
        </mxCell>
        <mxCell id="BugLoS8FiQRtQ0UN0Pm9-105" value="10" style="text;html=1;strokeColor=none;fillColor=none;align=center;verticalAlign=middle;whiteSpace=wrap;rounded=0;" vertex="1" parent="BugLoS8FiQRtQ0UN0Pm9-152">
          <mxGeometry x="190" y="20" width="20" height="20" as="geometry" />
        </mxCell>
        <mxCell id="BugLoS8FiQRtQ0UN0Pm9-106" value="5" style="text;html=1;strokeColor=none;fillColor=none;align=center;verticalAlign=middle;whiteSpace=wrap;rounded=0;" vertex="1" parent="BugLoS8FiQRtQ0UN0Pm9-152">
          <mxGeometry x="70" y="20" width="30" height="20" as="geometry" />
        </mxCell>
        <mxCell id="BugLoS8FiQRtQ0UN0Pm9-107" value="7" style="text;html=1;strokeColor=none;fillColor=none;align=center;verticalAlign=middle;whiteSpace=wrap;rounded=0;" vertex="1" parent="BugLoS8FiQRtQ0UN0Pm9-152">
          <mxGeometry x="120" y="20" width="30" height="20" as="geometry" />
        </mxCell>
        <mxCell id="BugLoS8FiQRtQ0UN0Pm9-108" value="8" style="text;html=1;strokeColor=none;fillColor=none;align=center;verticalAlign=middle;whiteSpace=wrap;rounded=0;" vertex="1" parent="BugLoS8FiQRtQ0UN0Pm9-152">
          <mxGeometry x="150" y="20" width="20" height="20" as="geometry" />
        </mxCell>
        <mxCell id="BugLoS8FiQRtQ0UN0Pm9-109" value="" style="rounded=0;whiteSpace=wrap;html=1;" vertex="1" parent="BugLoS8FiQRtQ0UN0Pm9-152">
          <mxGeometry x="90" width="40" height="20" as="geometry" />
        </mxCell>
        <mxCell id="BugLoS8FiQRtQ0UN0Pm9-154" value="" style="group" vertex="1" connectable="0" parent="1">
          <mxGeometry x="70" y="660" width="210" height="40" as="geometry" />
        </mxCell>
        <mxCell id="BugLoS8FiQRtQ0UN0Pm9-110" value="" style="rounded=0;whiteSpace=wrap;html=1;" vertex="1" parent="BugLoS8FiQRtQ0UN0Pm9-154">
          <mxGeometry x="10" width="40" height="20" as="geometry" />
        </mxCell>
        <mxCell id="BugLoS8FiQRtQ0UN0Pm9-111" value="" style="rounded=0;whiteSpace=wrap;html=1;" vertex="1" parent="BugLoS8FiQRtQ0UN0Pm9-154">
          <mxGeometry x="160" width="40" height="20" as="geometry" />
        </mxCell>
        <mxCell id="BugLoS8FiQRtQ0UN0Pm9-113" value="" style="rounded=0;whiteSpace=wrap;html=1;" vertex="1" parent="BugLoS8FiQRtQ0UN0Pm9-154">
          <mxGeometry x="60" width="20" height="20" as="geometry" />
        </mxCell>
        <mxCell id="BugLoS8FiQRtQ0UN0Pm9-132" value="0" style="text;html=1;strokeColor=none;fillColor=none;align=center;verticalAlign=middle;whiteSpace=wrap;rounded=0;" vertex="1" parent="BugLoS8FiQRtQ0UN0Pm9-154">
          <mxGeometry y="20" width="20" height="20" as="geometry" />
        </mxCell>
        <mxCell id="BugLoS8FiQRtQ0UN0Pm9-135" value="10" style="text;html=1;strokeColor=none;fillColor=none;align=center;verticalAlign=middle;whiteSpace=wrap;rounded=0;" vertex="1" parent="BugLoS8FiQRtQ0UN0Pm9-154">
          <mxGeometry x="190" y="20" width="20" height="20" as="geometry" />
        </mxCell>
        <mxCell id="BugLoS8FiQRtQ0UN0Pm9-138" value="4" style="text;html=1;strokeColor=none;fillColor=none;align=center;verticalAlign=middle;whiteSpace=wrap;rounded=0;" vertex="1" parent="BugLoS8FiQRtQ0UN0Pm9-154">
          <mxGeometry x="40" y="20" width="30" height="20" as="geometry" />
        </mxCell>
        <mxCell id="BugLoS8FiQRtQ0UN0Pm9-141" value="5" style="text;html=1;strokeColor=none;fillColor=none;align=center;verticalAlign=middle;whiteSpace=wrap;rounded=0;" vertex="1" parent="BugLoS8FiQRtQ0UN0Pm9-154">
          <mxGeometry x="70" y="20" width="30" height="20" as="geometry" />
        </mxCell>
        <mxCell id="BugLoS8FiQRtQ0UN0Pm9-144" value="7" style="text;html=1;strokeColor=none;fillColor=none;align=center;verticalAlign=middle;whiteSpace=wrap;rounded=0;" vertex="1" parent="BugLoS8FiQRtQ0UN0Pm9-154">
          <mxGeometry x="120" y="20" width="20" height="20" as="geometry" />
        </mxCell>
        <mxCell id="BugLoS8FiQRtQ0UN0Pm9-147" value="8" style="text;html=1;strokeColor=none;fillColor=none;align=center;verticalAlign=middle;whiteSpace=wrap;rounded=0;" vertex="1" parent="BugLoS8FiQRtQ0UN0Pm9-154">
          <mxGeometry x="140" y="20" width="30" height="20" as="geometry" />
        </mxCell>
        <mxCell id="BugLoS8FiQRtQ0UN0Pm9-120" value="" style="rounded=0;whiteSpace=wrap;html=1;" vertex="1" parent="BugLoS8FiQRtQ0UN0Pm9-154">
          <mxGeometry x="90" width="60" height="20" as="geometry" />
        </mxCell>
        <mxCell id="BugLoS8FiQRtQ0UN0Pm9-112" value="" style="endArrow=none;dashed=1;html=1;strokeWidth=2;rounded=0;dashPattern=1 1;" edge="1" parent="BugLoS8FiQRtQ0UN0Pm9-154">
          <mxGeometry width="50" height="50" relative="1" as="geometry">
            <mxPoint x="130" y="20" as="sourcePoint" />
            <mxPoint x="130" as="targetPoint" />
          </mxGeometry>
        </mxCell>
        <mxCell id="BugLoS8FiQRtQ0UN0Pm9-155" value="" style="group" vertex="1" connectable="0" parent="1">
          <mxGeometry x="70" y="380" width="210" height="40" as="geometry" />
        </mxCell>
        <mxCell id="BugLoS8FiQRtQ0UN0Pm9-121" value="" style="rounded=0;whiteSpace=wrap;html=1;" vertex="1" parent="BugLoS8FiQRtQ0UN0Pm9-155">
          <mxGeometry x="10" width="40" height="20" as="geometry" />
        </mxCell>
        <mxCell id="BugLoS8FiQRtQ0UN0Pm9-122" value="" style="rounded=0;whiteSpace=wrap;html=1;" vertex="1" parent="BugLoS8FiQRtQ0UN0Pm9-155">
          <mxGeometry x="160" width="40" height="20" as="geometry" />
        </mxCell>
        <mxCell id="BugLoS8FiQRtQ0UN0Pm9-123" value="" style="rounded=0;whiteSpace=wrap;html=1;" vertex="1" parent="BugLoS8FiQRtQ0UN0Pm9-155">
          <mxGeometry x="60" width="60" height="20" as="geometry" />
        </mxCell>
        <mxCell id="BugLoS8FiQRtQ0UN0Pm9-124" value="" style="rounded=0;whiteSpace=wrap;html=1;" vertex="1" parent="BugLoS8FiQRtQ0UN0Pm9-155">
          <mxGeometry x="130" width="20" height="20" as="geometry" />
        </mxCell>
        <mxCell id="BugLoS8FiQRtQ0UN0Pm9-125" value="" style="endArrow=none;dashed=1;html=1;strokeWidth=2;rounded=0;exitX=0.5;exitY=0;exitDx=0;exitDy=0;entryX=0.25;entryY=0;entryDx=0;entryDy=0;dashPattern=1 1;" edge="1" parent="BugLoS8FiQRtQ0UN0Pm9-155">
          <mxGeometry width="50" height="50" relative="1" as="geometry">
            <mxPoint x="80" y="20" as="sourcePoint" />
            <mxPoint x="80" as="targetPoint" />
          </mxGeometry>
        </mxCell>
        <mxCell id="BugLoS8FiQRtQ0UN0Pm9-133" value="0" style="text;html=1;strokeColor=none;fillColor=none;align=center;verticalAlign=middle;whiteSpace=wrap;rounded=0;" vertex="1" parent="BugLoS8FiQRtQ0UN0Pm9-155">
          <mxGeometry y="20" width="20" height="20" as="geometry" />
        </mxCell>
        <mxCell id="BugLoS8FiQRtQ0UN0Pm9-136" value="10" style="text;html=1;strokeColor=none;fillColor=none;align=center;verticalAlign=middle;whiteSpace=wrap;rounded=0;" vertex="1" parent="BugLoS8FiQRtQ0UN0Pm9-155">
          <mxGeometry x="190" y="20" width="20" height="20" as="geometry" />
        </mxCell>
        <mxCell id="BugLoS8FiQRtQ0UN0Pm9-139" value="4" style="text;html=1;strokeColor=none;fillColor=none;align=center;verticalAlign=middle;whiteSpace=wrap;rounded=0;" vertex="1" parent="BugLoS8FiQRtQ0UN0Pm9-155">
          <mxGeometry x="40" y="20" width="30" height="20" as="geometry" />
        </mxCell>
        <mxCell id="BugLoS8FiQRtQ0UN0Pm9-142" value="5" style="text;html=1;strokeColor=none;fillColor=none;align=center;verticalAlign=middle;whiteSpace=wrap;rounded=0;" vertex="1" parent="BugLoS8FiQRtQ0UN0Pm9-155">
          <mxGeometry x="70" y="20" width="20" height="20" as="geometry" />
        </mxCell>
        <mxCell id="BugLoS8FiQRtQ0UN0Pm9-145" value="7" style="text;html=1;strokeColor=none;fillColor=none;align=center;verticalAlign=middle;whiteSpace=wrap;rounded=0;" vertex="1" parent="BugLoS8FiQRtQ0UN0Pm9-155">
          <mxGeometry x="110" y="20" width="30" height="20" as="geometry" />
        </mxCell>
        <mxCell id="BugLoS8FiQRtQ0UN0Pm9-148" value="8" style="text;html=1;strokeColor=none;fillColor=none;align=center;verticalAlign=middle;whiteSpace=wrap;rounded=0;" vertex="1" parent="BugLoS8FiQRtQ0UN0Pm9-155">
          <mxGeometry x="140" y="20" width="30" height="20" as="geometry" />
        </mxCell>
        <mxCell id="BugLoS8FiQRtQ0UN0Pm9-156" value="" style="group" vertex="1" connectable="0" parent="1">
          <mxGeometry x="70" y="80" width="210" height="40" as="geometry" />
        </mxCell>
        <mxCell id="BugLoS8FiQRtQ0UN0Pm9-127" value="" style="rounded=0;whiteSpace=wrap;html=1;" vertex="1" parent="BugLoS8FiQRtQ0UN0Pm9-156">
          <mxGeometry x="10" width="60" height="20" as="geometry" />
        </mxCell>
        <mxCell id="BugLoS8FiQRtQ0UN0Pm9-128" value="" style="rounded=0;whiteSpace=wrap;html=1;" vertex="1" parent="BugLoS8FiQRtQ0UN0Pm9-156">
          <mxGeometry x="160" width="40" height="20" as="geometry" />
        </mxCell>
        <mxCell id="BugLoS8FiQRtQ0UN0Pm9-129" value="" style="rounded=0;whiteSpace=wrap;html=1;" vertex="1" parent="BugLoS8FiQRtQ0UN0Pm9-156">
          <mxGeometry x="80" width="40" height="20" as="geometry" />
        </mxCell>
        <mxCell id="BugLoS8FiQRtQ0UN0Pm9-130" value="" style="rounded=0;whiteSpace=wrap;html=1;" vertex="1" parent="BugLoS8FiQRtQ0UN0Pm9-156">
          <mxGeometry x="130" width="20" height="20" as="geometry" />
        </mxCell>
        <mxCell id="BugLoS8FiQRtQ0UN0Pm9-131" value="" style="endArrow=none;dashed=1;html=1;strokeWidth=2;rounded=0;exitX=0.5;exitY=0;exitDx=0;exitDy=0;entryX=0.25;entryY=0;entryDx=0;entryDy=0;dashPattern=1 1;" edge="1" parent="BugLoS8FiQRtQ0UN0Pm9-156">
          <mxGeometry width="50" height="50" relative="1" as="geometry">
            <mxPoint x="50" y="20" as="sourcePoint" />
            <mxPoint x="50" as="targetPoint" />
          </mxGeometry>
        </mxCell>
        <mxCell id="BugLoS8FiQRtQ0UN0Pm9-134" value="0" style="text;html=1;strokeColor=none;fillColor=none;align=center;verticalAlign=middle;whiteSpace=wrap;rounded=0;" vertex="1" parent="BugLoS8FiQRtQ0UN0Pm9-156">
          <mxGeometry y="20" width="20" height="20" as="geometry" />
        </mxCell>
        <mxCell id="BugLoS8FiQRtQ0UN0Pm9-137" value="10" style="text;html=1;strokeColor=none;fillColor=none;align=center;verticalAlign=middle;whiteSpace=wrap;rounded=0;" vertex="1" parent="BugLoS8FiQRtQ0UN0Pm9-156">
          <mxGeometry x="190" y="20" width="20" height="20" as="geometry" />
        </mxCell>
        <mxCell id="BugLoS8FiQRtQ0UN0Pm9-140" value="4" style="text;html=1;strokeColor=none;fillColor=none;align=center;verticalAlign=middle;whiteSpace=wrap;rounded=0;" vertex="1" parent="BugLoS8FiQRtQ0UN0Pm9-156">
          <mxGeometry x="40" y="20" width="20" height="20" as="geometry" />
        </mxCell>
        <mxCell id="BugLoS8FiQRtQ0UN0Pm9-143" value="5" style="text;html=1;strokeColor=none;fillColor=none;align=center;verticalAlign=middle;whiteSpace=wrap;rounded=0;" vertex="1" parent="BugLoS8FiQRtQ0UN0Pm9-156">
          <mxGeometry x="60" y="20" width="30" height="20" as="geometry" />
        </mxCell>
        <mxCell id="BugLoS8FiQRtQ0UN0Pm9-146" value="7" style="text;html=1;strokeColor=none;fillColor=none;align=center;verticalAlign=middle;whiteSpace=wrap;rounded=0;" vertex="1" parent="BugLoS8FiQRtQ0UN0Pm9-156">
          <mxGeometry x="110" y="20" width="30" height="20" as="geometry" />
        </mxCell>
        <mxCell id="BugLoS8FiQRtQ0UN0Pm9-149" value="8" style="text;html=1;strokeColor=none;fillColor=none;align=center;verticalAlign=middle;whiteSpace=wrap;rounded=0;" vertex="1" parent="BugLoS8FiQRtQ0UN0Pm9-156">
          <mxGeometry x="140" y="20" width="30" height="20" as="geometry" />
        </mxCell>
        <mxCell id="BugLoS8FiQRtQ0UN0Pm9-184" value="" style="group" vertex="1" connectable="0" parent="1">
          <mxGeometry x="30" y="20" width="220" height="40" as="geometry" />
        </mxCell>
        <mxCell id="BugLoS8FiQRtQ0UN0Pm9-158" value="" style="rounded=0;whiteSpace=wrap;html=1;" vertex="1" parent="BugLoS8FiQRtQ0UN0Pm9-184">
          <mxGeometry x="10" width="40" height="20" as="geometry" />
        </mxCell>
        <mxCell id="BugLoS8FiQRtQ0UN0Pm9-159" value="" style="rounded=0;whiteSpace=wrap;html=1;" vertex="1" parent="BugLoS8FiQRtQ0UN0Pm9-184">
          <mxGeometry x="170" width="40" height="20" as="geometry" />
        </mxCell>
        <mxCell id="BugLoS8FiQRtQ0UN0Pm9-160" value="" style="rounded=0;whiteSpace=wrap;html=1;" vertex="1" parent="BugLoS8FiQRtQ0UN0Pm9-184">
          <mxGeometry x="90" width="40" height="20" as="geometry" />
        </mxCell>
        <mxCell id="BugLoS8FiQRtQ0UN0Pm9-161" value="" style="rounded=0;whiteSpace=wrap;html=1;" vertex="1" parent="BugLoS8FiQRtQ0UN0Pm9-184">
          <mxGeometry x="140" width="20" height="20" as="geometry" />
        </mxCell>
        <mxCell id="BugLoS8FiQRtQ0UN0Pm9-163" value="0" style="text;html=1;strokeColor=none;fillColor=none;align=center;verticalAlign=middle;whiteSpace=wrap;rounded=0;" vertex="1" parent="BugLoS8FiQRtQ0UN0Pm9-184">
          <mxGeometry y="20" width="20" height="20" as="geometry" />
        </mxCell>
        <mxCell id="BugLoS8FiQRtQ0UN0Pm9-164" value="10" style="text;html=1;strokeColor=none;fillColor=none;align=center;verticalAlign=middle;whiteSpace=wrap;rounded=0;" vertex="1" parent="BugLoS8FiQRtQ0UN0Pm9-184">
          <mxGeometry x="200" y="20" width="20" height="20" as="geometry" />
        </mxCell>
        <mxCell id="BugLoS8FiQRtQ0UN0Pm9-165" value="4" style="text;html=1;strokeColor=none;fillColor=none;align=center;verticalAlign=middle;whiteSpace=wrap;rounded=0;" vertex="1" parent="BugLoS8FiQRtQ0UN0Pm9-184">
          <mxGeometry x="40" y="20" width="30" height="20" as="geometry" />
        </mxCell>
        <mxCell id="BugLoS8FiQRtQ0UN0Pm9-166" value="5" style="text;html=1;strokeColor=none;fillColor=none;align=center;verticalAlign=middle;whiteSpace=wrap;rounded=0;" vertex="1" parent="BugLoS8FiQRtQ0UN0Pm9-184">
          <mxGeometry x="70" y="20" width="30" height="20" as="geometry" />
        </mxCell>
        <mxCell id="BugLoS8FiQRtQ0UN0Pm9-167" value="7" style="text;html=1;strokeColor=none;fillColor=none;align=center;verticalAlign=middle;whiteSpace=wrap;rounded=0;" vertex="1" parent="BugLoS8FiQRtQ0UN0Pm9-184">
          <mxGeometry x="120" y="20" width="30" height="20" as="geometry" />
        </mxCell>
        <mxCell id="BugLoS8FiQRtQ0UN0Pm9-168" value="8" style="text;html=1;strokeColor=none;fillColor=none;align=center;verticalAlign=middle;whiteSpace=wrap;rounded=0;" vertex="1" parent="BugLoS8FiQRtQ0UN0Pm9-184">
          <mxGeometry x="150" y="20" width="30" height="20" as="geometry" />
        </mxCell>
        <mxCell id="BugLoS8FiQRtQ0UN0Pm9-182" value="" style="rounded=0;whiteSpace=wrap;html=1;" vertex="1" parent="BugLoS8FiQRtQ0UN0Pm9-184">
          <mxGeometry x="60" width="20" height="20" as="geometry" />
        </mxCell>
        <mxCell id="BugLoS8FiQRtQ0UN0Pm9-189" value="" style="group" vertex="1" connectable="0" parent="1">
          <mxGeometry x="110" y="140" width="200" height="40" as="geometry" />
        </mxCell>
        <mxCell id="BugLoS8FiQRtQ0UN0Pm9-190" value="" style="rounded=0;whiteSpace=wrap;html=1;" vertex="1" parent="BugLoS8FiQRtQ0UN0Pm9-189">
          <mxGeometry x="10" width="100" height="20" as="geometry" />
        </mxCell>
        <mxCell id="BugLoS8FiQRtQ0UN0Pm9-762" style="edgeStyle=orthogonalEdgeStyle;rounded=0;orthogonalLoop=1;jettySize=auto;html=1;" edge="1" parent="BugLoS8FiQRtQ0UN0Pm9-189" source="BugLoS8FiQRtQ0UN0Pm9-191">
          <mxGeometry relative="1" as="geometry">
            <mxPoint x="250" y="30" as="targetPoint" />
            <Array as="points">
              <mxPoint x="220" y="10" />
              <mxPoint x="220" y="30" />
            </Array>
          </mxGeometry>
        </mxCell>
        <mxCell id="BugLoS8FiQRtQ0UN0Pm9-807" value="3" style="edgeLabel;html=1;align=center;verticalAlign=middle;resizable=0;points=[];" vertex="1" connectable="0" parent="BugLoS8FiQRtQ0UN0Pm9-762">
          <mxGeometry x="0.5" relative="1" as="geometry">
            <mxPoint as="offset" />
          </mxGeometry>
        </mxCell>
        <mxCell id="BugLoS8FiQRtQ0UN0Pm9-191" value="" style="rounded=0;whiteSpace=wrap;html=1;" vertex="1" parent="BugLoS8FiQRtQ0UN0Pm9-189">
          <mxGeometry x="150" width="40" height="20" as="geometry" />
        </mxCell>
        <mxCell id="BugLoS8FiQRtQ0UN0Pm9-192" value="" style="rounded=0;whiteSpace=wrap;html=1;" vertex="1" parent="BugLoS8FiQRtQ0UN0Pm9-189">
          <mxGeometry x="120" width="20" height="20" as="geometry" />
        </mxCell>
        <mxCell id="BugLoS8FiQRtQ0UN0Pm9-193" value="" style="endArrow=none;dashed=1;html=1;strokeWidth=2;rounded=0;exitX=0.5;exitY=1;exitDx=0;exitDy=0;entryX=0.5;entryY=0;entryDx=0;entryDy=0;dashPattern=1 1;" edge="1" parent="BugLoS8FiQRtQ0UN0Pm9-189">
          <mxGeometry width="50" height="50" relative="1" as="geometry">
            <mxPoint x="50" y="20" as="sourcePoint" />
            <mxPoint x="50" as="targetPoint" />
          </mxGeometry>
        </mxCell>
        <mxCell id="BugLoS8FiQRtQ0UN0Pm9-194" value="" style="endArrow=none;dashed=1;html=1;strokeWidth=2;rounded=0;exitX=0.5;exitY=0;exitDx=0;exitDy=0;entryX=0.25;entryY=0;entryDx=0;entryDy=0;dashPattern=1 1;" edge="1" parent="BugLoS8FiQRtQ0UN0Pm9-189">
          <mxGeometry width="50" height="50" relative="1" as="geometry">
            <mxPoint x="69.72000000000003" y="20" as="sourcePoint" />
            <mxPoint x="69.72000000000003" as="targetPoint" />
          </mxGeometry>
        </mxCell>
        <mxCell id="BugLoS8FiQRtQ0UN0Pm9-195" value="0" style="text;html=1;strokeColor=none;fillColor=none;align=center;verticalAlign=middle;whiteSpace=wrap;rounded=0;" vertex="1" parent="BugLoS8FiQRtQ0UN0Pm9-189">
          <mxGeometry y="20" width="20" height="20" as="geometry" />
        </mxCell>
        <mxCell id="BugLoS8FiQRtQ0UN0Pm9-196" value="10" style="text;html=1;strokeColor=none;fillColor=none;align=center;verticalAlign=middle;whiteSpace=wrap;rounded=0;" vertex="1" parent="BugLoS8FiQRtQ0UN0Pm9-189">
          <mxGeometry x="180" y="20" width="20" height="20" as="geometry" />
        </mxCell>
        <mxCell id="BugLoS8FiQRtQ0UN0Pm9-197" value="4" style="text;html=1;strokeColor=none;fillColor=none;align=center;verticalAlign=middle;whiteSpace=wrap;rounded=0;" vertex="1" parent="BugLoS8FiQRtQ0UN0Pm9-189">
          <mxGeometry x="40" y="20" width="20" height="20" as="geometry" />
        </mxCell>
        <mxCell id="BugLoS8FiQRtQ0UN0Pm9-198" value="5" style="text;html=1;strokeColor=none;fillColor=none;align=center;verticalAlign=middle;whiteSpace=wrap;rounded=0;" vertex="1" parent="BugLoS8FiQRtQ0UN0Pm9-189">
          <mxGeometry x="60" y="20" width="20" height="20" as="geometry" />
        </mxCell>
        <mxCell id="BugLoS8FiQRtQ0UN0Pm9-199" value="7" style="text;html=1;strokeColor=none;fillColor=none;align=center;verticalAlign=middle;whiteSpace=wrap;rounded=0;" vertex="1" parent="BugLoS8FiQRtQ0UN0Pm9-189">
          <mxGeometry x="100" y="20" width="30" height="20" as="geometry" />
        </mxCell>
        <mxCell id="BugLoS8FiQRtQ0UN0Pm9-200" value="8" style="text;html=1;strokeColor=none;fillColor=none;align=center;verticalAlign=middle;whiteSpace=wrap;rounded=0;" vertex="1" parent="BugLoS8FiQRtQ0UN0Pm9-189">
          <mxGeometry x="130" y="20" width="30" height="20" as="geometry" />
        </mxCell>
        <mxCell id="BugLoS8FiQRtQ0UN0Pm9-201" value="" style="group" vertex="1" connectable="0" parent="1">
          <mxGeometry x="110" y="220" width="200" height="40" as="geometry" />
        </mxCell>
        <mxCell id="BugLoS8FiQRtQ0UN0Pm9-202" value="" style="rounded=0;whiteSpace=wrap;html=1;" vertex="1" parent="BugLoS8FiQRtQ0UN0Pm9-201">
          <mxGeometry x="10" width="60" height="20" as="geometry" />
        </mxCell>
        <mxCell id="BugLoS8FiQRtQ0UN0Pm9-203" value="" style="rounded=0;whiteSpace=wrap;html=1;" vertex="1" parent="BugLoS8FiQRtQ0UN0Pm9-201">
          <mxGeometry x="150" width="40" height="20" as="geometry" />
        </mxCell>
        <mxCell id="BugLoS8FiQRtQ0UN0Pm9-204" value="" style="rounded=0;whiteSpace=wrap;html=1;" vertex="1" parent="BugLoS8FiQRtQ0UN0Pm9-201">
          <mxGeometry x="80" width="60" height="20" as="geometry" />
        </mxCell>
        <mxCell id="BugLoS8FiQRtQ0UN0Pm9-205" value="" style="endArrow=none;dashed=1;html=1;strokeWidth=2;rounded=0;exitX=0.5;exitY=1;exitDx=0;exitDy=0;entryX=0.5;entryY=0;entryDx=0;entryDy=0;dashPattern=1 1;" edge="1" parent="BugLoS8FiQRtQ0UN0Pm9-201">
          <mxGeometry width="50" height="50" relative="1" as="geometry">
            <mxPoint x="50" y="20" as="sourcePoint" />
            <mxPoint x="50" as="targetPoint" />
          </mxGeometry>
        </mxCell>
        <mxCell id="BugLoS8FiQRtQ0UN0Pm9-206" value="" style="endArrow=none;dashed=1;html=1;strokeWidth=2;rounded=0;exitX=0.5;exitY=0;exitDx=0;exitDy=0;entryX=0.25;entryY=0;entryDx=0;entryDy=0;dashPattern=1 1;" edge="1" parent="BugLoS8FiQRtQ0UN0Pm9-201">
          <mxGeometry width="50" height="50" relative="1" as="geometry">
            <mxPoint x="119.71999999999997" y="20" as="sourcePoint" />
            <mxPoint x="119.71999999999997" as="targetPoint" />
          </mxGeometry>
        </mxCell>
        <mxCell id="BugLoS8FiQRtQ0UN0Pm9-207" value="0" style="text;html=1;strokeColor=none;fillColor=none;align=center;verticalAlign=middle;whiteSpace=wrap;rounded=0;" vertex="1" parent="BugLoS8FiQRtQ0UN0Pm9-201">
          <mxGeometry y="20" width="20" height="20" as="geometry" />
        </mxCell>
        <mxCell id="BugLoS8FiQRtQ0UN0Pm9-208" value="10" style="text;html=1;strokeColor=none;fillColor=none;align=center;verticalAlign=middle;whiteSpace=wrap;rounded=0;" vertex="1" parent="BugLoS8FiQRtQ0UN0Pm9-201">
          <mxGeometry x="180" y="20" width="20" height="20" as="geometry" />
        </mxCell>
        <mxCell id="BugLoS8FiQRtQ0UN0Pm9-209" value="4" style="text;html=1;strokeColor=none;fillColor=none;align=center;verticalAlign=middle;whiteSpace=wrap;rounded=0;" vertex="1" parent="BugLoS8FiQRtQ0UN0Pm9-201">
          <mxGeometry x="40" y="20" width="20" height="20" as="geometry" />
        </mxCell>
        <mxCell id="BugLoS8FiQRtQ0UN0Pm9-210" value="4" style="text;html=1;strokeColor=none;fillColor=none;align=center;verticalAlign=middle;whiteSpace=wrap;rounded=0;" vertex="1" parent="BugLoS8FiQRtQ0UN0Pm9-201">
          <mxGeometry x="40" y="20" width="20" height="20" as="geometry" />
        </mxCell>
        <mxCell id="BugLoS8FiQRtQ0UN0Pm9-211" value="5" style="text;html=1;strokeColor=none;fillColor=none;align=center;verticalAlign=middle;whiteSpace=wrap;rounded=0;" vertex="1" parent="BugLoS8FiQRtQ0UN0Pm9-201">
          <mxGeometry x="60" y="20" width="30" height="20" as="geometry" />
        </mxCell>
        <mxCell id="BugLoS8FiQRtQ0UN0Pm9-212" value="7" style="text;html=1;strokeColor=none;fillColor=none;align=center;verticalAlign=middle;whiteSpace=wrap;rounded=0;" vertex="1" parent="BugLoS8FiQRtQ0UN0Pm9-201">
          <mxGeometry x="110" y="20" width="20" height="20" as="geometry" />
        </mxCell>
        <mxCell id="BugLoS8FiQRtQ0UN0Pm9-213" value="8" style="text;html=1;strokeColor=none;fillColor=none;align=center;verticalAlign=middle;whiteSpace=wrap;rounded=0;" vertex="1" parent="BugLoS8FiQRtQ0UN0Pm9-201">
          <mxGeometry x="130" y="20" width="30" height="20" as="geometry" />
        </mxCell>
        <mxCell id="BugLoS8FiQRtQ0UN0Pm9-214" value="" style="group" vertex="1" connectable="0" parent="1">
          <mxGeometry x="110" y="300" width="200" height="40" as="geometry" />
        </mxCell>
        <mxCell id="BugLoS8FiQRtQ0UN0Pm9-215" value="" style="rounded=0;whiteSpace=wrap;html=1;" vertex="1" parent="BugLoS8FiQRtQ0UN0Pm9-214">
          <mxGeometry x="10" width="60" height="20" as="geometry" />
        </mxCell>
        <mxCell id="BugLoS8FiQRtQ0UN0Pm9-216" value="" style="rounded=0;whiteSpace=wrap;html=1;" vertex="1" parent="BugLoS8FiQRtQ0UN0Pm9-214">
          <mxGeometry x="130" width="60" height="20" as="geometry" />
        </mxCell>
        <mxCell id="BugLoS8FiQRtQ0UN0Pm9-217" value="" style="endArrow=none;dashed=1;html=1;strokeWidth=2;rounded=0;exitX=0.5;exitY=0;exitDx=0;exitDy=0;entryX=0.25;entryY=0;entryDx=0;entryDy=0;dashPattern=1 1;" edge="1" parent="BugLoS8FiQRtQ0UN0Pm9-214">
          <mxGeometry width="50" height="50" relative="1" as="geometry">
            <mxPoint x="150" y="20" as="sourcePoint" />
            <mxPoint x="150" as="targetPoint" />
          </mxGeometry>
        </mxCell>
        <mxCell id="BugLoS8FiQRtQ0UN0Pm9-218" value="" style="rounded=0;whiteSpace=wrap;html=1;" vertex="1" parent="BugLoS8FiQRtQ0UN0Pm9-214">
          <mxGeometry x="80" width="40" height="20" as="geometry" />
        </mxCell>
        <mxCell id="BugLoS8FiQRtQ0UN0Pm9-219" value="" style="endArrow=none;dashed=1;html=1;strokeWidth=2;rounded=0;exitX=0.5;exitY=1;exitDx=0;exitDy=0;entryX=0.5;entryY=0;entryDx=0;entryDy=0;dashPattern=1 1;" edge="1" parent="BugLoS8FiQRtQ0UN0Pm9-214">
          <mxGeometry width="50" height="50" relative="1" as="geometry">
            <mxPoint x="50" y="20" as="sourcePoint" />
            <mxPoint x="50" as="targetPoint" />
          </mxGeometry>
        </mxCell>
        <mxCell id="BugLoS8FiQRtQ0UN0Pm9-220" value="0" style="text;html=1;strokeColor=none;fillColor=none;align=center;verticalAlign=middle;whiteSpace=wrap;rounded=0;" vertex="1" parent="BugLoS8FiQRtQ0UN0Pm9-214">
          <mxGeometry y="20" width="20" height="20" as="geometry" />
        </mxCell>
        <mxCell id="BugLoS8FiQRtQ0UN0Pm9-221" value="10" style="text;html=1;strokeColor=none;fillColor=none;align=center;verticalAlign=middle;whiteSpace=wrap;rounded=0;" vertex="1" parent="BugLoS8FiQRtQ0UN0Pm9-214">
          <mxGeometry x="180" y="20" width="20" height="20" as="geometry" />
        </mxCell>
        <mxCell id="BugLoS8FiQRtQ0UN0Pm9-222" value="4" style="text;html=1;strokeColor=none;fillColor=none;align=center;verticalAlign=middle;whiteSpace=wrap;rounded=0;" vertex="1" parent="BugLoS8FiQRtQ0UN0Pm9-214">
          <mxGeometry x="40" y="20" width="20" height="20" as="geometry" />
        </mxCell>
        <mxCell id="BugLoS8FiQRtQ0UN0Pm9-223" value="5" style="text;html=1;strokeColor=none;fillColor=none;align=center;verticalAlign=middle;whiteSpace=wrap;rounded=0;" vertex="1" parent="BugLoS8FiQRtQ0UN0Pm9-214">
          <mxGeometry x="60" y="20" width="30" height="20" as="geometry" />
        </mxCell>
        <mxCell id="BugLoS8FiQRtQ0UN0Pm9-224" value="7" style="text;html=1;strokeColor=none;fillColor=none;align=center;verticalAlign=middle;whiteSpace=wrap;rounded=0;" vertex="1" parent="BugLoS8FiQRtQ0UN0Pm9-214">
          <mxGeometry x="110" y="20" width="30" height="20" as="geometry" />
        </mxCell>
        <mxCell id="BugLoS8FiQRtQ0UN0Pm9-225" value="8" style="text;html=1;strokeColor=none;fillColor=none;align=center;verticalAlign=middle;whiteSpace=wrap;rounded=0;" vertex="1" parent="BugLoS8FiQRtQ0UN0Pm9-214">
          <mxGeometry x="140" y="20" width="20" height="20" as="geometry" />
        </mxCell>
        <mxCell id="BugLoS8FiQRtQ0UN0Pm9-226" value="" style="group" vertex="1" connectable="0" parent="1">
          <mxGeometry x="350" y="160" width="190" height="40" as="geometry" />
        </mxCell>
        <mxCell id="BugLoS8FiQRtQ0UN0Pm9-227" value="" style="rounded=0;whiteSpace=wrap;html=1;" vertex="1" parent="BugLoS8FiQRtQ0UN0Pm9-226">
          <mxGeometry x="10" width="100" height="20" as="geometry" />
        </mxCell>
        <mxCell id="BugLoS8FiQRtQ0UN0Pm9-228" value="" style="rounded=0;whiteSpace=wrap;html=1;" vertex="1" parent="BugLoS8FiQRtQ0UN0Pm9-226">
          <mxGeometry x="120" width="60" height="20" as="geometry" />
        </mxCell>
        <mxCell id="BugLoS8FiQRtQ0UN0Pm9-229" value="" style="endArrow=none;dashed=1;html=1;strokeWidth=2;rounded=0;exitX=0.5;exitY=0;exitDx=0;exitDy=0;entryX=0.25;entryY=0;entryDx=0;entryDy=0;dashPattern=1 1;" edge="1" parent="BugLoS8FiQRtQ0UN0Pm9-226">
          <mxGeometry width="50" height="50" relative="1" as="geometry">
            <mxPoint x="50" y="20" as="sourcePoint" />
            <mxPoint x="50" as="targetPoint" />
          </mxGeometry>
        </mxCell>
        <mxCell id="BugLoS8FiQRtQ0UN0Pm9-230" value="" style="endArrow=none;dashed=1;html=1;strokeWidth=2;rounded=0;exitX=0.5;exitY=0;exitDx=0;exitDy=0;entryX=0.25;entryY=0;entryDx=0;entryDy=0;dashPattern=1 1;" edge="1" parent="BugLoS8FiQRtQ0UN0Pm9-226">
          <mxGeometry width="50" height="50" relative="1" as="geometry">
            <mxPoint x="70" y="20" as="sourcePoint" />
            <mxPoint x="70" as="targetPoint" />
          </mxGeometry>
        </mxCell>
        <mxCell id="BugLoS8FiQRtQ0UN0Pm9-231" value="" style="endArrow=none;dashed=1;html=1;strokeWidth=2;rounded=0;exitX=0.5;exitY=0;exitDx=0;exitDy=0;entryX=0.25;entryY=0;entryDx=0;entryDy=0;dashPattern=1 1;" edge="1" parent="BugLoS8FiQRtQ0UN0Pm9-226">
          <mxGeometry width="50" height="50" relative="1" as="geometry">
            <mxPoint x="139.67" y="20" as="sourcePoint" />
            <mxPoint x="139.67" as="targetPoint" />
          </mxGeometry>
        </mxCell>
        <mxCell id="BugLoS8FiQRtQ0UN0Pm9-232" value="10" style="text;html=1;strokeColor=none;fillColor=none;align=center;verticalAlign=middle;whiteSpace=wrap;rounded=0;" vertex="1" parent="BugLoS8FiQRtQ0UN0Pm9-226">
          <mxGeometry x="170" y="20" width="20" height="20" as="geometry" />
        </mxCell>
        <mxCell id="BugLoS8FiQRtQ0UN0Pm9-233" value="0" style="text;html=1;strokeColor=none;fillColor=none;align=center;verticalAlign=middle;whiteSpace=wrap;rounded=0;" vertex="1" parent="BugLoS8FiQRtQ0UN0Pm9-226">
          <mxGeometry y="20" width="20" height="20" as="geometry" />
        </mxCell>
        <mxCell id="BugLoS8FiQRtQ0UN0Pm9-234" value="4" style="text;html=1;strokeColor=none;fillColor=none;align=center;verticalAlign=middle;whiteSpace=wrap;rounded=0;" vertex="1" parent="BugLoS8FiQRtQ0UN0Pm9-226">
          <mxGeometry x="40" y="20" width="20" height="20" as="geometry" />
        </mxCell>
        <mxCell id="BugLoS8FiQRtQ0UN0Pm9-235" value="5" style="text;html=1;strokeColor=none;fillColor=none;align=center;verticalAlign=middle;whiteSpace=wrap;rounded=0;" vertex="1" parent="BugLoS8FiQRtQ0UN0Pm9-226">
          <mxGeometry x="60" y="20" width="20" height="20" as="geometry" />
        </mxCell>
        <mxCell id="BugLoS8FiQRtQ0UN0Pm9-236" value="7" style="text;html=1;strokeColor=none;fillColor=none;align=center;verticalAlign=middle;whiteSpace=wrap;rounded=0;" vertex="1" parent="BugLoS8FiQRtQ0UN0Pm9-226">
          <mxGeometry x="100" y="20" width="30" height="20" as="geometry" />
        </mxCell>
        <mxCell id="BugLoS8FiQRtQ0UN0Pm9-237" value="8" style="text;html=1;strokeColor=none;fillColor=none;align=center;verticalAlign=middle;whiteSpace=wrap;rounded=0;" vertex="1" parent="BugLoS8FiQRtQ0UN0Pm9-226">
          <mxGeometry x="130" y="20" width="20" height="20" as="geometry" />
        </mxCell>
        <mxCell id="BugLoS8FiQRtQ0UN0Pm9-238" value="" style="group" vertex="1" connectable="0" parent="1">
          <mxGeometry x="350" y="120" width="190" height="40" as="geometry" />
        </mxCell>
        <mxCell id="BugLoS8FiQRtQ0UN0Pm9-239" value="" style="rounded=0;whiteSpace=wrap;html=1;" vertex="1" parent="BugLoS8FiQRtQ0UN0Pm9-238">
          <mxGeometry x="140" width="40" height="20" as="geometry" />
        </mxCell>
        <mxCell id="BugLoS8FiQRtQ0UN0Pm9-240" value="" style="rounded=0;whiteSpace=wrap;html=1;" vertex="1" parent="BugLoS8FiQRtQ0UN0Pm9-238">
          <mxGeometry x="10" width="120" height="20" as="geometry" />
        </mxCell>
        <mxCell id="BugLoS8FiQRtQ0UN0Pm9-241" value="" style="endArrow=none;dashed=1;html=1;strokeWidth=2;rounded=0;exitX=0.5;exitY=0;exitDx=0;exitDy=0;entryX=0.25;entryY=0;entryDx=0;entryDy=0;dashPattern=1 1;" edge="1" parent="BugLoS8FiQRtQ0UN0Pm9-238">
          <mxGeometry width="50" height="50" relative="1" as="geometry">
            <mxPoint x="50" y="20" as="sourcePoint" />
            <mxPoint x="50" as="targetPoint" />
          </mxGeometry>
        </mxCell>
        <mxCell id="BugLoS8FiQRtQ0UN0Pm9-242" value="" style="endArrow=none;dashed=1;html=1;strokeWidth=2;rounded=0;exitX=0.5;exitY=0;exitDx=0;exitDy=0;entryX=0.25;entryY=0;entryDx=0;entryDy=0;dashPattern=1 1;" edge="1" parent="BugLoS8FiQRtQ0UN0Pm9-238">
          <mxGeometry width="50" height="50" relative="1" as="geometry">
            <mxPoint x="70" y="20" as="sourcePoint" />
            <mxPoint x="70" as="targetPoint" />
          </mxGeometry>
        </mxCell>
        <mxCell id="BugLoS8FiQRtQ0UN0Pm9-243" value="" style="endArrow=none;dashed=1;html=1;strokeWidth=2;rounded=0;exitX=0.5;exitY=0;exitDx=0;exitDy=0;entryX=0.25;entryY=0;entryDx=0;entryDy=0;dashPattern=1 1;" edge="1" parent="BugLoS8FiQRtQ0UN0Pm9-238">
          <mxGeometry width="50" height="50" relative="1" as="geometry">
            <mxPoint x="109.66999999999999" y="20" as="sourcePoint" />
            <mxPoint x="109.66999999999999" as="targetPoint" />
          </mxGeometry>
        </mxCell>
        <mxCell id="BugLoS8FiQRtQ0UN0Pm9-244" value="10" style="text;html=1;strokeColor=none;fillColor=none;align=center;verticalAlign=middle;whiteSpace=wrap;rounded=0;" vertex="1" parent="BugLoS8FiQRtQ0UN0Pm9-238">
          <mxGeometry x="170" y="20" width="20" height="20" as="geometry" />
        </mxCell>
        <mxCell id="BugLoS8FiQRtQ0UN0Pm9-245" value="0" style="text;html=1;strokeColor=none;fillColor=none;align=center;verticalAlign=middle;whiteSpace=wrap;rounded=0;" vertex="1" parent="BugLoS8FiQRtQ0UN0Pm9-238">
          <mxGeometry y="20" width="20" height="20" as="geometry" />
        </mxCell>
        <mxCell id="BugLoS8FiQRtQ0UN0Pm9-246" value="4" style="text;html=1;strokeColor=none;fillColor=none;align=center;verticalAlign=middle;whiteSpace=wrap;rounded=0;" vertex="1" parent="BugLoS8FiQRtQ0UN0Pm9-238">
          <mxGeometry x="40" y="20" width="20" height="20" as="geometry" />
        </mxCell>
        <mxCell id="BugLoS8FiQRtQ0UN0Pm9-247" value="5" style="text;html=1;strokeColor=none;fillColor=none;align=center;verticalAlign=middle;whiteSpace=wrap;rounded=0;" vertex="1" parent="BugLoS8FiQRtQ0UN0Pm9-238">
          <mxGeometry x="60" y="20" width="20" height="20" as="geometry" />
        </mxCell>
        <mxCell id="BugLoS8FiQRtQ0UN0Pm9-248" value="7" style="text;html=1;strokeColor=none;fillColor=none;align=center;verticalAlign=middle;whiteSpace=wrap;rounded=0;" vertex="1" parent="BugLoS8FiQRtQ0UN0Pm9-238">
          <mxGeometry x="100" y="20" width="20" height="20" as="geometry" />
        </mxCell>
        <mxCell id="BugLoS8FiQRtQ0UN0Pm9-249" value="8" style="text;html=1;strokeColor=none;fillColor=none;align=center;verticalAlign=middle;whiteSpace=wrap;rounded=0;" vertex="1" parent="BugLoS8FiQRtQ0UN0Pm9-238">
          <mxGeometry x="120" y="20" width="30" height="20" as="geometry" />
        </mxCell>
        <mxCell id="BugLoS8FiQRtQ0UN0Pm9-250" value="" style="group" vertex="1" connectable="0" parent="1">
          <mxGeometry x="350" y="200" width="190" height="40" as="geometry" />
        </mxCell>
        <mxCell id="BugLoS8FiQRtQ0UN0Pm9-251" value="" style="rounded=0;whiteSpace=wrap;html=1;" vertex="1" parent="BugLoS8FiQRtQ0UN0Pm9-250">
          <mxGeometry x="140" width="40" height="20" as="geometry" />
        </mxCell>
        <mxCell id="BugLoS8FiQRtQ0UN0Pm9-252" value="" style="rounded=0;whiteSpace=wrap;html=1;" vertex="1" parent="BugLoS8FiQRtQ0UN0Pm9-250">
          <mxGeometry x="10" width="120" height="20" as="geometry" />
        </mxCell>
        <mxCell id="BugLoS8FiQRtQ0UN0Pm9-253" value="" style="endArrow=none;dashed=1;html=1;strokeWidth=2;rounded=0;exitX=0.5;exitY=0;exitDx=0;exitDy=0;entryX=0.25;entryY=0;entryDx=0;entryDy=0;dashPattern=1 1;" edge="1" parent="BugLoS8FiQRtQ0UN0Pm9-250">
          <mxGeometry width="50" height="50" relative="1" as="geometry">
            <mxPoint x="50" y="20" as="sourcePoint" />
            <mxPoint x="50" as="targetPoint" />
          </mxGeometry>
        </mxCell>
        <mxCell id="BugLoS8FiQRtQ0UN0Pm9-254" value="" style="endArrow=none;dashed=1;html=1;strokeWidth=2;rounded=0;exitX=0.5;exitY=0;exitDx=0;exitDy=0;entryX=0.25;entryY=0;entryDx=0;entryDy=0;dashPattern=1 1;" edge="1" parent="BugLoS8FiQRtQ0UN0Pm9-250">
          <mxGeometry width="50" height="50" relative="1" as="geometry">
            <mxPoint x="70" y="20" as="sourcePoint" />
            <mxPoint x="70" as="targetPoint" />
          </mxGeometry>
        </mxCell>
        <mxCell id="BugLoS8FiQRtQ0UN0Pm9-255" value="" style="endArrow=none;dashed=1;html=1;strokeWidth=2;rounded=0;exitX=0.5;exitY=0;exitDx=0;exitDy=0;entryX=0.25;entryY=0;entryDx=0;entryDy=0;dashPattern=1 1;" edge="1" parent="BugLoS8FiQRtQ0UN0Pm9-250">
          <mxGeometry width="50" height="50" relative="1" as="geometry">
            <mxPoint x="109.66999999999999" y="20" as="sourcePoint" />
            <mxPoint x="109.66999999999999" as="targetPoint" />
          </mxGeometry>
        </mxCell>
        <mxCell id="BugLoS8FiQRtQ0UN0Pm9-256" value="10" style="text;html=1;strokeColor=none;fillColor=none;align=center;verticalAlign=middle;whiteSpace=wrap;rounded=0;" vertex="1" parent="BugLoS8FiQRtQ0UN0Pm9-250">
          <mxGeometry x="170" y="20" width="20" height="20" as="geometry" />
        </mxCell>
        <mxCell id="BugLoS8FiQRtQ0UN0Pm9-257" value="0" style="text;html=1;strokeColor=none;fillColor=none;align=center;verticalAlign=middle;whiteSpace=wrap;rounded=0;" vertex="1" parent="BugLoS8FiQRtQ0UN0Pm9-250">
          <mxGeometry y="20" width="20" height="20" as="geometry" />
        </mxCell>
        <mxCell id="BugLoS8FiQRtQ0UN0Pm9-258" value="4" style="text;html=1;strokeColor=none;fillColor=none;align=center;verticalAlign=middle;whiteSpace=wrap;rounded=0;" vertex="1" parent="BugLoS8FiQRtQ0UN0Pm9-250">
          <mxGeometry x="40" y="20" width="20" height="20" as="geometry" />
        </mxCell>
        <mxCell id="BugLoS8FiQRtQ0UN0Pm9-259" value="5" style="text;html=1;strokeColor=none;fillColor=none;align=center;verticalAlign=middle;whiteSpace=wrap;rounded=0;" vertex="1" parent="BugLoS8FiQRtQ0UN0Pm9-250">
          <mxGeometry x="60" y="20" width="20" height="20" as="geometry" />
        </mxCell>
        <mxCell id="BugLoS8FiQRtQ0UN0Pm9-260" value="7" style="text;html=1;strokeColor=none;fillColor=none;align=center;verticalAlign=middle;whiteSpace=wrap;rounded=0;" vertex="1" parent="BugLoS8FiQRtQ0UN0Pm9-250">
          <mxGeometry x="100" y="20" width="20" height="20" as="geometry" />
        </mxCell>
        <mxCell id="BugLoS8FiQRtQ0UN0Pm9-261" value="8" style="text;html=1;strokeColor=none;fillColor=none;align=center;verticalAlign=middle;whiteSpace=wrap;rounded=0;" vertex="1" parent="BugLoS8FiQRtQ0UN0Pm9-250">
          <mxGeometry x="120" y="20" width="30" height="20" as="geometry" />
        </mxCell>
        <mxCell id="BugLoS8FiQRtQ0UN0Pm9-262" value="" style="group" vertex="1" connectable="0" parent="1">
          <mxGeometry x="350" y="240" width="190" height="40" as="geometry" />
        </mxCell>
        <mxCell id="BugLoS8FiQRtQ0UN0Pm9-263" value="" style="rounded=0;whiteSpace=wrap;html=1;" vertex="1" parent="BugLoS8FiQRtQ0UN0Pm9-262">
          <mxGeometry x="10" width="60" height="20" as="geometry" />
        </mxCell>
        <mxCell id="BugLoS8FiQRtQ0UN0Pm9-264" value="" style="rounded=0;whiteSpace=wrap;html=1;" vertex="1" parent="BugLoS8FiQRtQ0UN0Pm9-262">
          <mxGeometry x="80" width="100" height="20" as="geometry" />
        </mxCell>
        <mxCell id="BugLoS8FiQRtQ0UN0Pm9-265" value="" style="endArrow=none;dashed=1;html=1;strokeWidth=2;rounded=0;exitX=0.5;exitY=0;exitDx=0;exitDy=0;entryX=0.25;entryY=0;entryDx=0;entryDy=0;dashPattern=1 1;" edge="1" parent="BugLoS8FiQRtQ0UN0Pm9-262">
          <mxGeometry width="50" height="50" relative="1" as="geometry">
            <mxPoint x="49.999999999999986" y="20" as="sourcePoint" />
            <mxPoint x="49.999999999999986" as="targetPoint" />
          </mxGeometry>
        </mxCell>
        <mxCell id="BugLoS8FiQRtQ0UN0Pm9-266" value="" style="endArrow=none;dashed=1;html=1;strokeWidth=2;rounded=0;exitX=0.5;exitY=0;exitDx=0;exitDy=0;entryX=0.25;entryY=0;entryDx=0;entryDy=0;dashPattern=1 1;" edge="1" parent="BugLoS8FiQRtQ0UN0Pm9-262">
          <mxGeometry width="50" height="50" relative="1" as="geometry">
            <mxPoint x="120" y="20" as="sourcePoint" />
            <mxPoint x="120" as="targetPoint" />
          </mxGeometry>
        </mxCell>
        <mxCell id="BugLoS8FiQRtQ0UN0Pm9-267" value="" style="endArrow=none;dashed=1;html=1;strokeWidth=2;rounded=0;exitX=0.5;exitY=0;exitDx=0;exitDy=0;entryX=0.25;entryY=0;entryDx=0;entryDy=0;dashPattern=1 1;" edge="1" parent="BugLoS8FiQRtQ0UN0Pm9-262">
          <mxGeometry width="50" height="50" relative="1" as="geometry">
            <mxPoint x="140" y="20" as="sourcePoint" />
            <mxPoint x="140" as="targetPoint" />
          </mxGeometry>
        </mxCell>
        <mxCell id="BugLoS8FiQRtQ0UN0Pm9-268" value="10" style="text;html=1;strokeColor=none;fillColor=none;align=center;verticalAlign=middle;whiteSpace=wrap;rounded=0;" vertex="1" parent="BugLoS8FiQRtQ0UN0Pm9-262">
          <mxGeometry x="170" y="20" width="20" height="20" as="geometry" />
        </mxCell>
        <mxCell id="BugLoS8FiQRtQ0UN0Pm9-269" value="0" style="text;html=1;strokeColor=none;fillColor=none;align=center;verticalAlign=middle;whiteSpace=wrap;rounded=0;" vertex="1" parent="BugLoS8FiQRtQ0UN0Pm9-262">
          <mxGeometry y="20" width="20" height="20" as="geometry" />
        </mxCell>
        <mxCell id="BugLoS8FiQRtQ0UN0Pm9-270" value="4" style="text;html=1;strokeColor=none;fillColor=none;align=center;verticalAlign=middle;whiteSpace=wrap;rounded=0;" vertex="1" parent="BugLoS8FiQRtQ0UN0Pm9-262">
          <mxGeometry x="40" y="20" width="20" height="20" as="geometry" />
        </mxCell>
        <mxCell id="BugLoS8FiQRtQ0UN0Pm9-271" value="5" style="text;html=1;strokeColor=none;fillColor=none;align=center;verticalAlign=middle;whiteSpace=wrap;rounded=0;" vertex="1" parent="BugLoS8FiQRtQ0UN0Pm9-262">
          <mxGeometry x="60" y="20" width="30" height="20" as="geometry" />
        </mxCell>
        <mxCell id="BugLoS8FiQRtQ0UN0Pm9-272" value="7" style="text;html=1;strokeColor=none;fillColor=none;align=center;verticalAlign=middle;whiteSpace=wrap;rounded=0;" vertex="1" parent="BugLoS8FiQRtQ0UN0Pm9-262">
          <mxGeometry x="110" y="20" width="20" height="20" as="geometry" />
        </mxCell>
        <mxCell id="BugLoS8FiQRtQ0UN0Pm9-273" value="8" style="text;html=1;strokeColor=none;fillColor=none;align=center;verticalAlign=middle;whiteSpace=wrap;rounded=0;" vertex="1" parent="BugLoS8FiQRtQ0UN0Pm9-262">
          <mxGeometry x="130" y="20" width="20" height="20" as="geometry" />
        </mxCell>
        <mxCell id="BugLoS8FiQRtQ0UN0Pm9-274" value="" style="group" vertex="1" connectable="0" parent="1">
          <mxGeometry x="350" y="280" width="190" height="40" as="geometry" />
        </mxCell>
        <mxCell id="BugLoS8FiQRtQ0UN0Pm9-275" value="" style="rounded=0;whiteSpace=wrap;html=1;" vertex="1" parent="BugLoS8FiQRtQ0UN0Pm9-274">
          <mxGeometry x="10" width="100" height="20" as="geometry" />
        </mxCell>
        <mxCell id="BugLoS8FiQRtQ0UN0Pm9-276" value="" style="rounded=0;whiteSpace=wrap;html=1;" vertex="1" parent="BugLoS8FiQRtQ0UN0Pm9-274">
          <mxGeometry x="120" width="60" height="20" as="geometry" />
        </mxCell>
        <mxCell id="BugLoS8FiQRtQ0UN0Pm9-277" value="" style="endArrow=none;dashed=1;html=1;strokeWidth=2;rounded=0;exitX=0.5;exitY=0;exitDx=0;exitDy=0;entryX=0.25;entryY=0;entryDx=0;entryDy=0;dashPattern=1 1;" edge="1" parent="BugLoS8FiQRtQ0UN0Pm9-274">
          <mxGeometry width="50" height="50" relative="1" as="geometry">
            <mxPoint x="50" y="20" as="sourcePoint" />
            <mxPoint x="50" as="targetPoint" />
          </mxGeometry>
        </mxCell>
        <mxCell id="BugLoS8FiQRtQ0UN0Pm9-278" value="" style="endArrow=none;dashed=1;html=1;strokeWidth=2;rounded=0;exitX=0.5;exitY=0;exitDx=0;exitDy=0;entryX=0.25;entryY=0;entryDx=0;entryDy=0;dashPattern=1 1;" edge="1" parent="BugLoS8FiQRtQ0UN0Pm9-274">
          <mxGeometry width="50" height="50" relative="1" as="geometry">
            <mxPoint x="70" y="20" as="sourcePoint" />
            <mxPoint x="70" as="targetPoint" />
          </mxGeometry>
        </mxCell>
        <mxCell id="BugLoS8FiQRtQ0UN0Pm9-279" value="" style="endArrow=none;dashed=1;html=1;strokeWidth=2;rounded=0;exitX=0.5;exitY=0;exitDx=0;exitDy=0;entryX=0.25;entryY=0;entryDx=0;entryDy=0;dashPattern=1 1;" edge="1" parent="BugLoS8FiQRtQ0UN0Pm9-274">
          <mxGeometry width="50" height="50" relative="1" as="geometry">
            <mxPoint x="139.67" y="20" as="sourcePoint" />
            <mxPoint x="139.67" as="targetPoint" />
          </mxGeometry>
        </mxCell>
        <mxCell id="BugLoS8FiQRtQ0UN0Pm9-280" value="10" style="text;html=1;strokeColor=none;fillColor=none;align=center;verticalAlign=middle;whiteSpace=wrap;rounded=0;" vertex="1" parent="BugLoS8FiQRtQ0UN0Pm9-274">
          <mxGeometry x="170" y="20" width="20" height="20" as="geometry" />
        </mxCell>
        <mxCell id="BugLoS8FiQRtQ0UN0Pm9-281" value="0" style="text;html=1;strokeColor=none;fillColor=none;align=center;verticalAlign=middle;whiteSpace=wrap;rounded=0;" vertex="1" parent="BugLoS8FiQRtQ0UN0Pm9-274">
          <mxGeometry y="20" width="20" height="20" as="geometry" />
        </mxCell>
        <mxCell id="BugLoS8FiQRtQ0UN0Pm9-282" value="4" style="text;html=1;strokeColor=none;fillColor=none;align=center;verticalAlign=middle;whiteSpace=wrap;rounded=0;" vertex="1" parent="BugLoS8FiQRtQ0UN0Pm9-274">
          <mxGeometry x="40" y="20" width="20" height="20" as="geometry" />
        </mxCell>
        <mxCell id="BugLoS8FiQRtQ0UN0Pm9-283" value="5" style="text;html=1;strokeColor=none;fillColor=none;align=center;verticalAlign=middle;whiteSpace=wrap;rounded=0;" vertex="1" parent="BugLoS8FiQRtQ0UN0Pm9-274">
          <mxGeometry x="60" y="20" width="20" height="20" as="geometry" />
        </mxCell>
        <mxCell id="BugLoS8FiQRtQ0UN0Pm9-284" value="7" style="text;html=1;strokeColor=none;fillColor=none;align=center;verticalAlign=middle;whiteSpace=wrap;rounded=0;" vertex="1" parent="BugLoS8FiQRtQ0UN0Pm9-274">
          <mxGeometry x="100" y="20" width="30" height="20" as="geometry" />
        </mxCell>
        <mxCell id="BugLoS8FiQRtQ0UN0Pm9-285" value="8" style="text;html=1;strokeColor=none;fillColor=none;align=center;verticalAlign=middle;whiteSpace=wrap;rounded=0;" vertex="1" parent="BugLoS8FiQRtQ0UN0Pm9-274">
          <mxGeometry x="130" y="20" width="20" height="20" as="geometry" />
        </mxCell>
        <mxCell id="BugLoS8FiQRtQ0UN0Pm9-286" value="" style="group" vertex="1" connectable="0" parent="1">
          <mxGeometry x="350" y="320" width="190" height="40" as="geometry" />
        </mxCell>
        <mxCell id="BugLoS8FiQRtQ0UN0Pm9-287" value="" style="rounded=0;whiteSpace=wrap;html=1;" vertex="1" parent="BugLoS8FiQRtQ0UN0Pm9-286">
          <mxGeometry x="10" width="60" height="20" as="geometry" />
        </mxCell>
        <mxCell id="BugLoS8FiQRtQ0UN0Pm9-288" value="" style="rounded=0;whiteSpace=wrap;html=1;" vertex="1" parent="BugLoS8FiQRtQ0UN0Pm9-286">
          <mxGeometry x="80" width="100" height="20" as="geometry" />
        </mxCell>
        <mxCell id="BugLoS8FiQRtQ0UN0Pm9-289" value="" style="endArrow=none;dashed=1;html=1;strokeWidth=2;rounded=0;exitX=0.5;exitY=0;exitDx=0;exitDy=0;entryX=0.25;entryY=0;entryDx=0;entryDy=0;dashPattern=1 1;" edge="1" parent="BugLoS8FiQRtQ0UN0Pm9-286">
          <mxGeometry width="50" height="50" relative="1" as="geometry">
            <mxPoint x="49.999999999999986" y="20" as="sourcePoint" />
            <mxPoint x="49.999999999999986" as="targetPoint" />
          </mxGeometry>
        </mxCell>
        <mxCell id="BugLoS8FiQRtQ0UN0Pm9-290" value="" style="endArrow=none;dashed=1;html=1;strokeWidth=2;rounded=0;exitX=0.5;exitY=0;exitDx=0;exitDy=0;entryX=0.25;entryY=0;entryDx=0;entryDy=0;dashPattern=1 1;" edge="1" parent="BugLoS8FiQRtQ0UN0Pm9-286">
          <mxGeometry width="50" height="50" relative="1" as="geometry">
            <mxPoint x="120" y="20" as="sourcePoint" />
            <mxPoint x="120" as="targetPoint" />
          </mxGeometry>
        </mxCell>
        <mxCell id="BugLoS8FiQRtQ0UN0Pm9-291" value="" style="endArrow=none;dashed=1;html=1;strokeWidth=2;rounded=0;exitX=0.5;exitY=0;exitDx=0;exitDy=0;entryX=0.25;entryY=0;entryDx=0;entryDy=0;dashPattern=1 1;" edge="1" parent="BugLoS8FiQRtQ0UN0Pm9-286">
          <mxGeometry width="50" height="50" relative="1" as="geometry">
            <mxPoint x="140" y="20" as="sourcePoint" />
            <mxPoint x="140" as="targetPoint" />
          </mxGeometry>
        </mxCell>
        <mxCell id="BugLoS8FiQRtQ0UN0Pm9-292" value="10" style="text;html=1;strokeColor=none;fillColor=none;align=center;verticalAlign=middle;whiteSpace=wrap;rounded=0;" vertex="1" parent="BugLoS8FiQRtQ0UN0Pm9-286">
          <mxGeometry x="170" y="20" width="20" height="20" as="geometry" />
        </mxCell>
        <mxCell id="BugLoS8FiQRtQ0UN0Pm9-293" value="0" style="text;html=1;strokeColor=none;fillColor=none;align=center;verticalAlign=middle;whiteSpace=wrap;rounded=0;" vertex="1" parent="BugLoS8FiQRtQ0UN0Pm9-286">
          <mxGeometry y="20" width="20" height="20" as="geometry" />
        </mxCell>
        <mxCell id="BugLoS8FiQRtQ0UN0Pm9-294" value="4" style="text;html=1;strokeColor=none;fillColor=none;align=center;verticalAlign=middle;whiteSpace=wrap;rounded=0;" vertex="1" parent="BugLoS8FiQRtQ0UN0Pm9-286">
          <mxGeometry x="40" y="20" width="20" height="20" as="geometry" />
        </mxCell>
        <mxCell id="BugLoS8FiQRtQ0UN0Pm9-295" value="5" style="text;html=1;strokeColor=none;fillColor=none;align=center;verticalAlign=middle;whiteSpace=wrap;rounded=0;" vertex="1" parent="BugLoS8FiQRtQ0UN0Pm9-286">
          <mxGeometry x="60" y="20" width="30" height="20" as="geometry" />
        </mxCell>
        <mxCell id="BugLoS8FiQRtQ0UN0Pm9-296" value="7" style="text;html=1;strokeColor=none;fillColor=none;align=center;verticalAlign=middle;whiteSpace=wrap;rounded=0;" vertex="1" parent="BugLoS8FiQRtQ0UN0Pm9-286">
          <mxGeometry x="110" y="20" width="20" height="20" as="geometry" />
        </mxCell>
        <mxCell id="BugLoS8FiQRtQ0UN0Pm9-297" value="8" style="text;html=1;strokeColor=none;fillColor=none;align=center;verticalAlign=middle;whiteSpace=wrap;rounded=0;" vertex="1" parent="BugLoS8FiQRtQ0UN0Pm9-286">
          <mxGeometry x="130" y="20" width="20" height="20" as="geometry" />
        </mxCell>
        <mxCell id="BugLoS8FiQRtQ0UN0Pm9-312" value="" style="group" vertex="1" connectable="0" parent="1">
          <mxGeometry x="630" y="640" width="180" height="40" as="geometry" />
        </mxCell>
        <mxCell id="tgORUhqbO6z2Rw3vzg53-1" value="" style="rounded=0;whiteSpace=wrap;html=1;" parent="BugLoS8FiQRtQ0UN0Pm9-312" vertex="1">
          <mxGeometry x="10" width="160" height="20" as="geometry" />
        </mxCell>
        <mxCell id="tgORUhqbO6z2Rw3vzg53-4" value="4" style="text;html=1;strokeColor=none;fillColor=none;align=center;verticalAlign=middle;whiteSpace=wrap;rounded=0;" parent="BugLoS8FiQRtQ0UN0Pm9-312" vertex="1">
          <mxGeometry x="40" y="20" width="20" height="20" as="geometry" />
        </mxCell>
        <mxCell id="tgORUhqbO6z2Rw3vzg53-5" value="5" style="text;html=1;strokeColor=none;fillColor=none;align=center;verticalAlign=middle;whiteSpace=wrap;rounded=0;" parent="BugLoS8FiQRtQ0UN0Pm9-312" vertex="1">
          <mxGeometry x="60" y="20" width="20" height="20" as="geometry" />
        </mxCell>
        <mxCell id="tgORUhqbO6z2Rw3vzg53-6" value="8" style="text;html=1;strokeColor=none;fillColor=none;align=center;verticalAlign=middle;whiteSpace=wrap;rounded=0;" parent="BugLoS8FiQRtQ0UN0Pm9-312" vertex="1">
          <mxGeometry x="120" y="20" width="20" height="20" as="geometry" />
        </mxCell>
        <mxCell id="tgORUhqbO6z2Rw3vzg53-7" value="7" style="text;html=1;strokeColor=none;fillColor=none;align=center;verticalAlign=middle;whiteSpace=wrap;rounded=0;" parent="BugLoS8FiQRtQ0UN0Pm9-312" vertex="1">
          <mxGeometry x="100" y="20" width="20" height="20" as="geometry" />
        </mxCell>
        <mxCell id="tgORUhqbO6z2Rw3vzg53-8" value="10" style="text;html=1;strokeColor=none;fillColor=none;align=center;verticalAlign=middle;whiteSpace=wrap;rounded=0;" parent="BugLoS8FiQRtQ0UN0Pm9-312" vertex="1">
          <mxGeometry x="160" y="20" width="20" height="20" as="geometry" />
        </mxCell>
        <mxCell id="tgORUhqbO6z2Rw3vzg53-9" value="" style="endArrow=none;dashed=1;html=1;strokeWidth=2;rounded=0;exitX=0.5;exitY=0;exitDx=0;exitDy=0;entryX=0.25;entryY=0;entryDx=0;entryDy=0;dashPattern=1 1;" parent="BugLoS8FiQRtQ0UN0Pm9-312" source="tgORUhqbO6z2Rw3vzg53-4" target="tgORUhqbO6z2Rw3vzg53-1" edge="1">
          <mxGeometry width="50" height="50" relative="1" as="geometry">
            <mxPoint x="120" y="80" as="sourcePoint" />
            <mxPoint x="170" y="30" as="targetPoint" />
          </mxGeometry>
        </mxCell>
        <mxCell id="tgORUhqbO6z2Rw3vzg53-10" value="" style="endArrow=none;dashed=1;html=1;strokeWidth=2;rounded=0;exitX=0.5;exitY=0;exitDx=0;exitDy=0;entryX=0.25;entryY=0;entryDx=0;entryDy=0;dashPattern=1 1;" parent="BugLoS8FiQRtQ0UN0Pm9-312" edge="1">
          <mxGeometry width="50" height="50" relative="1" as="geometry">
            <mxPoint x="69.76" y="20" as="sourcePoint" />
            <mxPoint x="69.76" as="targetPoint" />
          </mxGeometry>
        </mxCell>
        <mxCell id="tgORUhqbO6z2Rw3vzg53-11" value="" style="endArrow=none;dashed=1;html=1;strokeWidth=2;rounded=0;exitX=0.5;exitY=0;exitDx=0;exitDy=0;entryX=0.25;entryY=0;entryDx=0;entryDy=0;dashPattern=1 1;" parent="BugLoS8FiQRtQ0UN0Pm9-312" edge="1">
          <mxGeometry width="50" height="50" relative="1" as="geometry">
            <mxPoint x="109.75999999999999" y="20" as="sourcePoint" />
            <mxPoint x="109.75999999999999" as="targetPoint" />
          </mxGeometry>
        </mxCell>
        <mxCell id="tgORUhqbO6z2Rw3vzg53-12" value="" style="endArrow=none;dashed=1;html=1;strokeWidth=2;rounded=0;exitX=0.5;exitY=0;exitDx=0;exitDy=0;entryX=0.25;entryY=0;entryDx=0;entryDy=0;dashPattern=1 1;" parent="BugLoS8FiQRtQ0UN0Pm9-312" edge="1">
          <mxGeometry width="50" height="50" relative="1" as="geometry">
            <mxPoint x="129.76" y="20" as="sourcePoint" />
            <mxPoint x="129.76" as="targetPoint" />
          </mxGeometry>
        </mxCell>
        <mxCell id="BugLoS8FiQRtQ0UN0Pm9-311" value="0" style="text;html=1;strokeColor=none;fillColor=none;align=center;verticalAlign=middle;whiteSpace=wrap;rounded=0;" vertex="1" parent="BugLoS8FiQRtQ0UN0Pm9-312">
          <mxGeometry y="20" width="20" height="20" as="geometry" />
        </mxCell>
        <mxCell id="BugLoS8FiQRtQ0UN0Pm9-314" value="" style="group" vertex="1" connectable="0" parent="1">
          <mxGeometry x="110" y="600" width="200" height="40" as="geometry" />
        </mxCell>
        <mxCell id="BugLoS8FiQRtQ0UN0Pm9-315" value="" style="rounded=0;whiteSpace=wrap;html=1;" vertex="1" parent="BugLoS8FiQRtQ0UN0Pm9-314">
          <mxGeometry x="10" width="40" height="20" as="geometry" />
        </mxCell>
        <mxCell id="BugLoS8FiQRtQ0UN0Pm9-316" value="" style="rounded=0;whiteSpace=wrap;html=1;" vertex="1" parent="BugLoS8FiQRtQ0UN0Pm9-314">
          <mxGeometry x="130" width="60" height="20" as="geometry" />
        </mxCell>
        <mxCell id="BugLoS8FiQRtQ0UN0Pm9-317" value="" style="endArrow=none;dashed=1;html=1;strokeWidth=2;rounded=0;exitX=0.5;exitY=0;exitDx=0;exitDy=0;entryX=0.25;entryY=0;entryDx=0;entryDy=0;dashPattern=1 1;" edge="1" parent="BugLoS8FiQRtQ0UN0Pm9-314">
          <mxGeometry width="50" height="50" relative="1" as="geometry">
            <mxPoint x="150" y="20" as="sourcePoint" />
            <mxPoint x="150" as="targetPoint" />
          </mxGeometry>
        </mxCell>
        <mxCell id="BugLoS8FiQRtQ0UN0Pm9-318" value="" style="rounded=0;whiteSpace=wrap;html=1;" vertex="1" parent="BugLoS8FiQRtQ0UN0Pm9-314">
          <mxGeometry x="60" width="60" height="20" as="geometry" />
        </mxCell>
        <mxCell id="BugLoS8FiQRtQ0UN0Pm9-319" value="" style="endArrow=none;dashed=1;html=1;strokeWidth=2;rounded=0;exitX=0.5;exitY=1;exitDx=0;exitDy=0;entryX=0.5;entryY=0;entryDx=0;entryDy=0;dashPattern=1 1;" edge="1" parent="BugLoS8FiQRtQ0UN0Pm9-314">
          <mxGeometry width="50" height="50" relative="1" as="geometry">
            <mxPoint x="79.81" y="20" as="sourcePoint" />
            <mxPoint x="79.81" as="targetPoint" />
          </mxGeometry>
        </mxCell>
        <mxCell id="BugLoS8FiQRtQ0UN0Pm9-320" value="5" style="text;html=1;strokeColor=none;fillColor=none;align=center;verticalAlign=middle;whiteSpace=wrap;rounded=0;" vertex="1" parent="BugLoS8FiQRtQ0UN0Pm9-314">
          <mxGeometry x="70" y="20" width="20" height="20" as="geometry" />
        </mxCell>
        <mxCell id="BugLoS8FiQRtQ0UN0Pm9-321" value="4" style="text;html=1;strokeColor=none;fillColor=none;align=center;verticalAlign=middle;whiteSpace=wrap;rounded=0;" vertex="1" parent="BugLoS8FiQRtQ0UN0Pm9-314">
          <mxGeometry x="40" y="20" width="30" height="20" as="geometry" />
        </mxCell>
        <mxCell id="BugLoS8FiQRtQ0UN0Pm9-322" value="0" style="text;html=1;strokeColor=none;fillColor=none;align=center;verticalAlign=middle;whiteSpace=wrap;rounded=0;" vertex="1" parent="BugLoS8FiQRtQ0UN0Pm9-314">
          <mxGeometry y="20" width="20" height="20" as="geometry" />
        </mxCell>
        <mxCell id="BugLoS8FiQRtQ0UN0Pm9-323" value="10" style="text;html=1;strokeColor=none;fillColor=none;align=center;verticalAlign=middle;whiteSpace=wrap;rounded=0;" vertex="1" parent="BugLoS8FiQRtQ0UN0Pm9-314">
          <mxGeometry x="180" y="20" width="20" height="20" as="geometry" />
        </mxCell>
        <mxCell id="BugLoS8FiQRtQ0UN0Pm9-324" value="7" style="text;html=1;strokeColor=none;fillColor=none;align=center;verticalAlign=middle;whiteSpace=wrap;rounded=0;" vertex="1" parent="BugLoS8FiQRtQ0UN0Pm9-314">
          <mxGeometry x="110" y="20" width="30" height="20" as="geometry" />
        </mxCell>
        <mxCell id="BugLoS8FiQRtQ0UN0Pm9-325" value="8" style="text;html=1;strokeColor=none;fillColor=none;align=center;verticalAlign=middle;whiteSpace=wrap;rounded=0;" vertex="1" parent="BugLoS8FiQRtQ0UN0Pm9-314">
          <mxGeometry x="140" y="20" width="20" height="20" as="geometry" />
        </mxCell>
        <mxCell id="BugLoS8FiQRtQ0UN0Pm9-326" value="" style="group" vertex="1" connectable="0" parent="1">
          <mxGeometry x="110" y="520" width="200" height="40" as="geometry" />
        </mxCell>
        <mxCell id="BugLoS8FiQRtQ0UN0Pm9-327" value="" style="rounded=0;whiteSpace=wrap;html=1;" vertex="1" parent="BugLoS8FiQRtQ0UN0Pm9-326">
          <mxGeometry x="10" width="40" height="20" as="geometry" />
        </mxCell>
        <mxCell id="BugLoS8FiQRtQ0UN0Pm9-328" value="" style="rounded=0;whiteSpace=wrap;html=1;" vertex="1" parent="BugLoS8FiQRtQ0UN0Pm9-326">
          <mxGeometry x="150" width="40" height="20" as="geometry" />
        </mxCell>
        <mxCell id="BugLoS8FiQRtQ0UN0Pm9-329" value="" style="rounded=0;whiteSpace=wrap;html=1;" vertex="1" parent="BugLoS8FiQRtQ0UN0Pm9-326">
          <mxGeometry x="60" width="80" height="20" as="geometry" />
        </mxCell>
        <mxCell id="BugLoS8FiQRtQ0UN0Pm9-330" value="" style="endArrow=none;dashed=1;html=1;strokeWidth=2;rounded=0;exitX=0.5;exitY=1;exitDx=0;exitDy=0;entryX=0.5;entryY=0;entryDx=0;entryDy=0;dashPattern=1 1;" edge="1" parent="BugLoS8FiQRtQ0UN0Pm9-326">
          <mxGeometry width="50" height="50" relative="1" as="geometry">
            <mxPoint x="79.81" y="20" as="sourcePoint" />
            <mxPoint x="79.81" as="targetPoint" />
          </mxGeometry>
        </mxCell>
        <mxCell id="BugLoS8FiQRtQ0UN0Pm9-331" value="" style="endArrow=none;dashed=1;html=1;strokeWidth=2;rounded=0;exitX=0.5;exitY=0;exitDx=0;exitDy=0;entryX=0.25;entryY=0;entryDx=0;entryDy=0;dashPattern=1 1;" edge="1" parent="BugLoS8FiQRtQ0UN0Pm9-326">
          <mxGeometry width="50" height="50" relative="1" as="geometry">
            <mxPoint x="119.67000000000002" y="20" as="sourcePoint" />
            <mxPoint x="119.67000000000002" as="targetPoint" />
          </mxGeometry>
        </mxCell>
        <mxCell id="BugLoS8FiQRtQ0UN0Pm9-332" value="0" style="text;html=1;strokeColor=none;fillColor=none;align=center;verticalAlign=middle;whiteSpace=wrap;rounded=0;" vertex="1" parent="BugLoS8FiQRtQ0UN0Pm9-326">
          <mxGeometry y="20" width="20" height="20" as="geometry" />
        </mxCell>
        <mxCell id="BugLoS8FiQRtQ0UN0Pm9-333" value="10" style="text;html=1;strokeColor=none;fillColor=none;align=center;verticalAlign=middle;whiteSpace=wrap;rounded=0;" vertex="1" parent="BugLoS8FiQRtQ0UN0Pm9-326">
          <mxGeometry x="180" y="20" width="20" height="20" as="geometry" />
        </mxCell>
        <mxCell id="BugLoS8FiQRtQ0UN0Pm9-334" value="4" style="text;html=1;strokeColor=none;fillColor=none;align=center;verticalAlign=middle;whiteSpace=wrap;rounded=0;" vertex="1" parent="BugLoS8FiQRtQ0UN0Pm9-326">
          <mxGeometry x="40" y="20" width="30" height="20" as="geometry" />
        </mxCell>
        <mxCell id="BugLoS8FiQRtQ0UN0Pm9-335" value="5" style="text;html=1;strokeColor=none;fillColor=none;align=center;verticalAlign=middle;whiteSpace=wrap;rounded=0;" vertex="1" parent="BugLoS8FiQRtQ0UN0Pm9-326">
          <mxGeometry x="70" y="20" width="20" height="20" as="geometry" />
        </mxCell>
        <mxCell id="BugLoS8FiQRtQ0UN0Pm9-336" value="8" style="text;html=1;strokeColor=none;fillColor=none;align=center;verticalAlign=middle;whiteSpace=wrap;rounded=0;" vertex="1" parent="BugLoS8FiQRtQ0UN0Pm9-326">
          <mxGeometry x="130" y="20" width="30" height="20" as="geometry" />
        </mxCell>
        <mxCell id="BugLoS8FiQRtQ0UN0Pm9-337" value="7" style="text;html=1;strokeColor=none;fillColor=none;align=center;verticalAlign=middle;whiteSpace=wrap;rounded=0;" vertex="1" parent="BugLoS8FiQRtQ0UN0Pm9-326">
          <mxGeometry x="110" y="20" width="20" height="20" as="geometry" />
        </mxCell>
        <mxCell id="BugLoS8FiQRtQ0UN0Pm9-338" value="" style="group" vertex="1" connectable="0" parent="1">
          <mxGeometry x="110" y="440" width="200" height="40" as="geometry" />
        </mxCell>
        <mxCell id="BugLoS8FiQRtQ0UN0Pm9-339" value="" style="rounded=0;whiteSpace=wrap;html=1;" vertex="1" parent="BugLoS8FiQRtQ0UN0Pm9-338">
          <mxGeometry x="10" width="100" height="20" as="geometry" />
        </mxCell>
        <mxCell id="BugLoS8FiQRtQ0UN0Pm9-340" value="" style="rounded=0;whiteSpace=wrap;html=1;" vertex="1" parent="BugLoS8FiQRtQ0UN0Pm9-338">
          <mxGeometry x="150" width="40" height="20" as="geometry" />
        </mxCell>
        <mxCell id="BugLoS8FiQRtQ0UN0Pm9-341" value="" style="rounded=0;whiteSpace=wrap;html=1;" vertex="1" parent="BugLoS8FiQRtQ0UN0Pm9-338">
          <mxGeometry x="120" width="20" height="20" as="geometry" />
        </mxCell>
        <mxCell id="BugLoS8FiQRtQ0UN0Pm9-342" value="" style="endArrow=none;dashed=1;html=1;strokeWidth=2;rounded=0;exitX=0.5;exitY=1;exitDx=0;exitDy=0;entryX=0.5;entryY=0;entryDx=0;entryDy=0;dashPattern=1 1;" edge="1" parent="BugLoS8FiQRtQ0UN0Pm9-338">
          <mxGeometry width="50" height="50" relative="1" as="geometry">
            <mxPoint x="50" y="20" as="sourcePoint" />
            <mxPoint x="50" as="targetPoint" />
          </mxGeometry>
        </mxCell>
        <mxCell id="BugLoS8FiQRtQ0UN0Pm9-343" value="" style="endArrow=none;dashed=1;html=1;strokeWidth=2;rounded=0;exitX=0.5;exitY=0;exitDx=0;exitDy=0;entryX=0.25;entryY=0;entryDx=0;entryDy=0;dashPattern=1 1;" edge="1" parent="BugLoS8FiQRtQ0UN0Pm9-338">
          <mxGeometry width="50" height="50" relative="1" as="geometry">
            <mxPoint x="69.72000000000003" y="20" as="sourcePoint" />
            <mxPoint x="69.72000000000003" as="targetPoint" />
          </mxGeometry>
        </mxCell>
        <mxCell id="BugLoS8FiQRtQ0UN0Pm9-344" value="0" style="text;html=1;strokeColor=none;fillColor=none;align=center;verticalAlign=middle;whiteSpace=wrap;rounded=0;" vertex="1" parent="BugLoS8FiQRtQ0UN0Pm9-338">
          <mxGeometry y="20" width="20" height="20" as="geometry" />
        </mxCell>
        <mxCell id="BugLoS8FiQRtQ0UN0Pm9-345" value="10" style="text;html=1;strokeColor=none;fillColor=none;align=center;verticalAlign=middle;whiteSpace=wrap;rounded=0;" vertex="1" parent="BugLoS8FiQRtQ0UN0Pm9-338">
          <mxGeometry x="180" y="20" width="20" height="20" as="geometry" />
        </mxCell>
        <mxCell id="BugLoS8FiQRtQ0UN0Pm9-346" value="4" style="text;html=1;strokeColor=none;fillColor=none;align=center;verticalAlign=middle;whiteSpace=wrap;rounded=0;" vertex="1" parent="BugLoS8FiQRtQ0UN0Pm9-338">
          <mxGeometry x="40" y="20" width="20" height="20" as="geometry" />
        </mxCell>
        <mxCell id="BugLoS8FiQRtQ0UN0Pm9-347" value="5" style="text;html=1;strokeColor=none;fillColor=none;align=center;verticalAlign=middle;whiteSpace=wrap;rounded=0;" vertex="1" parent="BugLoS8FiQRtQ0UN0Pm9-338">
          <mxGeometry x="60" y="20" width="20" height="20" as="geometry" />
        </mxCell>
        <mxCell id="BugLoS8FiQRtQ0UN0Pm9-348" value="7" style="text;html=1;strokeColor=none;fillColor=none;align=center;verticalAlign=middle;whiteSpace=wrap;rounded=0;" vertex="1" parent="BugLoS8FiQRtQ0UN0Pm9-338">
          <mxGeometry x="100" y="20" width="30" height="20" as="geometry" />
        </mxCell>
        <mxCell id="BugLoS8FiQRtQ0UN0Pm9-349" value="8" style="text;html=1;strokeColor=none;fillColor=none;align=center;verticalAlign=middle;whiteSpace=wrap;rounded=0;" vertex="1" parent="BugLoS8FiQRtQ0UN0Pm9-338">
          <mxGeometry x="130" y="20" width="30" height="20" as="geometry" />
        </mxCell>
        <mxCell id="BugLoS8FiQRtQ0UN0Pm9-350" value="" style="group" vertex="1" connectable="0" parent="1">
          <mxGeometry x="350" y="420" width="190" height="40" as="geometry" />
        </mxCell>
        <mxCell id="BugLoS8FiQRtQ0UN0Pm9-351" value="" style="rounded=0;whiteSpace=wrap;html=1;" vertex="1" parent="BugLoS8FiQRtQ0UN0Pm9-350">
          <mxGeometry x="140" width="40" height="20" as="geometry" />
        </mxCell>
        <mxCell id="BugLoS8FiQRtQ0UN0Pm9-352" value="" style="rounded=0;whiteSpace=wrap;html=1;" vertex="1" parent="BugLoS8FiQRtQ0UN0Pm9-350">
          <mxGeometry x="10" width="120" height="20" as="geometry" />
        </mxCell>
        <mxCell id="BugLoS8FiQRtQ0UN0Pm9-353" value="" style="endArrow=none;dashed=1;html=1;strokeWidth=2;rounded=0;exitX=0.5;exitY=0;exitDx=0;exitDy=0;entryX=0.25;entryY=0;entryDx=0;entryDy=0;dashPattern=1 1;" edge="1" parent="BugLoS8FiQRtQ0UN0Pm9-350">
          <mxGeometry width="50" height="50" relative="1" as="geometry">
            <mxPoint x="50" y="20" as="sourcePoint" />
            <mxPoint x="50" as="targetPoint" />
          </mxGeometry>
        </mxCell>
        <mxCell id="BugLoS8FiQRtQ0UN0Pm9-354" value="" style="endArrow=none;dashed=1;html=1;strokeWidth=2;rounded=0;exitX=0.5;exitY=0;exitDx=0;exitDy=0;entryX=0.25;entryY=0;entryDx=0;entryDy=0;dashPattern=1 1;" edge="1" parent="BugLoS8FiQRtQ0UN0Pm9-350">
          <mxGeometry width="50" height="50" relative="1" as="geometry">
            <mxPoint x="70" y="20" as="sourcePoint" />
            <mxPoint x="70" as="targetPoint" />
          </mxGeometry>
        </mxCell>
        <mxCell id="BugLoS8FiQRtQ0UN0Pm9-355" value="" style="endArrow=none;dashed=1;html=1;strokeWidth=2;rounded=0;exitX=0.5;exitY=0;exitDx=0;exitDy=0;entryX=0.25;entryY=0;entryDx=0;entryDy=0;dashPattern=1 1;" edge="1" parent="BugLoS8FiQRtQ0UN0Pm9-350">
          <mxGeometry width="50" height="50" relative="1" as="geometry">
            <mxPoint x="109.66999999999999" y="20" as="sourcePoint" />
            <mxPoint x="109.66999999999999" as="targetPoint" />
          </mxGeometry>
        </mxCell>
        <mxCell id="BugLoS8FiQRtQ0UN0Pm9-356" value="10" style="text;html=1;strokeColor=none;fillColor=none;align=center;verticalAlign=middle;whiteSpace=wrap;rounded=0;" vertex="1" parent="BugLoS8FiQRtQ0UN0Pm9-350">
          <mxGeometry x="170" y="20" width="20" height="20" as="geometry" />
        </mxCell>
        <mxCell id="BugLoS8FiQRtQ0UN0Pm9-357" value="0" style="text;html=1;strokeColor=none;fillColor=none;align=center;verticalAlign=middle;whiteSpace=wrap;rounded=0;" vertex="1" parent="BugLoS8FiQRtQ0UN0Pm9-350">
          <mxGeometry y="20" width="20" height="20" as="geometry" />
        </mxCell>
        <mxCell id="BugLoS8FiQRtQ0UN0Pm9-358" value="4" style="text;html=1;strokeColor=none;fillColor=none;align=center;verticalAlign=middle;whiteSpace=wrap;rounded=0;" vertex="1" parent="BugLoS8FiQRtQ0UN0Pm9-350">
          <mxGeometry x="40" y="20" width="20" height="20" as="geometry" />
        </mxCell>
        <mxCell id="BugLoS8FiQRtQ0UN0Pm9-359" value="5" style="text;html=1;strokeColor=none;fillColor=none;align=center;verticalAlign=middle;whiteSpace=wrap;rounded=0;" vertex="1" parent="BugLoS8FiQRtQ0UN0Pm9-350">
          <mxGeometry x="60" y="20" width="20" height="20" as="geometry" />
        </mxCell>
        <mxCell id="BugLoS8FiQRtQ0UN0Pm9-360" value="7" style="text;html=1;strokeColor=none;fillColor=none;align=center;verticalAlign=middle;whiteSpace=wrap;rounded=0;" vertex="1" parent="BugLoS8FiQRtQ0UN0Pm9-350">
          <mxGeometry x="100" y="20" width="20" height="20" as="geometry" />
        </mxCell>
        <mxCell id="BugLoS8FiQRtQ0UN0Pm9-361" value="8" style="text;html=1;strokeColor=none;fillColor=none;align=center;verticalAlign=middle;whiteSpace=wrap;rounded=0;" vertex="1" parent="BugLoS8FiQRtQ0UN0Pm9-350">
          <mxGeometry x="120" y="20" width="30" height="20" as="geometry" />
        </mxCell>
        <mxCell id="BugLoS8FiQRtQ0UN0Pm9-362" value="" style="group" vertex="1" connectable="0" parent="1">
          <mxGeometry x="350" y="460" width="190" height="40" as="geometry" />
        </mxCell>
        <mxCell id="BugLoS8FiQRtQ0UN0Pm9-363" value="" style="rounded=0;whiteSpace=wrap;html=1;" vertex="1" parent="BugLoS8FiQRtQ0UN0Pm9-362">
          <mxGeometry x="10" width="100" height="20" as="geometry" />
        </mxCell>
        <mxCell id="BugLoS8FiQRtQ0UN0Pm9-364" value="" style="rounded=0;whiteSpace=wrap;html=1;" vertex="1" parent="BugLoS8FiQRtQ0UN0Pm9-362">
          <mxGeometry x="120" width="60" height="20" as="geometry" />
        </mxCell>
        <mxCell id="BugLoS8FiQRtQ0UN0Pm9-365" value="" style="endArrow=none;dashed=1;html=1;strokeWidth=2;rounded=0;exitX=0.5;exitY=0;exitDx=0;exitDy=0;entryX=0.25;entryY=0;entryDx=0;entryDy=0;dashPattern=1 1;" edge="1" parent="BugLoS8FiQRtQ0UN0Pm9-362">
          <mxGeometry width="50" height="50" relative="1" as="geometry">
            <mxPoint x="50" y="20" as="sourcePoint" />
            <mxPoint x="50" as="targetPoint" />
          </mxGeometry>
        </mxCell>
        <mxCell id="BugLoS8FiQRtQ0UN0Pm9-366" value="" style="endArrow=none;dashed=1;html=1;strokeWidth=2;rounded=0;exitX=0.5;exitY=0;exitDx=0;exitDy=0;entryX=0.25;entryY=0;entryDx=0;entryDy=0;dashPattern=1 1;" edge="1" parent="BugLoS8FiQRtQ0UN0Pm9-362">
          <mxGeometry width="50" height="50" relative="1" as="geometry">
            <mxPoint x="70" y="20" as="sourcePoint" />
            <mxPoint x="70" as="targetPoint" />
          </mxGeometry>
        </mxCell>
        <mxCell id="BugLoS8FiQRtQ0UN0Pm9-367" value="" style="endArrow=none;dashed=1;html=1;strokeWidth=2;rounded=0;exitX=0.5;exitY=0;exitDx=0;exitDy=0;entryX=0.25;entryY=0;entryDx=0;entryDy=0;dashPattern=1 1;" edge="1" parent="BugLoS8FiQRtQ0UN0Pm9-362">
          <mxGeometry width="50" height="50" relative="1" as="geometry">
            <mxPoint x="139.67" y="20" as="sourcePoint" />
            <mxPoint x="139.67" as="targetPoint" />
          </mxGeometry>
        </mxCell>
        <mxCell id="BugLoS8FiQRtQ0UN0Pm9-368" value="10" style="text;html=1;strokeColor=none;fillColor=none;align=center;verticalAlign=middle;whiteSpace=wrap;rounded=0;" vertex="1" parent="BugLoS8FiQRtQ0UN0Pm9-362">
          <mxGeometry x="170" y="20" width="20" height="20" as="geometry" />
        </mxCell>
        <mxCell id="BugLoS8FiQRtQ0UN0Pm9-369" value="0" style="text;html=1;strokeColor=none;fillColor=none;align=center;verticalAlign=middle;whiteSpace=wrap;rounded=0;" vertex="1" parent="BugLoS8FiQRtQ0UN0Pm9-362">
          <mxGeometry y="20" width="20" height="20" as="geometry" />
        </mxCell>
        <mxCell id="BugLoS8FiQRtQ0UN0Pm9-370" value="4" style="text;html=1;strokeColor=none;fillColor=none;align=center;verticalAlign=middle;whiteSpace=wrap;rounded=0;" vertex="1" parent="BugLoS8FiQRtQ0UN0Pm9-362">
          <mxGeometry x="40" y="20" width="20" height="20" as="geometry" />
        </mxCell>
        <mxCell id="BugLoS8FiQRtQ0UN0Pm9-371" value="5" style="text;html=1;strokeColor=none;fillColor=none;align=center;verticalAlign=middle;whiteSpace=wrap;rounded=0;" vertex="1" parent="BugLoS8FiQRtQ0UN0Pm9-362">
          <mxGeometry x="60" y="20" width="20" height="20" as="geometry" />
        </mxCell>
        <mxCell id="BugLoS8FiQRtQ0UN0Pm9-372" value="7" style="text;html=1;strokeColor=none;fillColor=none;align=center;verticalAlign=middle;whiteSpace=wrap;rounded=0;" vertex="1" parent="BugLoS8FiQRtQ0UN0Pm9-362">
          <mxGeometry x="100" y="20" width="30" height="20" as="geometry" />
        </mxCell>
        <mxCell id="BugLoS8FiQRtQ0UN0Pm9-373" value="8" style="text;html=1;strokeColor=none;fillColor=none;align=center;verticalAlign=middle;whiteSpace=wrap;rounded=0;" vertex="1" parent="BugLoS8FiQRtQ0UN0Pm9-362">
          <mxGeometry x="130" y="20" width="20" height="20" as="geometry" />
        </mxCell>
        <mxCell id="BugLoS8FiQRtQ0UN0Pm9-374" value="" style="group" vertex="1" connectable="0" parent="1">
          <mxGeometry x="350" y="500" width="190" height="40" as="geometry" />
        </mxCell>
        <mxCell id="BugLoS8FiQRtQ0UN0Pm9-375" value="" style="rounded=0;whiteSpace=wrap;html=1;" vertex="1" parent="BugLoS8FiQRtQ0UN0Pm9-374">
          <mxGeometry x="140" width="40" height="20" as="geometry" />
        </mxCell>
        <mxCell id="BugLoS8FiQRtQ0UN0Pm9-376" value="" style="rounded=0;whiteSpace=wrap;html=1;" vertex="1" parent="BugLoS8FiQRtQ0UN0Pm9-374">
          <mxGeometry x="10" width="120" height="20" as="geometry" />
        </mxCell>
        <mxCell id="BugLoS8FiQRtQ0UN0Pm9-377" value="" style="endArrow=none;dashed=1;html=1;strokeWidth=2;rounded=0;exitX=0.5;exitY=0;exitDx=0;exitDy=0;entryX=0.25;entryY=0;entryDx=0;entryDy=0;dashPattern=1 1;" edge="1" parent="BugLoS8FiQRtQ0UN0Pm9-374">
          <mxGeometry width="50" height="50" relative="1" as="geometry">
            <mxPoint x="50" y="20" as="sourcePoint" />
            <mxPoint x="50" as="targetPoint" />
          </mxGeometry>
        </mxCell>
        <mxCell id="BugLoS8FiQRtQ0UN0Pm9-378" value="" style="endArrow=none;dashed=1;html=1;strokeWidth=2;rounded=0;exitX=0.5;exitY=0;exitDx=0;exitDy=0;entryX=0.25;entryY=0;entryDx=0;entryDy=0;dashPattern=1 1;" edge="1" parent="BugLoS8FiQRtQ0UN0Pm9-374">
          <mxGeometry width="50" height="50" relative="1" as="geometry">
            <mxPoint x="70" y="20" as="sourcePoint" />
            <mxPoint x="70" as="targetPoint" />
          </mxGeometry>
        </mxCell>
        <mxCell id="BugLoS8FiQRtQ0UN0Pm9-379" value="" style="endArrow=none;dashed=1;html=1;strokeWidth=2;rounded=0;exitX=0.5;exitY=0;exitDx=0;exitDy=0;entryX=0.25;entryY=0;entryDx=0;entryDy=0;dashPattern=1 1;" edge="1" parent="BugLoS8FiQRtQ0UN0Pm9-374">
          <mxGeometry width="50" height="50" relative="1" as="geometry">
            <mxPoint x="109.66999999999999" y="20" as="sourcePoint" />
            <mxPoint x="109.66999999999999" as="targetPoint" />
          </mxGeometry>
        </mxCell>
        <mxCell id="BugLoS8FiQRtQ0UN0Pm9-380" value="10" style="text;html=1;strokeColor=none;fillColor=none;align=center;verticalAlign=middle;whiteSpace=wrap;rounded=0;" vertex="1" parent="BugLoS8FiQRtQ0UN0Pm9-374">
          <mxGeometry x="170" y="20" width="20" height="20" as="geometry" />
        </mxCell>
        <mxCell id="BugLoS8FiQRtQ0UN0Pm9-381" value="0" style="text;html=1;strokeColor=none;fillColor=none;align=center;verticalAlign=middle;whiteSpace=wrap;rounded=0;" vertex="1" parent="BugLoS8FiQRtQ0UN0Pm9-374">
          <mxGeometry y="20" width="20" height="20" as="geometry" />
        </mxCell>
        <mxCell id="BugLoS8FiQRtQ0UN0Pm9-382" value="4" style="text;html=1;strokeColor=none;fillColor=none;align=center;verticalAlign=middle;whiteSpace=wrap;rounded=0;" vertex="1" parent="BugLoS8FiQRtQ0UN0Pm9-374">
          <mxGeometry x="40" y="20" width="20" height="20" as="geometry" />
        </mxCell>
        <mxCell id="BugLoS8FiQRtQ0UN0Pm9-383" value="5" style="text;html=1;strokeColor=none;fillColor=none;align=center;verticalAlign=middle;whiteSpace=wrap;rounded=0;" vertex="1" parent="BugLoS8FiQRtQ0UN0Pm9-374">
          <mxGeometry x="60" y="20" width="20" height="20" as="geometry" />
        </mxCell>
        <mxCell id="BugLoS8FiQRtQ0UN0Pm9-384" value="7" style="text;html=1;strokeColor=none;fillColor=none;align=center;verticalAlign=middle;whiteSpace=wrap;rounded=0;" vertex="1" parent="BugLoS8FiQRtQ0UN0Pm9-374">
          <mxGeometry x="100" y="20" width="20" height="20" as="geometry" />
        </mxCell>
        <mxCell id="BugLoS8FiQRtQ0UN0Pm9-385" value="8" style="text;html=1;strokeColor=none;fillColor=none;align=center;verticalAlign=middle;whiteSpace=wrap;rounded=0;" vertex="1" parent="BugLoS8FiQRtQ0UN0Pm9-374">
          <mxGeometry x="120" y="20" width="30" height="20" as="geometry" />
        </mxCell>
        <mxCell id="BugLoS8FiQRtQ0UN0Pm9-386" value="" style="group" vertex="1" connectable="0" parent="1">
          <mxGeometry x="350" y="540" width="190" height="40" as="geometry" />
        </mxCell>
        <mxCell id="BugLoS8FiQRtQ0UN0Pm9-387" value="0" style="text;html=1;strokeColor=none;fillColor=none;align=center;verticalAlign=middle;whiteSpace=wrap;rounded=0;" vertex="1" parent="BugLoS8FiQRtQ0UN0Pm9-386">
          <mxGeometry y="20" width="20" height="20" as="geometry" />
        </mxCell>
        <mxCell id="BugLoS8FiQRtQ0UN0Pm9-388" value="" style="rounded=0;whiteSpace=wrap;html=1;" vertex="1" parent="BugLoS8FiQRtQ0UN0Pm9-386">
          <mxGeometry x="10" width="40" height="20" as="geometry" />
        </mxCell>
        <mxCell id="BugLoS8FiQRtQ0UN0Pm9-389" value="" style="rounded=0;whiteSpace=wrap;html=1;" vertex="1" parent="BugLoS8FiQRtQ0UN0Pm9-386">
          <mxGeometry x="60" width="120" height="20" as="geometry" />
        </mxCell>
        <mxCell id="BugLoS8FiQRtQ0UN0Pm9-390" value="" style="endArrow=none;dashed=1;html=1;strokeWidth=2;rounded=0;exitX=0.5;exitY=0;exitDx=0;exitDy=0;entryX=0.25;entryY=0;entryDx=0;entryDy=0;dashPattern=1 1;" edge="1" parent="BugLoS8FiQRtQ0UN0Pm9-386">
          <mxGeometry width="50" height="50" relative="1" as="geometry">
            <mxPoint x="80" y="20" as="sourcePoint" />
            <mxPoint x="80" as="targetPoint" />
          </mxGeometry>
        </mxCell>
        <mxCell id="BugLoS8FiQRtQ0UN0Pm9-391" value="" style="endArrow=none;dashed=1;html=1;strokeWidth=2;rounded=0;exitX=0.5;exitY=1;exitDx=0;exitDy=0;entryX=0.5;entryY=0;entryDx=0;entryDy=0;dashPattern=1 1;" edge="1" parent="BugLoS8FiQRtQ0UN0Pm9-386" source="BugLoS8FiQRtQ0UN0Pm9-389" target="BugLoS8FiQRtQ0UN0Pm9-389">
          <mxGeometry width="50" height="50" relative="1" as="geometry">
            <mxPoint x="149.76" y="-50" as="sourcePoint" />
            <mxPoint x="149.76" y="-70" as="targetPoint" />
          </mxGeometry>
        </mxCell>
        <mxCell id="BugLoS8FiQRtQ0UN0Pm9-392" value="" style="endArrow=none;dashed=1;html=1;strokeWidth=2;rounded=0;exitX=0.5;exitY=0;exitDx=0;exitDy=0;entryX=0.25;entryY=0;entryDx=0;entryDy=0;dashPattern=1 1;" edge="1" parent="BugLoS8FiQRtQ0UN0Pm9-386">
          <mxGeometry width="50" height="50" relative="1" as="geometry">
            <mxPoint x="140" y="20" as="sourcePoint" />
            <mxPoint x="140" as="targetPoint" />
          </mxGeometry>
        </mxCell>
        <mxCell id="BugLoS8FiQRtQ0UN0Pm9-393" value="4" style="text;html=1;strokeColor=none;fillColor=none;align=center;verticalAlign=middle;whiteSpace=wrap;rounded=0;" vertex="1" parent="BugLoS8FiQRtQ0UN0Pm9-386">
          <mxGeometry x="40" y="20" width="30" height="20" as="geometry" />
        </mxCell>
        <mxCell id="BugLoS8FiQRtQ0UN0Pm9-394" value="5" style="text;html=1;strokeColor=none;fillColor=none;align=center;verticalAlign=middle;whiteSpace=wrap;rounded=0;" vertex="1" parent="BugLoS8FiQRtQ0UN0Pm9-386">
          <mxGeometry x="70" y="20" width="20" height="20" as="geometry" />
        </mxCell>
        <mxCell id="BugLoS8FiQRtQ0UN0Pm9-395" value="7" style="text;html=1;strokeColor=none;fillColor=none;align=center;verticalAlign=middle;whiteSpace=wrap;rounded=0;" vertex="1" parent="BugLoS8FiQRtQ0UN0Pm9-386">
          <mxGeometry x="110" y="20" width="20" height="20" as="geometry" />
        </mxCell>
        <mxCell id="BugLoS8FiQRtQ0UN0Pm9-396" value="8" style="text;html=1;strokeColor=none;fillColor=none;align=center;verticalAlign=middle;whiteSpace=wrap;rounded=0;" vertex="1" parent="BugLoS8FiQRtQ0UN0Pm9-386">
          <mxGeometry x="130" y="20" width="20" height="20" as="geometry" />
        </mxCell>
        <mxCell id="BugLoS8FiQRtQ0UN0Pm9-397" value="10" style="text;html=1;strokeColor=none;fillColor=none;align=center;verticalAlign=middle;whiteSpace=wrap;rounded=0;" vertex="1" parent="BugLoS8FiQRtQ0UN0Pm9-386">
          <mxGeometry x="170" y="20" width="20" height="20" as="geometry" />
        </mxCell>
        <mxCell id="BugLoS8FiQRtQ0UN0Pm9-398" value="" style="group" vertex="1" connectable="0" parent="1">
          <mxGeometry x="350" y="580" width="190" height="40" as="geometry" />
        </mxCell>
        <mxCell id="BugLoS8FiQRtQ0UN0Pm9-399" value="" style="rounded=0;whiteSpace=wrap;html=1;" vertex="1" parent="BugLoS8FiQRtQ0UN0Pm9-398">
          <mxGeometry x="10" width="100" height="20" as="geometry" />
        </mxCell>
        <mxCell id="BugLoS8FiQRtQ0UN0Pm9-400" value="" style="rounded=0;whiteSpace=wrap;html=1;" vertex="1" parent="BugLoS8FiQRtQ0UN0Pm9-398">
          <mxGeometry x="120" width="60" height="20" as="geometry" />
        </mxCell>
        <mxCell id="BugLoS8FiQRtQ0UN0Pm9-401" value="" style="endArrow=none;dashed=1;html=1;strokeWidth=2;rounded=0;exitX=0.5;exitY=0;exitDx=0;exitDy=0;entryX=0.25;entryY=0;entryDx=0;entryDy=0;dashPattern=1 1;" edge="1" parent="BugLoS8FiQRtQ0UN0Pm9-398">
          <mxGeometry width="50" height="50" relative="1" as="geometry">
            <mxPoint x="50" y="20" as="sourcePoint" />
            <mxPoint x="50" as="targetPoint" />
          </mxGeometry>
        </mxCell>
        <mxCell id="BugLoS8FiQRtQ0UN0Pm9-402" value="" style="endArrow=none;dashed=1;html=1;strokeWidth=2;rounded=0;exitX=0.5;exitY=0;exitDx=0;exitDy=0;entryX=0.25;entryY=0;entryDx=0;entryDy=0;dashPattern=1 1;" edge="1" parent="BugLoS8FiQRtQ0UN0Pm9-398">
          <mxGeometry width="50" height="50" relative="1" as="geometry">
            <mxPoint x="70" y="20" as="sourcePoint" />
            <mxPoint x="70" as="targetPoint" />
          </mxGeometry>
        </mxCell>
        <mxCell id="BugLoS8FiQRtQ0UN0Pm9-403" value="" style="endArrow=none;dashed=1;html=1;strokeWidth=2;rounded=0;exitX=0.5;exitY=0;exitDx=0;exitDy=0;entryX=0.25;entryY=0;entryDx=0;entryDy=0;dashPattern=1 1;" edge="1" parent="BugLoS8FiQRtQ0UN0Pm9-398">
          <mxGeometry width="50" height="50" relative="1" as="geometry">
            <mxPoint x="139.67" y="20" as="sourcePoint" />
            <mxPoint x="139.67" as="targetPoint" />
          </mxGeometry>
        </mxCell>
        <mxCell id="BugLoS8FiQRtQ0UN0Pm9-404" value="10" style="text;html=1;strokeColor=none;fillColor=none;align=center;verticalAlign=middle;whiteSpace=wrap;rounded=0;" vertex="1" parent="BugLoS8FiQRtQ0UN0Pm9-398">
          <mxGeometry x="170" y="20" width="20" height="20" as="geometry" />
        </mxCell>
        <mxCell id="BugLoS8FiQRtQ0UN0Pm9-405" value="0" style="text;html=1;strokeColor=none;fillColor=none;align=center;verticalAlign=middle;whiteSpace=wrap;rounded=0;" vertex="1" parent="BugLoS8FiQRtQ0UN0Pm9-398">
          <mxGeometry y="20" width="20" height="20" as="geometry" />
        </mxCell>
        <mxCell id="BugLoS8FiQRtQ0UN0Pm9-406" value="4" style="text;html=1;strokeColor=none;fillColor=none;align=center;verticalAlign=middle;whiteSpace=wrap;rounded=0;" vertex="1" parent="BugLoS8FiQRtQ0UN0Pm9-398">
          <mxGeometry x="40" y="20" width="20" height="20" as="geometry" />
        </mxCell>
        <mxCell id="BugLoS8FiQRtQ0UN0Pm9-407" value="5" style="text;html=1;strokeColor=none;fillColor=none;align=center;verticalAlign=middle;whiteSpace=wrap;rounded=0;" vertex="1" parent="BugLoS8FiQRtQ0UN0Pm9-398">
          <mxGeometry x="60" y="20" width="20" height="20" as="geometry" />
        </mxCell>
        <mxCell id="BugLoS8FiQRtQ0UN0Pm9-408" value="7" style="text;html=1;strokeColor=none;fillColor=none;align=center;verticalAlign=middle;whiteSpace=wrap;rounded=0;" vertex="1" parent="BugLoS8FiQRtQ0UN0Pm9-398">
          <mxGeometry x="100" y="20" width="30" height="20" as="geometry" />
        </mxCell>
        <mxCell id="BugLoS8FiQRtQ0UN0Pm9-409" value="8" style="text;html=1;strokeColor=none;fillColor=none;align=center;verticalAlign=middle;whiteSpace=wrap;rounded=0;" vertex="1" parent="BugLoS8FiQRtQ0UN0Pm9-398">
          <mxGeometry x="130" y="20" width="20" height="20" as="geometry" />
        </mxCell>
        <mxCell id="BugLoS8FiQRtQ0UN0Pm9-410" value="" style="group" vertex="1" connectable="0" parent="1">
          <mxGeometry x="350" y="620" width="190" height="40" as="geometry" />
        </mxCell>
        <mxCell id="BugLoS8FiQRtQ0UN0Pm9-411" value="0" style="text;html=1;strokeColor=none;fillColor=none;align=center;verticalAlign=middle;whiteSpace=wrap;rounded=0;" vertex="1" parent="BugLoS8FiQRtQ0UN0Pm9-410">
          <mxGeometry y="20" width="20" height="20" as="geometry" />
        </mxCell>
        <mxCell id="BugLoS8FiQRtQ0UN0Pm9-412" value="" style="rounded=0;whiteSpace=wrap;html=1;" vertex="1" parent="BugLoS8FiQRtQ0UN0Pm9-410">
          <mxGeometry x="10" width="40" height="20" as="geometry" />
        </mxCell>
        <mxCell id="BugLoS8FiQRtQ0UN0Pm9-413" value="" style="rounded=0;whiteSpace=wrap;html=1;" vertex="1" parent="BugLoS8FiQRtQ0UN0Pm9-410">
          <mxGeometry x="60" width="120" height="20" as="geometry" />
        </mxCell>
        <mxCell id="BugLoS8FiQRtQ0UN0Pm9-414" value="" style="endArrow=none;dashed=1;html=1;strokeWidth=2;rounded=0;exitX=0.5;exitY=0;exitDx=0;exitDy=0;entryX=0.25;entryY=0;entryDx=0;entryDy=0;dashPattern=1 1;" edge="1" parent="BugLoS8FiQRtQ0UN0Pm9-410">
          <mxGeometry width="50" height="50" relative="1" as="geometry">
            <mxPoint x="80" y="20" as="sourcePoint" />
            <mxPoint x="80" as="targetPoint" />
          </mxGeometry>
        </mxCell>
        <mxCell id="BugLoS8FiQRtQ0UN0Pm9-415" value="" style="endArrow=none;dashed=1;html=1;strokeWidth=2;rounded=0;exitX=0.5;exitY=1;exitDx=0;exitDy=0;entryX=0.5;entryY=0;entryDx=0;entryDy=0;dashPattern=1 1;" edge="1" parent="BugLoS8FiQRtQ0UN0Pm9-410" source="BugLoS8FiQRtQ0UN0Pm9-413" target="BugLoS8FiQRtQ0UN0Pm9-413">
          <mxGeometry width="50" height="50" relative="1" as="geometry">
            <mxPoint x="149.76" y="-50" as="sourcePoint" />
            <mxPoint x="149.76" y="-70" as="targetPoint" />
          </mxGeometry>
        </mxCell>
        <mxCell id="BugLoS8FiQRtQ0UN0Pm9-416" value="" style="endArrow=none;dashed=1;html=1;strokeWidth=2;rounded=0;exitX=0.5;exitY=0;exitDx=0;exitDy=0;entryX=0.25;entryY=0;entryDx=0;entryDy=0;dashPattern=1 1;" edge="1" parent="BugLoS8FiQRtQ0UN0Pm9-410">
          <mxGeometry width="50" height="50" relative="1" as="geometry">
            <mxPoint x="140" y="20" as="sourcePoint" />
            <mxPoint x="140" as="targetPoint" />
          </mxGeometry>
        </mxCell>
        <mxCell id="BugLoS8FiQRtQ0UN0Pm9-417" value="4" style="text;html=1;strokeColor=none;fillColor=none;align=center;verticalAlign=middle;whiteSpace=wrap;rounded=0;" vertex="1" parent="BugLoS8FiQRtQ0UN0Pm9-410">
          <mxGeometry x="40" y="20" width="30" height="20" as="geometry" />
        </mxCell>
        <mxCell id="BugLoS8FiQRtQ0UN0Pm9-418" value="5" style="text;html=1;strokeColor=none;fillColor=none;align=center;verticalAlign=middle;whiteSpace=wrap;rounded=0;" vertex="1" parent="BugLoS8FiQRtQ0UN0Pm9-410">
          <mxGeometry x="70" y="20" width="20" height="20" as="geometry" />
        </mxCell>
        <mxCell id="BugLoS8FiQRtQ0UN0Pm9-419" value="7" style="text;html=1;strokeColor=none;fillColor=none;align=center;verticalAlign=middle;whiteSpace=wrap;rounded=0;" vertex="1" parent="BugLoS8FiQRtQ0UN0Pm9-410">
          <mxGeometry x="110" y="20" width="20" height="20" as="geometry" />
        </mxCell>
        <mxCell id="BugLoS8FiQRtQ0UN0Pm9-420" value="8" style="text;html=1;strokeColor=none;fillColor=none;align=center;verticalAlign=middle;whiteSpace=wrap;rounded=0;" vertex="1" parent="BugLoS8FiQRtQ0UN0Pm9-410">
          <mxGeometry x="130" y="20" width="20" height="20" as="geometry" />
        </mxCell>
        <mxCell id="BugLoS8FiQRtQ0UN0Pm9-421" value="10" style="text;html=1;strokeColor=none;fillColor=none;align=center;verticalAlign=middle;whiteSpace=wrap;rounded=0;" vertex="1" parent="BugLoS8FiQRtQ0UN0Pm9-410">
          <mxGeometry x="170" y="20" width="20" height="20" as="geometry" />
        </mxCell>
        <mxCell id="BugLoS8FiQRtQ0UN0Pm9-449" value="" style="group" vertex="1" connectable="0" parent="1">
          <mxGeometry x="110" y="720" width="200" height="40" as="geometry" />
        </mxCell>
        <mxCell id="BugLoS8FiQRtQ0UN0Pm9-450" value="" style="rounded=0;whiteSpace=wrap;html=1;" vertex="1" parent="BugLoS8FiQRtQ0UN0Pm9-449">
          <mxGeometry x="10" width="60" height="20" as="geometry" />
        </mxCell>
        <mxCell id="BugLoS8FiQRtQ0UN0Pm9-451" value="" style="rounded=0;whiteSpace=wrap;html=1;" vertex="1" parent="BugLoS8FiQRtQ0UN0Pm9-449">
          <mxGeometry x="150" width="40" height="20" as="geometry" />
        </mxCell>
        <mxCell id="BugLoS8FiQRtQ0UN0Pm9-452" value="" style="rounded=0;whiteSpace=wrap;html=1;" vertex="1" parent="BugLoS8FiQRtQ0UN0Pm9-449">
          <mxGeometry x="80" width="60" height="20" as="geometry" />
        </mxCell>
        <mxCell id="BugLoS8FiQRtQ0UN0Pm9-453" value="" style="endArrow=none;dashed=1;html=1;strokeWidth=2;rounded=0;exitX=0.5;exitY=1;exitDx=0;exitDy=0;entryX=0.5;entryY=0;entryDx=0;entryDy=0;dashPattern=1 1;" edge="1" parent="BugLoS8FiQRtQ0UN0Pm9-449">
          <mxGeometry width="50" height="50" relative="1" as="geometry">
            <mxPoint x="50" y="20" as="sourcePoint" />
            <mxPoint x="50" as="targetPoint" />
          </mxGeometry>
        </mxCell>
        <mxCell id="BugLoS8FiQRtQ0UN0Pm9-454" value="" style="endArrow=none;dashed=1;html=1;strokeWidth=2;rounded=0;exitX=0.5;exitY=0;exitDx=0;exitDy=0;entryX=0.25;entryY=0;entryDx=0;entryDy=0;dashPattern=1 1;" edge="1" parent="BugLoS8FiQRtQ0UN0Pm9-449">
          <mxGeometry width="50" height="50" relative="1" as="geometry">
            <mxPoint x="119.71999999999997" y="20" as="sourcePoint" />
            <mxPoint x="119.71999999999997" as="targetPoint" />
          </mxGeometry>
        </mxCell>
        <mxCell id="BugLoS8FiQRtQ0UN0Pm9-455" value="0" style="text;html=1;strokeColor=none;fillColor=none;align=center;verticalAlign=middle;whiteSpace=wrap;rounded=0;" vertex="1" parent="BugLoS8FiQRtQ0UN0Pm9-449">
          <mxGeometry y="20" width="20" height="20" as="geometry" />
        </mxCell>
        <mxCell id="BugLoS8FiQRtQ0UN0Pm9-456" value="10" style="text;html=1;strokeColor=none;fillColor=none;align=center;verticalAlign=middle;whiteSpace=wrap;rounded=0;" vertex="1" parent="BugLoS8FiQRtQ0UN0Pm9-449">
          <mxGeometry x="180" y="20" width="20" height="20" as="geometry" />
        </mxCell>
        <mxCell id="BugLoS8FiQRtQ0UN0Pm9-457" value="4" style="text;html=1;strokeColor=none;fillColor=none;align=center;verticalAlign=middle;whiteSpace=wrap;rounded=0;" vertex="1" parent="BugLoS8FiQRtQ0UN0Pm9-449">
          <mxGeometry x="40" y="20" width="20" height="20" as="geometry" />
        </mxCell>
        <mxCell id="BugLoS8FiQRtQ0UN0Pm9-458" value="4" style="text;html=1;strokeColor=none;fillColor=none;align=center;verticalAlign=middle;whiteSpace=wrap;rounded=0;" vertex="1" parent="BugLoS8FiQRtQ0UN0Pm9-449">
          <mxGeometry x="40" y="20" width="20" height="20" as="geometry" />
        </mxCell>
        <mxCell id="BugLoS8FiQRtQ0UN0Pm9-459" value="5" style="text;html=1;strokeColor=none;fillColor=none;align=center;verticalAlign=middle;whiteSpace=wrap;rounded=0;" vertex="1" parent="BugLoS8FiQRtQ0UN0Pm9-449">
          <mxGeometry x="60" y="20" width="30" height="20" as="geometry" />
        </mxCell>
        <mxCell id="BugLoS8FiQRtQ0UN0Pm9-460" value="7" style="text;html=1;strokeColor=none;fillColor=none;align=center;verticalAlign=middle;whiteSpace=wrap;rounded=0;" vertex="1" parent="BugLoS8FiQRtQ0UN0Pm9-449">
          <mxGeometry x="110" y="20" width="20" height="20" as="geometry" />
        </mxCell>
        <mxCell id="BugLoS8FiQRtQ0UN0Pm9-461" value="8" style="text;html=1;strokeColor=none;fillColor=none;align=center;verticalAlign=middle;whiteSpace=wrap;rounded=0;" vertex="1" parent="BugLoS8FiQRtQ0UN0Pm9-449">
          <mxGeometry x="130" y="20" width="30" height="20" as="geometry" />
        </mxCell>
        <mxCell id="BugLoS8FiQRtQ0UN0Pm9-487" value="" style="group" vertex="1" connectable="0" parent="1">
          <mxGeometry x="110" y="800" width="200" height="40" as="geometry" />
        </mxCell>
        <mxCell id="BugLoS8FiQRtQ0UN0Pm9-488" value="" style="rounded=0;whiteSpace=wrap;html=1;" vertex="1" parent="BugLoS8FiQRtQ0UN0Pm9-487">
          <mxGeometry x="10" width="40" height="20" as="geometry" />
        </mxCell>
        <mxCell id="BugLoS8FiQRtQ0UN0Pm9-489" value="" style="rounded=0;whiteSpace=wrap;html=1;" vertex="1" parent="BugLoS8FiQRtQ0UN0Pm9-487">
          <mxGeometry x="150" width="40" height="20" as="geometry" />
        </mxCell>
        <mxCell id="BugLoS8FiQRtQ0UN0Pm9-490" value="" style="rounded=0;whiteSpace=wrap;html=1;" vertex="1" parent="BugLoS8FiQRtQ0UN0Pm9-487">
          <mxGeometry x="60" width="80" height="20" as="geometry" />
        </mxCell>
        <mxCell id="BugLoS8FiQRtQ0UN0Pm9-491" value="" style="endArrow=none;dashed=1;html=1;strokeWidth=2;rounded=0;exitX=0.5;exitY=1;exitDx=0;exitDy=0;entryX=0.5;entryY=0;entryDx=0;entryDy=0;dashPattern=1 1;" edge="1" parent="BugLoS8FiQRtQ0UN0Pm9-487">
          <mxGeometry width="50" height="50" relative="1" as="geometry">
            <mxPoint x="79.81" y="20" as="sourcePoint" />
            <mxPoint x="79.81" as="targetPoint" />
          </mxGeometry>
        </mxCell>
        <mxCell id="BugLoS8FiQRtQ0UN0Pm9-492" value="" style="endArrow=none;dashed=1;html=1;strokeWidth=2;rounded=0;exitX=0.5;exitY=0;exitDx=0;exitDy=0;entryX=0.25;entryY=0;entryDx=0;entryDy=0;dashPattern=1 1;" edge="1" parent="BugLoS8FiQRtQ0UN0Pm9-487">
          <mxGeometry width="50" height="50" relative="1" as="geometry">
            <mxPoint x="119.67000000000002" y="20" as="sourcePoint" />
            <mxPoint x="119.67000000000002" as="targetPoint" />
          </mxGeometry>
        </mxCell>
        <mxCell id="BugLoS8FiQRtQ0UN0Pm9-493" value="0" style="text;html=1;strokeColor=none;fillColor=none;align=center;verticalAlign=middle;whiteSpace=wrap;rounded=0;" vertex="1" parent="BugLoS8FiQRtQ0UN0Pm9-487">
          <mxGeometry y="20" width="20" height="20" as="geometry" />
        </mxCell>
        <mxCell id="BugLoS8FiQRtQ0UN0Pm9-494" value="10" style="text;html=1;strokeColor=none;fillColor=none;align=center;verticalAlign=middle;whiteSpace=wrap;rounded=0;" vertex="1" parent="BugLoS8FiQRtQ0UN0Pm9-487">
          <mxGeometry x="180" y="20" width="20" height="20" as="geometry" />
        </mxCell>
        <mxCell id="BugLoS8FiQRtQ0UN0Pm9-495" value="4" style="text;html=1;strokeColor=none;fillColor=none;align=center;verticalAlign=middle;whiteSpace=wrap;rounded=0;" vertex="1" parent="BugLoS8FiQRtQ0UN0Pm9-487">
          <mxGeometry x="40" y="20" width="30" height="20" as="geometry" />
        </mxCell>
        <mxCell id="BugLoS8FiQRtQ0UN0Pm9-496" value="5" style="text;html=1;strokeColor=none;fillColor=none;align=center;verticalAlign=middle;whiteSpace=wrap;rounded=0;" vertex="1" parent="BugLoS8FiQRtQ0UN0Pm9-487">
          <mxGeometry x="70" y="20" width="20" height="20" as="geometry" />
        </mxCell>
        <mxCell id="BugLoS8FiQRtQ0UN0Pm9-497" value="8" style="text;html=1;strokeColor=none;fillColor=none;align=center;verticalAlign=middle;whiteSpace=wrap;rounded=0;" vertex="1" parent="BugLoS8FiQRtQ0UN0Pm9-487">
          <mxGeometry x="130" y="20" width="30" height="20" as="geometry" />
        </mxCell>
        <mxCell id="BugLoS8FiQRtQ0UN0Pm9-498" value="7" style="text;html=1;strokeColor=none;fillColor=none;align=center;verticalAlign=middle;whiteSpace=wrap;rounded=0;" vertex="1" parent="BugLoS8FiQRtQ0UN0Pm9-487">
          <mxGeometry x="110" y="20" width="20" height="20" as="geometry" />
        </mxCell>
        <mxCell id="BugLoS8FiQRtQ0UN0Pm9-500" value="" style="group" vertex="1" connectable="0" parent="1">
          <mxGeometry x="110" y="880" width="200" height="40" as="geometry" />
        </mxCell>
        <mxCell id="BugLoS8FiQRtQ0UN0Pm9-501" value="" style="rounded=0;whiteSpace=wrap;html=1;" vertex="1" parent="BugLoS8FiQRtQ0UN0Pm9-500">
          <mxGeometry x="10" width="40" height="20" as="geometry" />
        </mxCell>
        <mxCell id="BugLoS8FiQRtQ0UN0Pm9-502" value="" style="rounded=0;whiteSpace=wrap;html=1;" vertex="1" parent="BugLoS8FiQRtQ0UN0Pm9-500">
          <mxGeometry x="90" width="100" height="20" as="geometry" />
        </mxCell>
        <mxCell id="BugLoS8FiQRtQ0UN0Pm9-503" value="" style="endArrow=none;dashed=1;html=1;strokeWidth=2;rounded=0;exitX=0.5;exitY=1;exitDx=0;exitDy=0;entryX=0.5;entryY=0;entryDx=0;entryDy=0;dashPattern=1 1;" edge="1" parent="BugLoS8FiQRtQ0UN0Pm9-500">
          <mxGeometry width="50" height="50" relative="1" as="geometry">
            <mxPoint x="130" y="20" as="sourcePoint" />
            <mxPoint x="130" as="targetPoint" />
          </mxGeometry>
        </mxCell>
        <mxCell id="BugLoS8FiQRtQ0UN0Pm9-504" value="" style="endArrow=none;dashed=1;html=1;strokeWidth=2;rounded=0;exitX=0.5;exitY=0;exitDx=0;exitDy=0;entryX=0.25;entryY=0;entryDx=0;entryDy=0;dashPattern=1 1;" edge="1" parent="BugLoS8FiQRtQ0UN0Pm9-500">
          <mxGeometry width="50" height="50" relative="1" as="geometry">
            <mxPoint x="150" y="20" as="sourcePoint" />
            <mxPoint x="150" as="targetPoint" />
          </mxGeometry>
        </mxCell>
        <mxCell id="BugLoS8FiQRtQ0UN0Pm9-505" value="" style="rounded=0;whiteSpace=wrap;html=1;" vertex="1" parent="BugLoS8FiQRtQ0UN0Pm9-500">
          <mxGeometry x="60" width="20" height="20" as="geometry" />
        </mxCell>
        <mxCell id="BugLoS8FiQRtQ0UN0Pm9-506" value="4" style="text;html=1;strokeColor=none;fillColor=none;align=center;verticalAlign=middle;whiteSpace=wrap;rounded=0;" vertex="1" parent="BugLoS8FiQRtQ0UN0Pm9-500">
          <mxGeometry x="40" y="20" width="30" height="20" as="geometry" />
        </mxCell>
        <mxCell id="BugLoS8FiQRtQ0UN0Pm9-507" value="0" style="text;html=1;strokeColor=none;fillColor=none;align=center;verticalAlign=middle;whiteSpace=wrap;rounded=0;" vertex="1" parent="BugLoS8FiQRtQ0UN0Pm9-500">
          <mxGeometry y="20" width="20" height="20" as="geometry" />
        </mxCell>
        <mxCell id="BugLoS8FiQRtQ0UN0Pm9-508" value="10" style="text;html=1;strokeColor=none;fillColor=none;align=center;verticalAlign=middle;whiteSpace=wrap;rounded=0;" vertex="1" parent="BugLoS8FiQRtQ0UN0Pm9-500">
          <mxGeometry x="180" y="20" width="20" height="20" as="geometry" />
        </mxCell>
        <mxCell id="BugLoS8FiQRtQ0UN0Pm9-509" value="5" style="text;html=1;strokeColor=none;fillColor=none;align=center;verticalAlign=middle;whiteSpace=wrap;rounded=0;" vertex="1" parent="BugLoS8FiQRtQ0UN0Pm9-500">
          <mxGeometry x="70" y="20" width="30" height="20" as="geometry" />
        </mxCell>
        <mxCell id="BugLoS8FiQRtQ0UN0Pm9-510" value="7" style="text;html=1;strokeColor=none;fillColor=none;align=center;verticalAlign=middle;whiteSpace=wrap;rounded=0;" vertex="1" parent="BugLoS8FiQRtQ0UN0Pm9-500">
          <mxGeometry x="120" y="20" width="20" height="20" as="geometry" />
        </mxCell>
        <mxCell id="BugLoS8FiQRtQ0UN0Pm9-511" value="8" style="text;html=1;strokeColor=none;fillColor=none;align=center;verticalAlign=middle;whiteSpace=wrap;rounded=0;" vertex="1" parent="BugLoS8FiQRtQ0UN0Pm9-500">
          <mxGeometry x="140" y="20" width="20" height="20" as="geometry" />
        </mxCell>
        <mxCell id="BugLoS8FiQRtQ0UN0Pm9-512" value="" style="group" vertex="1" connectable="0" parent="1">
          <mxGeometry x="350" y="700" width="190" height="40" as="geometry" />
        </mxCell>
        <mxCell id="BugLoS8FiQRtQ0UN0Pm9-513" value="" style="rounded=0;whiteSpace=wrap;html=1;" vertex="1" parent="BugLoS8FiQRtQ0UN0Pm9-512">
          <mxGeometry x="140" width="40" height="20" as="geometry" />
        </mxCell>
        <mxCell id="BugLoS8FiQRtQ0UN0Pm9-514" value="" style="rounded=0;whiteSpace=wrap;html=1;" vertex="1" parent="BugLoS8FiQRtQ0UN0Pm9-512">
          <mxGeometry x="10" width="120" height="20" as="geometry" />
        </mxCell>
        <mxCell id="BugLoS8FiQRtQ0UN0Pm9-515" value="" style="endArrow=none;dashed=1;html=1;strokeWidth=2;rounded=0;exitX=0.5;exitY=0;exitDx=0;exitDy=0;entryX=0.25;entryY=0;entryDx=0;entryDy=0;dashPattern=1 1;" edge="1" parent="BugLoS8FiQRtQ0UN0Pm9-512">
          <mxGeometry width="50" height="50" relative="1" as="geometry">
            <mxPoint x="50" y="20" as="sourcePoint" />
            <mxPoint x="50" as="targetPoint" />
          </mxGeometry>
        </mxCell>
        <mxCell id="BugLoS8FiQRtQ0UN0Pm9-516" value="" style="endArrow=none;dashed=1;html=1;strokeWidth=2;rounded=0;exitX=0.5;exitY=0;exitDx=0;exitDy=0;entryX=0.25;entryY=0;entryDx=0;entryDy=0;dashPattern=1 1;" edge="1" parent="BugLoS8FiQRtQ0UN0Pm9-512">
          <mxGeometry width="50" height="50" relative="1" as="geometry">
            <mxPoint x="70" y="20" as="sourcePoint" />
            <mxPoint x="70" as="targetPoint" />
          </mxGeometry>
        </mxCell>
        <mxCell id="BugLoS8FiQRtQ0UN0Pm9-517" value="" style="endArrow=none;dashed=1;html=1;strokeWidth=2;rounded=0;exitX=0.5;exitY=0;exitDx=0;exitDy=0;entryX=0.25;entryY=0;entryDx=0;entryDy=0;dashPattern=1 1;" edge="1" parent="BugLoS8FiQRtQ0UN0Pm9-512">
          <mxGeometry width="50" height="50" relative="1" as="geometry">
            <mxPoint x="109.66999999999999" y="20" as="sourcePoint" />
            <mxPoint x="109.66999999999999" as="targetPoint" />
          </mxGeometry>
        </mxCell>
        <mxCell id="BugLoS8FiQRtQ0UN0Pm9-518" value="10" style="text;html=1;strokeColor=none;fillColor=none;align=center;verticalAlign=middle;whiteSpace=wrap;rounded=0;" vertex="1" parent="BugLoS8FiQRtQ0UN0Pm9-512">
          <mxGeometry x="170" y="20" width="20" height="20" as="geometry" />
        </mxCell>
        <mxCell id="BugLoS8FiQRtQ0UN0Pm9-519" value="0" style="text;html=1;strokeColor=none;fillColor=none;align=center;verticalAlign=middle;whiteSpace=wrap;rounded=0;" vertex="1" parent="BugLoS8FiQRtQ0UN0Pm9-512">
          <mxGeometry y="20" width="20" height="20" as="geometry" />
        </mxCell>
        <mxCell id="BugLoS8FiQRtQ0UN0Pm9-520" value="4" style="text;html=1;strokeColor=none;fillColor=none;align=center;verticalAlign=middle;whiteSpace=wrap;rounded=0;" vertex="1" parent="BugLoS8FiQRtQ0UN0Pm9-512">
          <mxGeometry x="40" y="20" width="20" height="20" as="geometry" />
        </mxCell>
        <mxCell id="BugLoS8FiQRtQ0UN0Pm9-521" value="5" style="text;html=1;strokeColor=none;fillColor=none;align=center;verticalAlign=middle;whiteSpace=wrap;rounded=0;" vertex="1" parent="BugLoS8FiQRtQ0UN0Pm9-512">
          <mxGeometry x="60" y="20" width="20" height="20" as="geometry" />
        </mxCell>
        <mxCell id="BugLoS8FiQRtQ0UN0Pm9-522" value="7" style="text;html=1;strokeColor=none;fillColor=none;align=center;verticalAlign=middle;whiteSpace=wrap;rounded=0;" vertex="1" parent="BugLoS8FiQRtQ0UN0Pm9-512">
          <mxGeometry x="100" y="20" width="20" height="20" as="geometry" />
        </mxCell>
        <mxCell id="BugLoS8FiQRtQ0UN0Pm9-523" value="8" style="text;html=1;strokeColor=none;fillColor=none;align=center;verticalAlign=middle;whiteSpace=wrap;rounded=0;" vertex="1" parent="BugLoS8FiQRtQ0UN0Pm9-512">
          <mxGeometry x="120" y="20" width="30" height="20" as="geometry" />
        </mxCell>
        <mxCell id="BugLoS8FiQRtQ0UN0Pm9-524" value="" style="group" vertex="1" connectable="0" parent="1">
          <mxGeometry x="350" y="740" width="190" height="40" as="geometry" />
        </mxCell>
        <mxCell id="BugLoS8FiQRtQ0UN0Pm9-525" value="0" style="text;html=1;strokeColor=none;fillColor=none;align=center;verticalAlign=middle;whiteSpace=wrap;rounded=0;" vertex="1" parent="BugLoS8FiQRtQ0UN0Pm9-524">
          <mxGeometry y="20" width="20" height="20" as="geometry" />
        </mxCell>
        <mxCell id="BugLoS8FiQRtQ0UN0Pm9-526" value="" style="rounded=0;whiteSpace=wrap;html=1;" vertex="1" parent="BugLoS8FiQRtQ0UN0Pm9-524">
          <mxGeometry x="10" width="40" height="20" as="geometry" />
        </mxCell>
        <mxCell id="BugLoS8FiQRtQ0UN0Pm9-527" value="" style="rounded=0;whiteSpace=wrap;html=1;" vertex="1" parent="BugLoS8FiQRtQ0UN0Pm9-524">
          <mxGeometry x="60" width="120" height="20" as="geometry" />
        </mxCell>
        <mxCell id="BugLoS8FiQRtQ0UN0Pm9-528" value="" style="endArrow=none;dashed=1;html=1;strokeWidth=2;rounded=0;exitX=0.5;exitY=0;exitDx=0;exitDy=0;entryX=0.25;entryY=0;entryDx=0;entryDy=0;dashPattern=1 1;" edge="1" parent="BugLoS8FiQRtQ0UN0Pm9-524">
          <mxGeometry width="50" height="50" relative="1" as="geometry">
            <mxPoint x="80" y="20" as="sourcePoint" />
            <mxPoint x="80" as="targetPoint" />
          </mxGeometry>
        </mxCell>
        <mxCell id="BugLoS8FiQRtQ0UN0Pm9-529" value="" style="endArrow=none;dashed=1;html=1;strokeWidth=2;rounded=0;exitX=0.5;exitY=1;exitDx=0;exitDy=0;entryX=0.5;entryY=0;entryDx=0;entryDy=0;dashPattern=1 1;" edge="1" parent="BugLoS8FiQRtQ0UN0Pm9-524" source="BugLoS8FiQRtQ0UN0Pm9-527" target="BugLoS8FiQRtQ0UN0Pm9-527">
          <mxGeometry width="50" height="50" relative="1" as="geometry">
            <mxPoint x="149.76" y="-50" as="sourcePoint" />
            <mxPoint x="149.76" y="-70" as="targetPoint" />
          </mxGeometry>
        </mxCell>
        <mxCell id="BugLoS8FiQRtQ0UN0Pm9-530" value="" style="endArrow=none;dashed=1;html=1;strokeWidth=2;rounded=0;exitX=0.5;exitY=0;exitDx=0;exitDy=0;entryX=0.25;entryY=0;entryDx=0;entryDy=0;dashPattern=1 1;" edge="1" parent="BugLoS8FiQRtQ0UN0Pm9-524">
          <mxGeometry width="50" height="50" relative="1" as="geometry">
            <mxPoint x="140" y="20" as="sourcePoint" />
            <mxPoint x="140" as="targetPoint" />
          </mxGeometry>
        </mxCell>
        <mxCell id="BugLoS8FiQRtQ0UN0Pm9-531" value="4" style="text;html=1;strokeColor=none;fillColor=none;align=center;verticalAlign=middle;whiteSpace=wrap;rounded=0;" vertex="1" parent="BugLoS8FiQRtQ0UN0Pm9-524">
          <mxGeometry x="40" y="20" width="30" height="20" as="geometry" />
        </mxCell>
        <mxCell id="BugLoS8FiQRtQ0UN0Pm9-532" value="5" style="text;html=1;strokeColor=none;fillColor=none;align=center;verticalAlign=middle;whiteSpace=wrap;rounded=0;" vertex="1" parent="BugLoS8FiQRtQ0UN0Pm9-524">
          <mxGeometry x="70" y="20" width="20" height="20" as="geometry" />
        </mxCell>
        <mxCell id="BugLoS8FiQRtQ0UN0Pm9-533" value="7" style="text;html=1;strokeColor=none;fillColor=none;align=center;verticalAlign=middle;whiteSpace=wrap;rounded=0;" vertex="1" parent="BugLoS8FiQRtQ0UN0Pm9-524">
          <mxGeometry x="110" y="20" width="20" height="20" as="geometry" />
        </mxCell>
        <mxCell id="BugLoS8FiQRtQ0UN0Pm9-534" value="8" style="text;html=1;strokeColor=none;fillColor=none;align=center;verticalAlign=middle;whiteSpace=wrap;rounded=0;" vertex="1" parent="BugLoS8FiQRtQ0UN0Pm9-524">
          <mxGeometry x="130" y="20" width="20" height="20" as="geometry" />
        </mxCell>
        <mxCell id="BugLoS8FiQRtQ0UN0Pm9-535" value="10" style="text;html=1;strokeColor=none;fillColor=none;align=center;verticalAlign=middle;whiteSpace=wrap;rounded=0;" vertex="1" parent="BugLoS8FiQRtQ0UN0Pm9-524">
          <mxGeometry x="170" y="20" width="20" height="20" as="geometry" />
        </mxCell>
        <mxCell id="BugLoS8FiQRtQ0UN0Pm9-536" value="" style="group" vertex="1" connectable="0" parent="1">
          <mxGeometry x="350" y="780" width="190" height="40" as="geometry" />
        </mxCell>
        <mxCell id="BugLoS8FiQRtQ0UN0Pm9-537" value="" style="rounded=0;whiteSpace=wrap;html=1;" vertex="1" parent="BugLoS8FiQRtQ0UN0Pm9-536">
          <mxGeometry x="140" width="40" height="20" as="geometry" />
        </mxCell>
        <mxCell id="BugLoS8FiQRtQ0UN0Pm9-538" value="" style="rounded=0;whiteSpace=wrap;html=1;" vertex="1" parent="BugLoS8FiQRtQ0UN0Pm9-536">
          <mxGeometry x="10" width="120" height="20" as="geometry" />
        </mxCell>
        <mxCell id="BugLoS8FiQRtQ0UN0Pm9-539" value="" style="endArrow=none;dashed=1;html=1;strokeWidth=2;rounded=0;exitX=0.5;exitY=0;exitDx=0;exitDy=0;entryX=0.25;entryY=0;entryDx=0;entryDy=0;dashPattern=1 1;" edge="1" parent="BugLoS8FiQRtQ0UN0Pm9-536">
          <mxGeometry width="50" height="50" relative="1" as="geometry">
            <mxPoint x="50" y="20" as="sourcePoint" />
            <mxPoint x="50" as="targetPoint" />
          </mxGeometry>
        </mxCell>
        <mxCell id="BugLoS8FiQRtQ0UN0Pm9-540" value="" style="endArrow=none;dashed=1;html=1;strokeWidth=2;rounded=0;exitX=0.5;exitY=0;exitDx=0;exitDy=0;entryX=0.25;entryY=0;entryDx=0;entryDy=0;dashPattern=1 1;" edge="1" parent="BugLoS8FiQRtQ0UN0Pm9-536">
          <mxGeometry width="50" height="50" relative="1" as="geometry">
            <mxPoint x="70" y="20" as="sourcePoint" />
            <mxPoint x="70" as="targetPoint" />
          </mxGeometry>
        </mxCell>
        <mxCell id="BugLoS8FiQRtQ0UN0Pm9-541" value="" style="endArrow=none;dashed=1;html=1;strokeWidth=2;rounded=0;exitX=0.5;exitY=0;exitDx=0;exitDy=0;entryX=0.25;entryY=0;entryDx=0;entryDy=0;dashPattern=1 1;" edge="1" parent="BugLoS8FiQRtQ0UN0Pm9-536">
          <mxGeometry width="50" height="50" relative="1" as="geometry">
            <mxPoint x="109.66999999999999" y="20" as="sourcePoint" />
            <mxPoint x="109.66999999999999" as="targetPoint" />
          </mxGeometry>
        </mxCell>
        <mxCell id="BugLoS8FiQRtQ0UN0Pm9-542" value="10" style="text;html=1;strokeColor=none;fillColor=none;align=center;verticalAlign=middle;whiteSpace=wrap;rounded=0;" vertex="1" parent="BugLoS8FiQRtQ0UN0Pm9-536">
          <mxGeometry x="170" y="20" width="20" height="20" as="geometry" />
        </mxCell>
        <mxCell id="BugLoS8FiQRtQ0UN0Pm9-543" value="0" style="text;html=1;strokeColor=none;fillColor=none;align=center;verticalAlign=middle;whiteSpace=wrap;rounded=0;" vertex="1" parent="BugLoS8FiQRtQ0UN0Pm9-536">
          <mxGeometry y="20" width="20" height="20" as="geometry" />
        </mxCell>
        <mxCell id="BugLoS8FiQRtQ0UN0Pm9-544" value="4" style="text;html=1;strokeColor=none;fillColor=none;align=center;verticalAlign=middle;whiteSpace=wrap;rounded=0;" vertex="1" parent="BugLoS8FiQRtQ0UN0Pm9-536">
          <mxGeometry x="40" y="20" width="20" height="20" as="geometry" />
        </mxCell>
        <mxCell id="BugLoS8FiQRtQ0UN0Pm9-545" value="5" style="text;html=1;strokeColor=none;fillColor=none;align=center;verticalAlign=middle;whiteSpace=wrap;rounded=0;" vertex="1" parent="BugLoS8FiQRtQ0UN0Pm9-536">
          <mxGeometry x="60" y="20" width="20" height="20" as="geometry" />
        </mxCell>
        <mxCell id="BugLoS8FiQRtQ0UN0Pm9-546" value="7" style="text;html=1;strokeColor=none;fillColor=none;align=center;verticalAlign=middle;whiteSpace=wrap;rounded=0;" vertex="1" parent="BugLoS8FiQRtQ0UN0Pm9-536">
          <mxGeometry x="100" y="20" width="20" height="20" as="geometry" />
        </mxCell>
        <mxCell id="BugLoS8FiQRtQ0UN0Pm9-547" value="8" style="text;html=1;strokeColor=none;fillColor=none;align=center;verticalAlign=middle;whiteSpace=wrap;rounded=0;" vertex="1" parent="BugLoS8FiQRtQ0UN0Pm9-536">
          <mxGeometry x="120" y="20" width="30" height="20" as="geometry" />
        </mxCell>
        <mxCell id="BugLoS8FiQRtQ0UN0Pm9-608" value="" style="group" vertex="1" connectable="0" parent="1">
          <mxGeometry x="350" y="900" width="190" height="40" as="geometry" />
        </mxCell>
        <mxCell id="BugLoS8FiQRtQ0UN0Pm9-609" value="0" style="text;html=1;strokeColor=none;fillColor=none;align=center;verticalAlign=middle;whiteSpace=wrap;rounded=0;" vertex="1" parent="BugLoS8FiQRtQ0UN0Pm9-608">
          <mxGeometry y="20" width="20" height="20" as="geometry" />
        </mxCell>
        <mxCell id="BugLoS8FiQRtQ0UN0Pm9-610" value="" style="rounded=0;whiteSpace=wrap;html=1;" vertex="1" parent="BugLoS8FiQRtQ0UN0Pm9-608">
          <mxGeometry x="10" width="40" height="20" as="geometry" />
        </mxCell>
        <mxCell id="BugLoS8FiQRtQ0UN0Pm9-611" value="" style="rounded=0;whiteSpace=wrap;html=1;" vertex="1" parent="BugLoS8FiQRtQ0UN0Pm9-608">
          <mxGeometry x="60" width="120" height="20" as="geometry" />
        </mxCell>
        <mxCell id="BugLoS8FiQRtQ0UN0Pm9-612" value="" style="endArrow=none;dashed=1;html=1;strokeWidth=2;rounded=0;exitX=0.5;exitY=0;exitDx=0;exitDy=0;entryX=0.25;entryY=0;entryDx=0;entryDy=0;dashPattern=1 1;" edge="1" parent="BugLoS8FiQRtQ0UN0Pm9-608">
          <mxGeometry width="50" height="50" relative="1" as="geometry">
            <mxPoint x="80" y="20" as="sourcePoint" />
            <mxPoint x="80" as="targetPoint" />
          </mxGeometry>
        </mxCell>
        <mxCell id="BugLoS8FiQRtQ0UN0Pm9-613" value="" style="endArrow=none;dashed=1;html=1;strokeWidth=2;rounded=0;exitX=0.5;exitY=1;exitDx=0;exitDy=0;entryX=0.5;entryY=0;entryDx=0;entryDy=0;dashPattern=1 1;" edge="1" parent="BugLoS8FiQRtQ0UN0Pm9-608" source="BugLoS8FiQRtQ0UN0Pm9-611" target="BugLoS8FiQRtQ0UN0Pm9-611">
          <mxGeometry width="50" height="50" relative="1" as="geometry">
            <mxPoint x="149.76" y="-50" as="sourcePoint" />
            <mxPoint x="149.76" y="-70" as="targetPoint" />
          </mxGeometry>
        </mxCell>
        <mxCell id="BugLoS8FiQRtQ0UN0Pm9-614" value="" style="endArrow=none;dashed=1;html=1;strokeWidth=2;rounded=0;exitX=0.5;exitY=0;exitDx=0;exitDy=0;entryX=0.25;entryY=0;entryDx=0;entryDy=0;dashPattern=1 1;" edge="1" parent="BugLoS8FiQRtQ0UN0Pm9-608">
          <mxGeometry width="50" height="50" relative="1" as="geometry">
            <mxPoint x="140" y="20" as="sourcePoint" />
            <mxPoint x="140" as="targetPoint" />
          </mxGeometry>
        </mxCell>
        <mxCell id="BugLoS8FiQRtQ0UN0Pm9-615" value="4" style="text;html=1;strokeColor=none;fillColor=none;align=center;verticalAlign=middle;whiteSpace=wrap;rounded=0;" vertex="1" parent="BugLoS8FiQRtQ0UN0Pm9-608">
          <mxGeometry x="40" y="20" width="30" height="20" as="geometry" />
        </mxCell>
        <mxCell id="BugLoS8FiQRtQ0UN0Pm9-616" value="5" style="text;html=1;strokeColor=none;fillColor=none;align=center;verticalAlign=middle;whiteSpace=wrap;rounded=0;" vertex="1" parent="BugLoS8FiQRtQ0UN0Pm9-608">
          <mxGeometry x="70" y="20" width="20" height="20" as="geometry" />
        </mxCell>
        <mxCell id="BugLoS8FiQRtQ0UN0Pm9-617" value="7" style="text;html=1;strokeColor=none;fillColor=none;align=center;verticalAlign=middle;whiteSpace=wrap;rounded=0;" vertex="1" parent="BugLoS8FiQRtQ0UN0Pm9-608">
          <mxGeometry x="110" y="20" width="20" height="20" as="geometry" />
        </mxCell>
        <mxCell id="BugLoS8FiQRtQ0UN0Pm9-618" value="8" style="text;html=1;strokeColor=none;fillColor=none;align=center;verticalAlign=middle;whiteSpace=wrap;rounded=0;" vertex="1" parent="BugLoS8FiQRtQ0UN0Pm9-608">
          <mxGeometry x="130" y="20" width="20" height="20" as="geometry" />
        </mxCell>
        <mxCell id="BugLoS8FiQRtQ0UN0Pm9-619" value="10" style="text;html=1;strokeColor=none;fillColor=none;align=center;verticalAlign=middle;whiteSpace=wrap;rounded=0;" vertex="1" parent="BugLoS8FiQRtQ0UN0Pm9-608">
          <mxGeometry x="170" y="20" width="20" height="20" as="geometry" />
        </mxCell>
        <mxCell id="BugLoS8FiQRtQ0UN0Pm9-572" value="" style="group" vertex="1" connectable="0" parent="1">
          <mxGeometry x="350" y="860" width="190" height="40" as="geometry" />
        </mxCell>
        <mxCell id="BugLoS8FiQRtQ0UN0Pm9-573" value="" style="rounded=0;whiteSpace=wrap;html=1;" vertex="1" parent="BugLoS8FiQRtQ0UN0Pm9-572">
          <mxGeometry x="10" width="60" height="20" as="geometry" />
        </mxCell>
        <mxCell id="BugLoS8FiQRtQ0UN0Pm9-574" value="" style="rounded=0;whiteSpace=wrap;html=1;" vertex="1" parent="BugLoS8FiQRtQ0UN0Pm9-572">
          <mxGeometry x="80" width="100" height="20" as="geometry" />
        </mxCell>
        <mxCell id="BugLoS8FiQRtQ0UN0Pm9-575" value="" style="endArrow=none;dashed=1;html=1;strokeWidth=2;rounded=0;exitX=0.5;exitY=0;exitDx=0;exitDy=0;entryX=0.25;entryY=0;entryDx=0;entryDy=0;dashPattern=1 1;" edge="1" parent="BugLoS8FiQRtQ0UN0Pm9-572">
          <mxGeometry width="50" height="50" relative="1" as="geometry">
            <mxPoint x="49.999999999999986" y="20" as="sourcePoint" />
            <mxPoint x="49.999999999999986" as="targetPoint" />
          </mxGeometry>
        </mxCell>
        <mxCell id="BugLoS8FiQRtQ0UN0Pm9-576" value="" style="endArrow=none;dashed=1;html=1;strokeWidth=2;rounded=0;exitX=0.5;exitY=0;exitDx=0;exitDy=0;entryX=0.25;entryY=0;entryDx=0;entryDy=0;dashPattern=1 1;" edge="1" parent="BugLoS8FiQRtQ0UN0Pm9-572">
          <mxGeometry width="50" height="50" relative="1" as="geometry">
            <mxPoint x="120" y="20" as="sourcePoint" />
            <mxPoint x="120" as="targetPoint" />
          </mxGeometry>
        </mxCell>
        <mxCell id="BugLoS8FiQRtQ0UN0Pm9-577" value="" style="endArrow=none;dashed=1;html=1;strokeWidth=2;rounded=0;exitX=0.5;exitY=0;exitDx=0;exitDy=0;entryX=0.25;entryY=0;entryDx=0;entryDy=0;dashPattern=1 1;" edge="1" parent="BugLoS8FiQRtQ0UN0Pm9-572">
          <mxGeometry width="50" height="50" relative="1" as="geometry">
            <mxPoint x="140" y="20" as="sourcePoint" />
            <mxPoint x="140" as="targetPoint" />
          </mxGeometry>
        </mxCell>
        <mxCell id="BugLoS8FiQRtQ0UN0Pm9-578" value="10" style="text;html=1;strokeColor=none;fillColor=none;align=center;verticalAlign=middle;whiteSpace=wrap;rounded=0;" vertex="1" parent="BugLoS8FiQRtQ0UN0Pm9-572">
          <mxGeometry x="170" y="20" width="20" height="20" as="geometry" />
        </mxCell>
        <mxCell id="BugLoS8FiQRtQ0UN0Pm9-579" value="0" style="text;html=1;strokeColor=none;fillColor=none;align=center;verticalAlign=middle;whiteSpace=wrap;rounded=0;" vertex="1" parent="BugLoS8FiQRtQ0UN0Pm9-572">
          <mxGeometry y="20" width="20" height="20" as="geometry" />
        </mxCell>
        <mxCell id="BugLoS8FiQRtQ0UN0Pm9-580" value="4" style="text;html=1;strokeColor=none;fillColor=none;align=center;verticalAlign=middle;whiteSpace=wrap;rounded=0;" vertex="1" parent="BugLoS8FiQRtQ0UN0Pm9-572">
          <mxGeometry x="40" y="20" width="20" height="20" as="geometry" />
        </mxCell>
        <mxCell id="BugLoS8FiQRtQ0UN0Pm9-581" value="5" style="text;html=1;strokeColor=none;fillColor=none;align=center;verticalAlign=middle;whiteSpace=wrap;rounded=0;" vertex="1" parent="BugLoS8FiQRtQ0UN0Pm9-572">
          <mxGeometry x="60" y="20" width="30" height="20" as="geometry" />
        </mxCell>
        <mxCell id="BugLoS8FiQRtQ0UN0Pm9-582" value="7" style="text;html=1;strokeColor=none;fillColor=none;align=center;verticalAlign=middle;whiteSpace=wrap;rounded=0;" vertex="1" parent="BugLoS8FiQRtQ0UN0Pm9-572">
          <mxGeometry x="110" y="20" width="20" height="20" as="geometry" />
        </mxCell>
        <mxCell id="BugLoS8FiQRtQ0UN0Pm9-583" value="8" style="text;html=1;strokeColor=none;fillColor=none;align=center;verticalAlign=middle;whiteSpace=wrap;rounded=0;" vertex="1" parent="BugLoS8FiQRtQ0UN0Pm9-572">
          <mxGeometry x="130" y="20" width="20" height="20" as="geometry" />
        </mxCell>
        <mxCell id="BugLoS8FiQRtQ0UN0Pm9-620" value="" style="group" vertex="1" connectable="0" parent="1">
          <mxGeometry x="350" y="820" width="190" height="40" as="geometry" />
        </mxCell>
        <mxCell id="BugLoS8FiQRtQ0UN0Pm9-549" value="0" style="text;html=1;strokeColor=none;fillColor=none;align=center;verticalAlign=middle;whiteSpace=wrap;rounded=0;" vertex="1" parent="BugLoS8FiQRtQ0UN0Pm9-620">
          <mxGeometry y="20" width="20" height="20" as="geometry" />
        </mxCell>
        <mxCell id="BugLoS8FiQRtQ0UN0Pm9-550" value="" style="rounded=0;whiteSpace=wrap;html=1;" vertex="1" parent="BugLoS8FiQRtQ0UN0Pm9-620">
          <mxGeometry x="10" width="40" height="20" as="geometry" />
        </mxCell>
        <mxCell id="BugLoS8FiQRtQ0UN0Pm9-551" value="" style="rounded=0;whiteSpace=wrap;html=1;" vertex="1" parent="BugLoS8FiQRtQ0UN0Pm9-620">
          <mxGeometry x="60" width="120" height="20" as="geometry" />
        </mxCell>
        <mxCell id="BugLoS8FiQRtQ0UN0Pm9-552" value="" style="endArrow=none;dashed=1;html=1;strokeWidth=2;rounded=0;exitX=0.5;exitY=0;exitDx=0;exitDy=0;entryX=0.25;entryY=0;entryDx=0;entryDy=0;dashPattern=1 1;" edge="1" parent="BugLoS8FiQRtQ0UN0Pm9-620">
          <mxGeometry width="50" height="50" relative="1" as="geometry">
            <mxPoint x="80" y="20" as="sourcePoint" />
            <mxPoint x="80" as="targetPoint" />
          </mxGeometry>
        </mxCell>
        <mxCell id="BugLoS8FiQRtQ0UN0Pm9-553" value="" style="endArrow=none;dashed=1;html=1;strokeWidth=2;rounded=0;exitX=0.5;exitY=1;exitDx=0;exitDy=0;entryX=0.5;entryY=0;entryDx=0;entryDy=0;dashPattern=1 1;" edge="1" parent="BugLoS8FiQRtQ0UN0Pm9-620" source="BugLoS8FiQRtQ0UN0Pm9-551" target="BugLoS8FiQRtQ0UN0Pm9-551">
          <mxGeometry width="50" height="50" relative="1" as="geometry">
            <mxPoint x="149.76" y="-50" as="sourcePoint" />
            <mxPoint x="149.76" y="-70" as="targetPoint" />
          </mxGeometry>
        </mxCell>
        <mxCell id="BugLoS8FiQRtQ0UN0Pm9-554" value="" style="endArrow=none;dashed=1;html=1;strokeWidth=2;rounded=0;exitX=0.5;exitY=0;exitDx=0;exitDy=0;entryX=0.25;entryY=0;entryDx=0;entryDy=0;dashPattern=1 1;" edge="1" parent="BugLoS8FiQRtQ0UN0Pm9-620">
          <mxGeometry width="50" height="50" relative="1" as="geometry">
            <mxPoint x="140" y="20" as="sourcePoint" />
            <mxPoint x="140" as="targetPoint" />
          </mxGeometry>
        </mxCell>
        <mxCell id="BugLoS8FiQRtQ0UN0Pm9-555" value="4" style="text;html=1;strokeColor=none;fillColor=none;align=center;verticalAlign=middle;whiteSpace=wrap;rounded=0;" vertex="1" parent="BugLoS8FiQRtQ0UN0Pm9-620">
          <mxGeometry x="40" y="20" width="30" height="20" as="geometry" />
        </mxCell>
        <mxCell id="BugLoS8FiQRtQ0UN0Pm9-556" value="5" style="text;html=1;strokeColor=none;fillColor=none;align=center;verticalAlign=middle;whiteSpace=wrap;rounded=0;" vertex="1" parent="BugLoS8FiQRtQ0UN0Pm9-620">
          <mxGeometry x="70" y="20" width="20" height="20" as="geometry" />
        </mxCell>
        <mxCell id="BugLoS8FiQRtQ0UN0Pm9-557" value="7" style="text;html=1;strokeColor=none;fillColor=none;align=center;verticalAlign=middle;whiteSpace=wrap;rounded=0;" vertex="1" parent="BugLoS8FiQRtQ0UN0Pm9-620">
          <mxGeometry x="110" y="20" width="20" height="20" as="geometry" />
        </mxCell>
        <mxCell id="BugLoS8FiQRtQ0UN0Pm9-558" value="8" style="text;html=1;strokeColor=none;fillColor=none;align=center;verticalAlign=middle;whiteSpace=wrap;rounded=0;" vertex="1" parent="BugLoS8FiQRtQ0UN0Pm9-620">
          <mxGeometry x="130" y="20" width="20" height="20" as="geometry" />
        </mxCell>
        <mxCell id="BugLoS8FiQRtQ0UN0Pm9-559" value="10" style="text;html=1;strokeColor=none;fillColor=none;align=center;verticalAlign=middle;whiteSpace=wrap;rounded=0;" vertex="1" parent="BugLoS8FiQRtQ0UN0Pm9-620">
          <mxGeometry x="170" y="20" width="20" height="20" as="geometry" />
        </mxCell>
        <mxCell id="BugLoS8FiQRtQ0UN0Pm9-621" value="" style="group" vertex="1" connectable="0" parent="1">
          <mxGeometry x="110" y="1160" width="200" height="40" as="geometry" />
        </mxCell>
        <mxCell id="BugLoS8FiQRtQ0UN0Pm9-622" value="" style="rounded=0;whiteSpace=wrap;html=1;" vertex="1" parent="BugLoS8FiQRtQ0UN0Pm9-621">
          <mxGeometry x="10" width="40" height="20" as="geometry" />
        </mxCell>
        <mxCell id="BugLoS8FiQRtQ0UN0Pm9-623" value="" style="rounded=0;whiteSpace=wrap;html=1;" vertex="1" parent="BugLoS8FiQRtQ0UN0Pm9-621">
          <mxGeometry x="90" width="100" height="20" as="geometry" />
        </mxCell>
        <mxCell id="BugLoS8FiQRtQ0UN0Pm9-624" value="" style="endArrow=none;dashed=1;html=1;strokeWidth=2;rounded=0;exitX=0.5;exitY=1;exitDx=0;exitDy=0;entryX=0.5;entryY=0;entryDx=0;entryDy=0;dashPattern=1 1;" edge="1" parent="BugLoS8FiQRtQ0UN0Pm9-621">
          <mxGeometry width="50" height="50" relative="1" as="geometry">
            <mxPoint x="130" y="20" as="sourcePoint" />
            <mxPoint x="130" as="targetPoint" />
          </mxGeometry>
        </mxCell>
        <mxCell id="BugLoS8FiQRtQ0UN0Pm9-625" value="" style="endArrow=none;dashed=1;html=1;strokeWidth=2;rounded=0;exitX=0.5;exitY=0;exitDx=0;exitDy=0;entryX=0.25;entryY=0;entryDx=0;entryDy=0;dashPattern=1 1;" edge="1" parent="BugLoS8FiQRtQ0UN0Pm9-621">
          <mxGeometry width="50" height="50" relative="1" as="geometry">
            <mxPoint x="150" y="20" as="sourcePoint" />
            <mxPoint x="150" as="targetPoint" />
          </mxGeometry>
        </mxCell>
        <mxCell id="BugLoS8FiQRtQ0UN0Pm9-626" value="" style="rounded=0;whiteSpace=wrap;html=1;" vertex="1" parent="BugLoS8FiQRtQ0UN0Pm9-621">
          <mxGeometry x="60" width="20" height="20" as="geometry" />
        </mxCell>
        <mxCell id="BugLoS8FiQRtQ0UN0Pm9-627" value="4" style="text;html=1;strokeColor=none;fillColor=none;align=center;verticalAlign=middle;whiteSpace=wrap;rounded=0;" vertex="1" parent="BugLoS8FiQRtQ0UN0Pm9-621">
          <mxGeometry x="40" y="20" width="30" height="20" as="geometry" />
        </mxCell>
        <mxCell id="BugLoS8FiQRtQ0UN0Pm9-628" value="0" style="text;html=1;strokeColor=none;fillColor=none;align=center;verticalAlign=middle;whiteSpace=wrap;rounded=0;" vertex="1" parent="BugLoS8FiQRtQ0UN0Pm9-621">
          <mxGeometry y="20" width="20" height="20" as="geometry" />
        </mxCell>
        <mxCell id="BugLoS8FiQRtQ0UN0Pm9-629" value="10" style="text;html=1;strokeColor=none;fillColor=none;align=center;verticalAlign=middle;whiteSpace=wrap;rounded=0;" vertex="1" parent="BugLoS8FiQRtQ0UN0Pm9-621">
          <mxGeometry x="180" y="20" width="20" height="20" as="geometry" />
        </mxCell>
        <mxCell id="BugLoS8FiQRtQ0UN0Pm9-630" value="5" style="text;html=1;strokeColor=none;fillColor=none;align=center;verticalAlign=middle;whiteSpace=wrap;rounded=0;" vertex="1" parent="BugLoS8FiQRtQ0UN0Pm9-621">
          <mxGeometry x="70" y="20" width="30" height="20" as="geometry" />
        </mxCell>
        <mxCell id="BugLoS8FiQRtQ0UN0Pm9-631" value="7" style="text;html=1;strokeColor=none;fillColor=none;align=center;verticalAlign=middle;whiteSpace=wrap;rounded=0;" vertex="1" parent="BugLoS8FiQRtQ0UN0Pm9-621">
          <mxGeometry x="120" y="20" width="20" height="20" as="geometry" />
        </mxCell>
        <mxCell id="BugLoS8FiQRtQ0UN0Pm9-632" value="8" style="text;html=1;strokeColor=none;fillColor=none;align=center;verticalAlign=middle;whiteSpace=wrap;rounded=0;" vertex="1" parent="BugLoS8FiQRtQ0UN0Pm9-621">
          <mxGeometry x="140" y="20" width="20" height="20" as="geometry" />
        </mxCell>
        <mxCell id="BugLoS8FiQRtQ0UN0Pm9-634" value="" style="group" vertex="1" connectable="0" parent="1">
          <mxGeometry x="110" y="1080" width="200" height="40" as="geometry" />
        </mxCell>
        <mxCell id="BugLoS8FiQRtQ0UN0Pm9-635" value="" style="rounded=0;whiteSpace=wrap;html=1;" vertex="1" parent="BugLoS8FiQRtQ0UN0Pm9-634">
          <mxGeometry x="10" width="40" height="20" as="geometry" />
        </mxCell>
        <mxCell id="BugLoS8FiQRtQ0UN0Pm9-636" value="" style="rounded=0;whiteSpace=wrap;html=1;" vertex="1" parent="BugLoS8FiQRtQ0UN0Pm9-634">
          <mxGeometry x="130" width="60" height="20" as="geometry" />
        </mxCell>
        <mxCell id="BugLoS8FiQRtQ0UN0Pm9-637" value="" style="endArrow=none;dashed=1;html=1;strokeWidth=2;rounded=0;exitX=0.5;exitY=0;exitDx=0;exitDy=0;entryX=0.25;entryY=0;entryDx=0;entryDy=0;dashPattern=1 1;" edge="1" parent="BugLoS8FiQRtQ0UN0Pm9-634">
          <mxGeometry width="50" height="50" relative="1" as="geometry">
            <mxPoint x="150" y="20" as="sourcePoint" />
            <mxPoint x="150" as="targetPoint" />
          </mxGeometry>
        </mxCell>
        <mxCell id="BugLoS8FiQRtQ0UN0Pm9-638" value="" style="rounded=0;whiteSpace=wrap;html=1;" vertex="1" parent="BugLoS8FiQRtQ0UN0Pm9-634">
          <mxGeometry x="60" width="60" height="20" as="geometry" />
        </mxCell>
        <mxCell id="BugLoS8FiQRtQ0UN0Pm9-639" value="" style="endArrow=none;dashed=1;html=1;strokeWidth=2;rounded=0;exitX=0.5;exitY=1;exitDx=0;exitDy=0;entryX=0.5;entryY=0;entryDx=0;entryDy=0;dashPattern=1 1;" edge="1" parent="BugLoS8FiQRtQ0UN0Pm9-634">
          <mxGeometry width="50" height="50" relative="1" as="geometry">
            <mxPoint x="79.81" y="20" as="sourcePoint" />
            <mxPoint x="79.81" as="targetPoint" />
          </mxGeometry>
        </mxCell>
        <mxCell id="BugLoS8FiQRtQ0UN0Pm9-640" value="5" style="text;html=1;strokeColor=none;fillColor=none;align=center;verticalAlign=middle;whiteSpace=wrap;rounded=0;" vertex="1" parent="BugLoS8FiQRtQ0UN0Pm9-634">
          <mxGeometry x="70" y="20" width="20" height="20" as="geometry" />
        </mxCell>
        <mxCell id="BugLoS8FiQRtQ0UN0Pm9-641" value="4" style="text;html=1;strokeColor=none;fillColor=none;align=center;verticalAlign=middle;whiteSpace=wrap;rounded=0;" vertex="1" parent="BugLoS8FiQRtQ0UN0Pm9-634">
          <mxGeometry x="40" y="20" width="30" height="20" as="geometry" />
        </mxCell>
        <mxCell id="BugLoS8FiQRtQ0UN0Pm9-642" value="0" style="text;html=1;strokeColor=none;fillColor=none;align=center;verticalAlign=middle;whiteSpace=wrap;rounded=0;" vertex="1" parent="BugLoS8FiQRtQ0UN0Pm9-634">
          <mxGeometry y="20" width="20" height="20" as="geometry" />
        </mxCell>
        <mxCell id="BugLoS8FiQRtQ0UN0Pm9-643" value="10" style="text;html=1;strokeColor=none;fillColor=none;align=center;verticalAlign=middle;whiteSpace=wrap;rounded=0;" vertex="1" parent="BugLoS8FiQRtQ0UN0Pm9-634">
          <mxGeometry x="180" y="20" width="20" height="20" as="geometry" />
        </mxCell>
        <mxCell id="BugLoS8FiQRtQ0UN0Pm9-644" value="7" style="text;html=1;strokeColor=none;fillColor=none;align=center;verticalAlign=middle;whiteSpace=wrap;rounded=0;" vertex="1" parent="BugLoS8FiQRtQ0UN0Pm9-634">
          <mxGeometry x="110" y="20" width="30" height="20" as="geometry" />
        </mxCell>
        <mxCell id="BugLoS8FiQRtQ0UN0Pm9-645" value="8" style="text;html=1;strokeColor=none;fillColor=none;align=center;verticalAlign=middle;whiteSpace=wrap;rounded=0;" vertex="1" parent="BugLoS8FiQRtQ0UN0Pm9-634">
          <mxGeometry x="140" y="20" width="20" height="20" as="geometry" />
        </mxCell>
        <mxCell id="BugLoS8FiQRtQ0UN0Pm9-646" value="" style="group" vertex="1" connectable="0" parent="1">
          <mxGeometry x="110" y="1000" width="200" height="40" as="geometry" />
        </mxCell>
        <mxCell id="BugLoS8FiQRtQ0UN0Pm9-647" value="" style="rounded=0;whiteSpace=wrap;html=1;" vertex="1" parent="BugLoS8FiQRtQ0UN0Pm9-646">
          <mxGeometry x="10" width="60" height="20" as="geometry" />
        </mxCell>
        <mxCell id="BugLoS8FiQRtQ0UN0Pm9-648" value="" style="rounded=0;whiteSpace=wrap;html=1;" vertex="1" parent="BugLoS8FiQRtQ0UN0Pm9-646">
          <mxGeometry x="130" width="60" height="20" as="geometry" />
        </mxCell>
        <mxCell id="BugLoS8FiQRtQ0UN0Pm9-649" value="" style="endArrow=none;dashed=1;html=1;strokeWidth=2;rounded=0;exitX=0.5;exitY=0;exitDx=0;exitDy=0;entryX=0.25;entryY=0;entryDx=0;entryDy=0;dashPattern=1 1;" edge="1" parent="BugLoS8FiQRtQ0UN0Pm9-646">
          <mxGeometry width="50" height="50" relative="1" as="geometry">
            <mxPoint x="150" y="20" as="sourcePoint" />
            <mxPoint x="150" as="targetPoint" />
          </mxGeometry>
        </mxCell>
        <mxCell id="BugLoS8FiQRtQ0UN0Pm9-650" value="" style="rounded=0;whiteSpace=wrap;html=1;" vertex="1" parent="BugLoS8FiQRtQ0UN0Pm9-646">
          <mxGeometry x="80" width="40" height="20" as="geometry" />
        </mxCell>
        <mxCell id="BugLoS8FiQRtQ0UN0Pm9-651" value="" style="endArrow=none;dashed=1;html=1;strokeWidth=2;rounded=0;exitX=0.5;exitY=1;exitDx=0;exitDy=0;entryX=0.5;entryY=0;entryDx=0;entryDy=0;dashPattern=1 1;" edge="1" parent="BugLoS8FiQRtQ0UN0Pm9-646">
          <mxGeometry width="50" height="50" relative="1" as="geometry">
            <mxPoint x="50" y="20" as="sourcePoint" />
            <mxPoint x="50" as="targetPoint" />
          </mxGeometry>
        </mxCell>
        <mxCell id="BugLoS8FiQRtQ0UN0Pm9-652" value="0" style="text;html=1;strokeColor=none;fillColor=none;align=center;verticalAlign=middle;whiteSpace=wrap;rounded=0;" vertex="1" parent="BugLoS8FiQRtQ0UN0Pm9-646">
          <mxGeometry y="20" width="20" height="20" as="geometry" />
        </mxCell>
        <mxCell id="BugLoS8FiQRtQ0UN0Pm9-653" value="10" style="text;html=1;strokeColor=none;fillColor=none;align=center;verticalAlign=middle;whiteSpace=wrap;rounded=0;" vertex="1" parent="BugLoS8FiQRtQ0UN0Pm9-646">
          <mxGeometry x="180" y="20" width="20" height="20" as="geometry" />
        </mxCell>
        <mxCell id="BugLoS8FiQRtQ0UN0Pm9-654" value="4" style="text;html=1;strokeColor=none;fillColor=none;align=center;verticalAlign=middle;whiteSpace=wrap;rounded=0;" vertex="1" parent="BugLoS8FiQRtQ0UN0Pm9-646">
          <mxGeometry x="40" y="20" width="20" height="20" as="geometry" />
        </mxCell>
        <mxCell id="BugLoS8FiQRtQ0UN0Pm9-655" value="5" style="text;html=1;strokeColor=none;fillColor=none;align=center;verticalAlign=middle;whiteSpace=wrap;rounded=0;" vertex="1" parent="BugLoS8FiQRtQ0UN0Pm9-646">
          <mxGeometry x="60" y="20" width="30" height="20" as="geometry" />
        </mxCell>
        <mxCell id="BugLoS8FiQRtQ0UN0Pm9-656" value="7" style="text;html=1;strokeColor=none;fillColor=none;align=center;verticalAlign=middle;whiteSpace=wrap;rounded=0;" vertex="1" parent="BugLoS8FiQRtQ0UN0Pm9-646">
          <mxGeometry x="110" y="20" width="30" height="20" as="geometry" />
        </mxCell>
        <mxCell id="BugLoS8FiQRtQ0UN0Pm9-657" value="8" style="text;html=1;strokeColor=none;fillColor=none;align=center;verticalAlign=middle;whiteSpace=wrap;rounded=0;" vertex="1" parent="BugLoS8FiQRtQ0UN0Pm9-646">
          <mxGeometry x="140" y="20" width="20" height="20" as="geometry" />
        </mxCell>
        <mxCell id="BugLoS8FiQRtQ0UN0Pm9-660" value="" style="group" vertex="1" connectable="0" parent="1">
          <mxGeometry x="350" y="980" width="190" height="40" as="geometry" />
        </mxCell>
        <mxCell id="BugLoS8FiQRtQ0UN0Pm9-661" value="" style="rounded=0;whiteSpace=wrap;html=1;" vertex="1" parent="BugLoS8FiQRtQ0UN0Pm9-660">
          <mxGeometry x="10" width="100" height="20" as="geometry" />
        </mxCell>
        <mxCell id="BugLoS8FiQRtQ0UN0Pm9-662" value="" style="rounded=0;whiteSpace=wrap;html=1;" vertex="1" parent="BugLoS8FiQRtQ0UN0Pm9-660">
          <mxGeometry x="120" width="60" height="20" as="geometry" />
        </mxCell>
        <mxCell id="BugLoS8FiQRtQ0UN0Pm9-663" value="" style="endArrow=none;dashed=1;html=1;strokeWidth=2;rounded=0;exitX=0.5;exitY=0;exitDx=0;exitDy=0;entryX=0.25;entryY=0;entryDx=0;entryDy=0;dashPattern=1 1;" edge="1" parent="BugLoS8FiQRtQ0UN0Pm9-660">
          <mxGeometry width="50" height="50" relative="1" as="geometry">
            <mxPoint x="50" y="20" as="sourcePoint" />
            <mxPoint x="50" as="targetPoint" />
          </mxGeometry>
        </mxCell>
        <mxCell id="BugLoS8FiQRtQ0UN0Pm9-664" value="" style="endArrow=none;dashed=1;html=1;strokeWidth=2;rounded=0;exitX=0.5;exitY=0;exitDx=0;exitDy=0;entryX=0.25;entryY=0;entryDx=0;entryDy=0;dashPattern=1 1;" edge="1" parent="BugLoS8FiQRtQ0UN0Pm9-660">
          <mxGeometry width="50" height="50" relative="1" as="geometry">
            <mxPoint x="70" y="20" as="sourcePoint" />
            <mxPoint x="70" as="targetPoint" />
          </mxGeometry>
        </mxCell>
        <mxCell id="BugLoS8FiQRtQ0UN0Pm9-665" value="" style="endArrow=none;dashed=1;html=1;strokeWidth=2;rounded=0;exitX=0.5;exitY=0;exitDx=0;exitDy=0;entryX=0.25;entryY=0;entryDx=0;entryDy=0;dashPattern=1 1;" edge="1" parent="BugLoS8FiQRtQ0UN0Pm9-660">
          <mxGeometry width="50" height="50" relative="1" as="geometry">
            <mxPoint x="139.67" y="20" as="sourcePoint" />
            <mxPoint x="139.67" as="targetPoint" />
          </mxGeometry>
        </mxCell>
        <mxCell id="BugLoS8FiQRtQ0UN0Pm9-666" value="10" style="text;html=1;strokeColor=none;fillColor=none;align=center;verticalAlign=middle;whiteSpace=wrap;rounded=0;" vertex="1" parent="BugLoS8FiQRtQ0UN0Pm9-660">
          <mxGeometry x="170" y="20" width="20" height="20" as="geometry" />
        </mxCell>
        <mxCell id="BugLoS8FiQRtQ0UN0Pm9-667" value="0" style="text;html=1;strokeColor=none;fillColor=none;align=center;verticalAlign=middle;whiteSpace=wrap;rounded=0;" vertex="1" parent="BugLoS8FiQRtQ0UN0Pm9-660">
          <mxGeometry y="20" width="20" height="20" as="geometry" />
        </mxCell>
        <mxCell id="BugLoS8FiQRtQ0UN0Pm9-668" value="4" style="text;html=1;strokeColor=none;fillColor=none;align=center;verticalAlign=middle;whiteSpace=wrap;rounded=0;" vertex="1" parent="BugLoS8FiQRtQ0UN0Pm9-660">
          <mxGeometry x="40" y="20" width="20" height="20" as="geometry" />
        </mxCell>
        <mxCell id="BugLoS8FiQRtQ0UN0Pm9-669" value="5" style="text;html=1;strokeColor=none;fillColor=none;align=center;verticalAlign=middle;whiteSpace=wrap;rounded=0;" vertex="1" parent="BugLoS8FiQRtQ0UN0Pm9-660">
          <mxGeometry x="60" y="20" width="20" height="20" as="geometry" />
        </mxCell>
        <mxCell id="BugLoS8FiQRtQ0UN0Pm9-670" value="7" style="text;html=1;strokeColor=none;fillColor=none;align=center;verticalAlign=middle;whiteSpace=wrap;rounded=0;" vertex="1" parent="BugLoS8FiQRtQ0UN0Pm9-660">
          <mxGeometry x="100" y="20" width="30" height="20" as="geometry" />
        </mxCell>
        <mxCell id="BugLoS8FiQRtQ0UN0Pm9-671" value="8" style="text;html=1;strokeColor=none;fillColor=none;align=center;verticalAlign=middle;whiteSpace=wrap;rounded=0;" vertex="1" parent="BugLoS8FiQRtQ0UN0Pm9-660">
          <mxGeometry x="130" y="20" width="20" height="20" as="geometry" />
        </mxCell>
        <mxCell id="BugLoS8FiQRtQ0UN0Pm9-672" value="" style="group" vertex="1" connectable="0" parent="1">
          <mxGeometry x="350" y="1020" width="190" height="40" as="geometry" />
        </mxCell>
        <mxCell id="BugLoS8FiQRtQ0UN0Pm9-673" value="" style="rounded=0;whiteSpace=wrap;html=1;" vertex="1" parent="BugLoS8FiQRtQ0UN0Pm9-672">
          <mxGeometry x="10" width="60" height="20" as="geometry" />
        </mxCell>
        <mxCell id="BugLoS8FiQRtQ0UN0Pm9-674" value="" style="rounded=0;whiteSpace=wrap;html=1;" vertex="1" parent="BugLoS8FiQRtQ0UN0Pm9-672">
          <mxGeometry x="80" width="100" height="20" as="geometry" />
        </mxCell>
        <mxCell id="BugLoS8FiQRtQ0UN0Pm9-675" value="" style="endArrow=none;dashed=1;html=1;strokeWidth=2;rounded=0;exitX=0.5;exitY=0;exitDx=0;exitDy=0;entryX=0.25;entryY=0;entryDx=0;entryDy=0;dashPattern=1 1;" edge="1" parent="BugLoS8FiQRtQ0UN0Pm9-672">
          <mxGeometry width="50" height="50" relative="1" as="geometry">
            <mxPoint x="49.999999999999986" y="20" as="sourcePoint" />
            <mxPoint x="49.999999999999986" as="targetPoint" />
          </mxGeometry>
        </mxCell>
        <mxCell id="BugLoS8FiQRtQ0UN0Pm9-676" value="" style="endArrow=none;dashed=1;html=1;strokeWidth=2;rounded=0;exitX=0.5;exitY=0;exitDx=0;exitDy=0;entryX=0.25;entryY=0;entryDx=0;entryDy=0;dashPattern=1 1;" edge="1" parent="BugLoS8FiQRtQ0UN0Pm9-672">
          <mxGeometry width="50" height="50" relative="1" as="geometry">
            <mxPoint x="120" y="20" as="sourcePoint" />
            <mxPoint x="120" as="targetPoint" />
          </mxGeometry>
        </mxCell>
        <mxCell id="BugLoS8FiQRtQ0UN0Pm9-677" value="" style="endArrow=none;dashed=1;html=1;strokeWidth=2;rounded=0;exitX=0.5;exitY=0;exitDx=0;exitDy=0;entryX=0.25;entryY=0;entryDx=0;entryDy=0;dashPattern=1 1;" edge="1" parent="BugLoS8FiQRtQ0UN0Pm9-672">
          <mxGeometry width="50" height="50" relative="1" as="geometry">
            <mxPoint x="140" y="20" as="sourcePoint" />
            <mxPoint x="140" as="targetPoint" />
          </mxGeometry>
        </mxCell>
        <mxCell id="BugLoS8FiQRtQ0UN0Pm9-678" value="10" style="text;html=1;strokeColor=none;fillColor=none;align=center;verticalAlign=middle;whiteSpace=wrap;rounded=0;" vertex="1" parent="BugLoS8FiQRtQ0UN0Pm9-672">
          <mxGeometry x="170" y="20" width="20" height="20" as="geometry" />
        </mxCell>
        <mxCell id="BugLoS8FiQRtQ0UN0Pm9-679" value="0" style="text;html=1;strokeColor=none;fillColor=none;align=center;verticalAlign=middle;whiteSpace=wrap;rounded=0;" vertex="1" parent="BugLoS8FiQRtQ0UN0Pm9-672">
          <mxGeometry y="20" width="20" height="20" as="geometry" />
        </mxCell>
        <mxCell id="BugLoS8FiQRtQ0UN0Pm9-680" value="4" style="text;html=1;strokeColor=none;fillColor=none;align=center;verticalAlign=middle;whiteSpace=wrap;rounded=0;" vertex="1" parent="BugLoS8FiQRtQ0UN0Pm9-672">
          <mxGeometry x="40" y="20" width="20" height="20" as="geometry" />
        </mxCell>
        <mxCell id="BugLoS8FiQRtQ0UN0Pm9-681" value="5" style="text;html=1;strokeColor=none;fillColor=none;align=center;verticalAlign=middle;whiteSpace=wrap;rounded=0;" vertex="1" parent="BugLoS8FiQRtQ0UN0Pm9-672">
          <mxGeometry x="60" y="20" width="30" height="20" as="geometry" />
        </mxCell>
        <mxCell id="BugLoS8FiQRtQ0UN0Pm9-682" value="7" style="text;html=1;strokeColor=none;fillColor=none;align=center;verticalAlign=middle;whiteSpace=wrap;rounded=0;" vertex="1" parent="BugLoS8FiQRtQ0UN0Pm9-672">
          <mxGeometry x="110" y="20" width="20" height="20" as="geometry" />
        </mxCell>
        <mxCell id="BugLoS8FiQRtQ0UN0Pm9-683" value="8" style="text;html=1;strokeColor=none;fillColor=none;align=center;verticalAlign=middle;whiteSpace=wrap;rounded=0;" vertex="1" parent="BugLoS8FiQRtQ0UN0Pm9-672">
          <mxGeometry x="130" y="20" width="20" height="20" as="geometry" />
        </mxCell>
        <mxCell id="BugLoS8FiQRtQ0UN0Pm9-684" value="" style="group" vertex="1" connectable="0" parent="1">
          <mxGeometry x="350" y="1060" width="190" height="40" as="geometry" />
        </mxCell>
        <mxCell id="BugLoS8FiQRtQ0UN0Pm9-685" value="" style="rounded=0;whiteSpace=wrap;html=1;" vertex="1" parent="BugLoS8FiQRtQ0UN0Pm9-684">
          <mxGeometry x="140" width="40" height="20" as="geometry" />
        </mxCell>
        <mxCell id="BugLoS8FiQRtQ0UN0Pm9-686" value="" style="rounded=0;whiteSpace=wrap;html=1;" vertex="1" parent="BugLoS8FiQRtQ0UN0Pm9-684">
          <mxGeometry x="10" width="120" height="20" as="geometry" />
        </mxCell>
        <mxCell id="BugLoS8FiQRtQ0UN0Pm9-687" value="" style="endArrow=none;dashed=1;html=1;strokeWidth=2;rounded=0;exitX=0.5;exitY=0;exitDx=0;exitDy=0;entryX=0.25;entryY=0;entryDx=0;entryDy=0;dashPattern=1 1;" edge="1" parent="BugLoS8FiQRtQ0UN0Pm9-684">
          <mxGeometry width="50" height="50" relative="1" as="geometry">
            <mxPoint x="50" y="20" as="sourcePoint" />
            <mxPoint x="50" as="targetPoint" />
          </mxGeometry>
        </mxCell>
        <mxCell id="BugLoS8FiQRtQ0UN0Pm9-688" value="" style="endArrow=none;dashed=1;html=1;strokeWidth=2;rounded=0;exitX=0.5;exitY=0;exitDx=0;exitDy=0;entryX=0.25;entryY=0;entryDx=0;entryDy=0;dashPattern=1 1;" edge="1" parent="BugLoS8FiQRtQ0UN0Pm9-684">
          <mxGeometry width="50" height="50" relative="1" as="geometry">
            <mxPoint x="70" y="20" as="sourcePoint" />
            <mxPoint x="70" as="targetPoint" />
          </mxGeometry>
        </mxCell>
        <mxCell id="BugLoS8FiQRtQ0UN0Pm9-689" value="" style="endArrow=none;dashed=1;html=1;strokeWidth=2;rounded=0;exitX=0.5;exitY=0;exitDx=0;exitDy=0;entryX=0.25;entryY=0;entryDx=0;entryDy=0;dashPattern=1 1;" edge="1" parent="BugLoS8FiQRtQ0UN0Pm9-684">
          <mxGeometry width="50" height="50" relative="1" as="geometry">
            <mxPoint x="109.66999999999999" y="20" as="sourcePoint" />
            <mxPoint x="109.66999999999999" as="targetPoint" />
          </mxGeometry>
        </mxCell>
        <mxCell id="BugLoS8FiQRtQ0UN0Pm9-690" value="10" style="text;html=1;strokeColor=none;fillColor=none;align=center;verticalAlign=middle;whiteSpace=wrap;rounded=0;" vertex="1" parent="BugLoS8FiQRtQ0UN0Pm9-684">
          <mxGeometry x="170" y="20" width="20" height="20" as="geometry" />
        </mxCell>
        <mxCell id="BugLoS8FiQRtQ0UN0Pm9-691" value="0" style="text;html=1;strokeColor=none;fillColor=none;align=center;verticalAlign=middle;whiteSpace=wrap;rounded=0;" vertex="1" parent="BugLoS8FiQRtQ0UN0Pm9-684">
          <mxGeometry y="20" width="20" height="20" as="geometry" />
        </mxCell>
        <mxCell id="BugLoS8FiQRtQ0UN0Pm9-692" value="4" style="text;html=1;strokeColor=none;fillColor=none;align=center;verticalAlign=middle;whiteSpace=wrap;rounded=0;" vertex="1" parent="BugLoS8FiQRtQ0UN0Pm9-684">
          <mxGeometry x="40" y="20" width="20" height="20" as="geometry" />
        </mxCell>
        <mxCell id="BugLoS8FiQRtQ0UN0Pm9-693" value="5" style="text;html=1;strokeColor=none;fillColor=none;align=center;verticalAlign=middle;whiteSpace=wrap;rounded=0;" vertex="1" parent="BugLoS8FiQRtQ0UN0Pm9-684">
          <mxGeometry x="60" y="20" width="20" height="20" as="geometry" />
        </mxCell>
        <mxCell id="BugLoS8FiQRtQ0UN0Pm9-694" value="7" style="text;html=1;strokeColor=none;fillColor=none;align=center;verticalAlign=middle;whiteSpace=wrap;rounded=0;" vertex="1" parent="BugLoS8FiQRtQ0UN0Pm9-684">
          <mxGeometry x="100" y="20" width="20" height="20" as="geometry" />
        </mxCell>
        <mxCell id="BugLoS8FiQRtQ0UN0Pm9-695" value="8" style="text;html=1;strokeColor=none;fillColor=none;align=center;verticalAlign=middle;whiteSpace=wrap;rounded=0;" vertex="1" parent="BugLoS8FiQRtQ0UN0Pm9-684">
          <mxGeometry x="120" y="20" width="30" height="20" as="geometry" />
        </mxCell>
        <mxCell id="BugLoS8FiQRtQ0UN0Pm9-696" value="" style="group" vertex="1" connectable="0" parent="1">
          <mxGeometry x="350" y="1100" width="190" height="40" as="geometry" />
        </mxCell>
        <mxCell id="BugLoS8FiQRtQ0UN0Pm9-697" value="0" style="text;html=1;strokeColor=none;fillColor=none;align=center;verticalAlign=middle;whiteSpace=wrap;rounded=0;" vertex="1" parent="BugLoS8FiQRtQ0UN0Pm9-696">
          <mxGeometry y="20" width="20" height="20" as="geometry" />
        </mxCell>
        <mxCell id="BugLoS8FiQRtQ0UN0Pm9-698" value="" style="rounded=0;whiteSpace=wrap;html=1;" vertex="1" parent="BugLoS8FiQRtQ0UN0Pm9-696">
          <mxGeometry x="10" width="40" height="20" as="geometry" />
        </mxCell>
        <mxCell id="BugLoS8FiQRtQ0UN0Pm9-699" value="" style="rounded=0;whiteSpace=wrap;html=1;" vertex="1" parent="BugLoS8FiQRtQ0UN0Pm9-696">
          <mxGeometry x="60" width="120" height="20" as="geometry" />
        </mxCell>
        <mxCell id="BugLoS8FiQRtQ0UN0Pm9-700" value="" style="endArrow=none;dashed=1;html=1;strokeWidth=2;rounded=0;exitX=0.5;exitY=0;exitDx=0;exitDy=0;entryX=0.25;entryY=0;entryDx=0;entryDy=0;dashPattern=1 1;" edge="1" parent="BugLoS8FiQRtQ0UN0Pm9-696">
          <mxGeometry width="50" height="50" relative="1" as="geometry">
            <mxPoint x="80" y="20" as="sourcePoint" />
            <mxPoint x="80" as="targetPoint" />
          </mxGeometry>
        </mxCell>
        <mxCell id="BugLoS8FiQRtQ0UN0Pm9-701" value="" style="endArrow=none;dashed=1;html=1;strokeWidth=2;rounded=0;exitX=0.5;exitY=1;exitDx=0;exitDy=0;entryX=0.5;entryY=0;entryDx=0;entryDy=0;dashPattern=1 1;" edge="1" parent="BugLoS8FiQRtQ0UN0Pm9-696" source="BugLoS8FiQRtQ0UN0Pm9-699" target="BugLoS8FiQRtQ0UN0Pm9-699">
          <mxGeometry width="50" height="50" relative="1" as="geometry">
            <mxPoint x="149.76" y="-50" as="sourcePoint" />
            <mxPoint x="149.76" y="-70" as="targetPoint" />
          </mxGeometry>
        </mxCell>
        <mxCell id="BugLoS8FiQRtQ0UN0Pm9-702" value="" style="endArrow=none;dashed=1;html=1;strokeWidth=2;rounded=0;exitX=0.5;exitY=0;exitDx=0;exitDy=0;entryX=0.25;entryY=0;entryDx=0;entryDy=0;dashPattern=1 1;" edge="1" parent="BugLoS8FiQRtQ0UN0Pm9-696">
          <mxGeometry width="50" height="50" relative="1" as="geometry">
            <mxPoint x="140" y="20" as="sourcePoint" />
            <mxPoint x="140" as="targetPoint" />
          </mxGeometry>
        </mxCell>
        <mxCell id="BugLoS8FiQRtQ0UN0Pm9-703" value="4" style="text;html=1;strokeColor=none;fillColor=none;align=center;verticalAlign=middle;whiteSpace=wrap;rounded=0;" vertex="1" parent="BugLoS8FiQRtQ0UN0Pm9-696">
          <mxGeometry x="40" y="20" width="30" height="20" as="geometry" />
        </mxCell>
        <mxCell id="BugLoS8FiQRtQ0UN0Pm9-704" value="5" style="text;html=1;strokeColor=none;fillColor=none;align=center;verticalAlign=middle;whiteSpace=wrap;rounded=0;" vertex="1" parent="BugLoS8FiQRtQ0UN0Pm9-696">
          <mxGeometry x="70" y="20" width="20" height="20" as="geometry" />
        </mxCell>
        <mxCell id="BugLoS8FiQRtQ0UN0Pm9-705" value="7" style="text;html=1;strokeColor=none;fillColor=none;align=center;verticalAlign=middle;whiteSpace=wrap;rounded=0;" vertex="1" parent="BugLoS8FiQRtQ0UN0Pm9-696">
          <mxGeometry x="110" y="20" width="20" height="20" as="geometry" />
        </mxCell>
        <mxCell id="BugLoS8FiQRtQ0UN0Pm9-706" value="8" style="text;html=1;strokeColor=none;fillColor=none;align=center;verticalAlign=middle;whiteSpace=wrap;rounded=0;" vertex="1" parent="BugLoS8FiQRtQ0UN0Pm9-696">
          <mxGeometry x="130" y="20" width="20" height="20" as="geometry" />
        </mxCell>
        <mxCell id="BugLoS8FiQRtQ0UN0Pm9-707" value="10" style="text;html=1;strokeColor=none;fillColor=none;align=center;verticalAlign=middle;whiteSpace=wrap;rounded=0;" vertex="1" parent="BugLoS8FiQRtQ0UN0Pm9-696">
          <mxGeometry x="170" y="20" width="20" height="20" as="geometry" />
        </mxCell>
        <mxCell id="BugLoS8FiQRtQ0UN0Pm9-708" value="" style="group" vertex="1" connectable="0" parent="1">
          <mxGeometry x="350" y="1180" width="190" height="40" as="geometry" />
        </mxCell>
        <mxCell id="BugLoS8FiQRtQ0UN0Pm9-709" value="0" style="text;html=1;strokeColor=none;fillColor=none;align=center;verticalAlign=middle;whiteSpace=wrap;rounded=0;" vertex="1" parent="BugLoS8FiQRtQ0UN0Pm9-708">
          <mxGeometry y="20" width="20" height="20" as="geometry" />
        </mxCell>
        <mxCell id="BugLoS8FiQRtQ0UN0Pm9-710" value="" style="rounded=0;whiteSpace=wrap;html=1;" vertex="1" parent="BugLoS8FiQRtQ0UN0Pm9-708">
          <mxGeometry x="10" width="40" height="20" as="geometry" />
        </mxCell>
        <mxCell id="BugLoS8FiQRtQ0UN0Pm9-711" value="" style="rounded=0;whiteSpace=wrap;html=1;" vertex="1" parent="BugLoS8FiQRtQ0UN0Pm9-708">
          <mxGeometry x="60" width="120" height="20" as="geometry" />
        </mxCell>
        <mxCell id="BugLoS8FiQRtQ0UN0Pm9-712" value="" style="endArrow=none;dashed=1;html=1;strokeWidth=2;rounded=0;exitX=0.5;exitY=0;exitDx=0;exitDy=0;entryX=0.25;entryY=0;entryDx=0;entryDy=0;dashPattern=1 1;" edge="1" parent="BugLoS8FiQRtQ0UN0Pm9-708">
          <mxGeometry width="50" height="50" relative="1" as="geometry">
            <mxPoint x="80" y="20" as="sourcePoint" />
            <mxPoint x="80" as="targetPoint" />
          </mxGeometry>
        </mxCell>
        <mxCell id="BugLoS8FiQRtQ0UN0Pm9-713" value="" style="endArrow=none;dashed=1;html=1;strokeWidth=2;rounded=0;exitX=0.5;exitY=1;exitDx=0;exitDy=0;entryX=0.5;entryY=0;entryDx=0;entryDy=0;dashPattern=1 1;" edge="1" parent="BugLoS8FiQRtQ0UN0Pm9-708" source="BugLoS8FiQRtQ0UN0Pm9-711" target="BugLoS8FiQRtQ0UN0Pm9-711">
          <mxGeometry width="50" height="50" relative="1" as="geometry">
            <mxPoint x="149.76" y="-50" as="sourcePoint" />
            <mxPoint x="149.76" y="-70" as="targetPoint" />
          </mxGeometry>
        </mxCell>
        <mxCell id="BugLoS8FiQRtQ0UN0Pm9-714" value="" style="endArrow=none;dashed=1;html=1;strokeWidth=2;rounded=0;exitX=0.5;exitY=0;exitDx=0;exitDy=0;entryX=0.25;entryY=0;entryDx=0;entryDy=0;dashPattern=1 1;" edge="1" parent="BugLoS8FiQRtQ0UN0Pm9-708">
          <mxGeometry width="50" height="50" relative="1" as="geometry">
            <mxPoint x="140" y="20" as="sourcePoint" />
            <mxPoint x="140" as="targetPoint" />
          </mxGeometry>
        </mxCell>
        <mxCell id="BugLoS8FiQRtQ0UN0Pm9-715" value="4" style="text;html=1;strokeColor=none;fillColor=none;align=center;verticalAlign=middle;whiteSpace=wrap;rounded=0;" vertex="1" parent="BugLoS8FiQRtQ0UN0Pm9-708">
          <mxGeometry x="40" y="20" width="30" height="20" as="geometry" />
        </mxCell>
        <mxCell id="BugLoS8FiQRtQ0UN0Pm9-716" value="5" style="text;html=1;strokeColor=none;fillColor=none;align=center;verticalAlign=middle;whiteSpace=wrap;rounded=0;" vertex="1" parent="BugLoS8FiQRtQ0UN0Pm9-708">
          <mxGeometry x="70" y="20" width="20" height="20" as="geometry" />
        </mxCell>
        <mxCell id="BugLoS8FiQRtQ0UN0Pm9-717" value="7" style="text;html=1;strokeColor=none;fillColor=none;align=center;verticalAlign=middle;whiteSpace=wrap;rounded=0;" vertex="1" parent="BugLoS8FiQRtQ0UN0Pm9-708">
          <mxGeometry x="110" y="20" width="20" height="20" as="geometry" />
        </mxCell>
        <mxCell id="BugLoS8FiQRtQ0UN0Pm9-718" value="8" style="text;html=1;strokeColor=none;fillColor=none;align=center;verticalAlign=middle;whiteSpace=wrap;rounded=0;" vertex="1" parent="BugLoS8FiQRtQ0UN0Pm9-708">
          <mxGeometry x="130" y="20" width="20" height="20" as="geometry" />
        </mxCell>
        <mxCell id="BugLoS8FiQRtQ0UN0Pm9-719" value="10" style="text;html=1;strokeColor=none;fillColor=none;align=center;verticalAlign=middle;whiteSpace=wrap;rounded=0;" vertex="1" parent="BugLoS8FiQRtQ0UN0Pm9-708">
          <mxGeometry x="170" y="20" width="20" height="20" as="geometry" />
        </mxCell>
        <mxCell id="BugLoS8FiQRtQ0UN0Pm9-720" value="" style="group" vertex="1" connectable="0" parent="1">
          <mxGeometry x="350" y="1140" width="190" height="40" as="geometry" />
        </mxCell>
        <mxCell id="BugLoS8FiQRtQ0UN0Pm9-721" value="" style="rounded=0;whiteSpace=wrap;html=1;" vertex="1" parent="BugLoS8FiQRtQ0UN0Pm9-720">
          <mxGeometry x="10" width="60" height="20" as="geometry" />
        </mxCell>
        <mxCell id="BugLoS8FiQRtQ0UN0Pm9-722" value="" style="rounded=0;whiteSpace=wrap;html=1;" vertex="1" parent="BugLoS8FiQRtQ0UN0Pm9-720">
          <mxGeometry x="80" width="100" height="20" as="geometry" />
        </mxCell>
        <mxCell id="BugLoS8FiQRtQ0UN0Pm9-723" value="" style="endArrow=none;dashed=1;html=1;strokeWidth=2;rounded=0;exitX=0.5;exitY=0;exitDx=0;exitDy=0;entryX=0.25;entryY=0;entryDx=0;entryDy=0;dashPattern=1 1;" edge="1" parent="BugLoS8FiQRtQ0UN0Pm9-720">
          <mxGeometry width="50" height="50" relative="1" as="geometry">
            <mxPoint x="49.999999999999986" y="20" as="sourcePoint" />
            <mxPoint x="49.999999999999986" as="targetPoint" />
          </mxGeometry>
        </mxCell>
        <mxCell id="BugLoS8FiQRtQ0UN0Pm9-724" value="" style="endArrow=none;dashed=1;html=1;strokeWidth=2;rounded=0;exitX=0.5;exitY=0;exitDx=0;exitDy=0;entryX=0.25;entryY=0;entryDx=0;entryDy=0;dashPattern=1 1;" edge="1" parent="BugLoS8FiQRtQ0UN0Pm9-720">
          <mxGeometry width="50" height="50" relative="1" as="geometry">
            <mxPoint x="120" y="20" as="sourcePoint" />
            <mxPoint x="120" as="targetPoint" />
          </mxGeometry>
        </mxCell>
        <mxCell id="BugLoS8FiQRtQ0UN0Pm9-725" value="" style="endArrow=none;dashed=1;html=1;strokeWidth=2;rounded=0;exitX=0.5;exitY=0;exitDx=0;exitDy=0;entryX=0.25;entryY=0;entryDx=0;entryDy=0;dashPattern=1 1;" edge="1" parent="BugLoS8FiQRtQ0UN0Pm9-720">
          <mxGeometry width="50" height="50" relative="1" as="geometry">
            <mxPoint x="140" y="20" as="sourcePoint" />
            <mxPoint x="140" as="targetPoint" />
          </mxGeometry>
        </mxCell>
        <mxCell id="BugLoS8FiQRtQ0UN0Pm9-726" value="10" style="text;html=1;strokeColor=none;fillColor=none;align=center;verticalAlign=middle;whiteSpace=wrap;rounded=0;" vertex="1" parent="BugLoS8FiQRtQ0UN0Pm9-720">
          <mxGeometry x="170" y="20" width="20" height="20" as="geometry" />
        </mxCell>
        <mxCell id="BugLoS8FiQRtQ0UN0Pm9-727" value="0" style="text;html=1;strokeColor=none;fillColor=none;align=center;verticalAlign=middle;whiteSpace=wrap;rounded=0;" vertex="1" parent="BugLoS8FiQRtQ0UN0Pm9-720">
          <mxGeometry y="20" width="20" height="20" as="geometry" />
        </mxCell>
        <mxCell id="BugLoS8FiQRtQ0UN0Pm9-728" value="4" style="text;html=1;strokeColor=none;fillColor=none;align=center;verticalAlign=middle;whiteSpace=wrap;rounded=0;" vertex="1" parent="BugLoS8FiQRtQ0UN0Pm9-720">
          <mxGeometry x="40" y="20" width="20" height="20" as="geometry" />
        </mxCell>
        <mxCell id="BugLoS8FiQRtQ0UN0Pm9-729" value="5" style="text;html=1;strokeColor=none;fillColor=none;align=center;verticalAlign=middle;whiteSpace=wrap;rounded=0;" vertex="1" parent="BugLoS8FiQRtQ0UN0Pm9-720">
          <mxGeometry x="60" y="20" width="30" height="20" as="geometry" />
        </mxCell>
        <mxCell id="BugLoS8FiQRtQ0UN0Pm9-730" value="7" style="text;html=1;strokeColor=none;fillColor=none;align=center;verticalAlign=middle;whiteSpace=wrap;rounded=0;" vertex="1" parent="BugLoS8FiQRtQ0UN0Pm9-720">
          <mxGeometry x="110" y="20" width="20" height="20" as="geometry" />
        </mxCell>
        <mxCell id="BugLoS8FiQRtQ0UN0Pm9-731" value="8" style="text;html=1;strokeColor=none;fillColor=none;align=center;verticalAlign=middle;whiteSpace=wrap;rounded=0;" vertex="1" parent="BugLoS8FiQRtQ0UN0Pm9-720">
          <mxGeometry x="130" y="20" width="20" height="20" as="geometry" />
        </mxCell>
        <mxCell id="BugLoS8FiQRtQ0UN0Pm9-732" style="edgeStyle=orthogonalEdgeStyle;rounded=0;orthogonalLoop=1;jettySize=auto;html=1;entryX=0;entryY=0.5;entryDx=0;entryDy=0;" edge="1" parent="1" source="BugLoS8FiQRtQ0UN0Pm9-163" target="BugLoS8FiQRtQ0UN0Pm9-98">
          <mxGeometry relative="1" as="geometry">
            <mxPoint x="40" y="390" as="targetPoint" />
            <Array as="points">
              <mxPoint x="40" y="950" />
            </Array>
          </mxGeometry>
        </mxCell>
        <mxCell id="BugLoS8FiQRtQ0UN0Pm9-793" value="3" style="edgeLabel;html=1;align=center;verticalAlign=middle;resizable=0;points=[];" vertex="1" connectable="0" parent="BugLoS8FiQRtQ0UN0Pm9-732">
          <mxGeometry x="0.9513" relative="1" as="geometry">
            <mxPoint as="offset" />
          </mxGeometry>
        </mxCell>
        <mxCell id="BugLoS8FiQRtQ0UN0Pm9-733" style="edgeStyle=orthogonalEdgeStyle;rounded=0;orthogonalLoop=1;jettySize=auto;html=1;exitX=0.5;exitY=1;exitDx=0;exitDy=0;entryX=0;entryY=0.5;entryDx=0;entryDy=0;" edge="1" parent="1" source="BugLoS8FiQRtQ0UN0Pm9-163" target="BugLoS8FiQRtQ0UN0Pm9-110">
          <mxGeometry relative="1" as="geometry" />
        </mxCell>
        <mxCell id="BugLoS8FiQRtQ0UN0Pm9-792" value="3" style="edgeLabel;html=1;align=center;verticalAlign=middle;resizable=0;points=[];" vertex="1" connectable="0" parent="BugLoS8FiQRtQ0UN0Pm9-733">
          <mxGeometry x="0.9251" relative="1" as="geometry">
            <mxPoint as="offset" />
          </mxGeometry>
        </mxCell>
        <mxCell id="BugLoS8FiQRtQ0UN0Pm9-734" style="edgeStyle=orthogonalEdgeStyle;rounded=0;orthogonalLoop=1;jettySize=auto;html=1;exitX=0.5;exitY=1;exitDx=0;exitDy=0;entryX=0;entryY=0.5;entryDx=0;entryDy=0;" edge="1" parent="1" source="BugLoS8FiQRtQ0UN0Pm9-163" target="BugLoS8FiQRtQ0UN0Pm9-121">
          <mxGeometry relative="1" as="geometry" />
        </mxCell>
        <mxCell id="BugLoS8FiQRtQ0UN0Pm9-791" value="3" style="edgeLabel;html=1;align=center;verticalAlign=middle;resizable=0;points=[];" vertex="1" connectable="0" parent="BugLoS8FiQRtQ0UN0Pm9-734">
          <mxGeometry x="0.8685" relative="1" as="geometry">
            <mxPoint as="offset" />
          </mxGeometry>
        </mxCell>
        <mxCell id="BugLoS8FiQRtQ0UN0Pm9-735" style="edgeStyle=orthogonalEdgeStyle;rounded=0;orthogonalLoop=1;jettySize=auto;html=1;entryX=0;entryY=0.5;entryDx=0;entryDy=0;" edge="1" parent="1" source="BugLoS8FiQRtQ0UN0Pm9-163" target="BugLoS8FiQRtQ0UN0Pm9-127">
          <mxGeometry relative="1" as="geometry">
            <Array as="points">
              <mxPoint x="40" y="90" />
            </Array>
          </mxGeometry>
        </mxCell>
        <mxCell id="BugLoS8FiQRtQ0UN0Pm9-790" value="5" style="edgeLabel;html=1;align=center;verticalAlign=middle;resizable=0;points=[];" vertex="1" connectable="0" parent="BugLoS8FiQRtQ0UN0Pm9-735">
          <mxGeometry x="0.3524" relative="1" as="geometry">
            <mxPoint as="offset" />
          </mxGeometry>
        </mxCell>
        <mxCell id="BugLoS8FiQRtQ0UN0Pm9-736" style="edgeStyle=orthogonalEdgeStyle;rounded=0;orthogonalLoop=1;jettySize=auto;html=1;entryX=0;entryY=0.5;entryDx=0;entryDy=0;" edge="1" parent="1" source="BugLoS8FiQRtQ0UN0Pm9-134" target="BugLoS8FiQRtQ0UN0Pm9-190">
          <mxGeometry relative="1" as="geometry">
            <Array as="points">
              <mxPoint x="80" y="150" />
            </Array>
          </mxGeometry>
        </mxCell>
        <mxCell id="BugLoS8FiQRtQ0UN0Pm9-794" value="7" style="edgeLabel;html=1;align=center;verticalAlign=middle;resizable=0;points=[];" vertex="1" connectable="0" parent="BugLoS8FiQRtQ0UN0Pm9-736">
          <mxGeometry x="0.3657" relative="1" as="geometry">
            <mxPoint as="offset" />
          </mxGeometry>
        </mxCell>
        <mxCell id="BugLoS8FiQRtQ0UN0Pm9-737" style="edgeStyle=orthogonalEdgeStyle;rounded=0;orthogonalLoop=1;jettySize=auto;html=1;entryX=0;entryY=0.5;entryDx=0;entryDy=0;" edge="1" parent="1" source="BugLoS8FiQRtQ0UN0Pm9-134" target="BugLoS8FiQRtQ0UN0Pm9-202">
          <mxGeometry relative="1" as="geometry">
            <Array as="points">
              <mxPoint x="80" y="230" />
            </Array>
          </mxGeometry>
        </mxCell>
        <mxCell id="BugLoS8FiQRtQ0UN0Pm9-795" value="3" style="edgeLabel;html=1;align=center;verticalAlign=middle;resizable=0;points=[];" vertex="1" connectable="0" parent="BugLoS8FiQRtQ0UN0Pm9-737">
          <mxGeometry x="0.6707" relative="1" as="geometry">
            <mxPoint as="offset" />
          </mxGeometry>
        </mxCell>
        <mxCell id="BugLoS8FiQRtQ0UN0Pm9-738" style="edgeStyle=orthogonalEdgeStyle;rounded=0;orthogonalLoop=1;jettySize=auto;html=1;entryX=0;entryY=0.5;entryDx=0;entryDy=0;" edge="1" parent="1" source="BugLoS8FiQRtQ0UN0Pm9-134" target="BugLoS8FiQRtQ0UN0Pm9-215">
          <mxGeometry relative="1" as="geometry">
            <Array as="points">
              <mxPoint x="80" y="310" />
            </Array>
          </mxGeometry>
        </mxCell>
        <mxCell id="BugLoS8FiQRtQ0UN0Pm9-796" value="3" style="edgeLabel;html=1;align=center;verticalAlign=middle;resizable=0;points=[];" vertex="1" connectable="0" parent="BugLoS8FiQRtQ0UN0Pm9-738">
          <mxGeometry x="0.7939" relative="1" as="geometry">
            <mxPoint as="offset" />
          </mxGeometry>
        </mxCell>
        <mxCell id="BugLoS8FiQRtQ0UN0Pm9-742" style="edgeStyle=orthogonalEdgeStyle;rounded=0;orthogonalLoop=1;jettySize=auto;html=1;entryX=0;entryY=0.5;entryDx=0;entryDy=0;" edge="1" parent="1">
          <mxGeometry relative="1" as="geometry">
            <mxPoint x="80" y="420" as="sourcePoint" />
            <mxPoint x="120" y="450" as="targetPoint" />
            <Array as="points">
              <mxPoint x="80" y="450" />
            </Array>
          </mxGeometry>
        </mxCell>
        <mxCell id="BugLoS8FiQRtQ0UN0Pm9-797" value="7" style="edgeLabel;html=1;align=center;verticalAlign=middle;resizable=0;points=[];" vertex="1" connectable="0" parent="BugLoS8FiQRtQ0UN0Pm9-742">
          <mxGeometry x="0.3657" y="1" relative="1" as="geometry">
            <mxPoint as="offset" />
          </mxGeometry>
        </mxCell>
        <mxCell id="BugLoS8FiQRtQ0UN0Pm9-743" style="edgeStyle=orthogonalEdgeStyle;rounded=0;orthogonalLoop=1;jettySize=auto;html=1;entryX=0;entryY=0.5;entryDx=0;entryDy=0;" edge="1" parent="1">
          <mxGeometry relative="1" as="geometry">
            <mxPoint x="80" y="420" as="sourcePoint" />
            <mxPoint x="120" y="530" as="targetPoint" />
            <Array as="points">
              <mxPoint x="80" y="530" />
            </Array>
          </mxGeometry>
        </mxCell>
        <mxCell id="BugLoS8FiQRtQ0UN0Pm9-798" value="4" style="edgeLabel;html=1;align=center;verticalAlign=middle;resizable=0;points=[];" vertex="1" connectable="0" parent="BugLoS8FiQRtQ0UN0Pm9-743">
          <mxGeometry x="0.684" relative="1" as="geometry">
            <mxPoint as="offset" />
          </mxGeometry>
        </mxCell>
        <mxCell id="BugLoS8FiQRtQ0UN0Pm9-744" style="edgeStyle=orthogonalEdgeStyle;rounded=0;orthogonalLoop=1;jettySize=auto;html=1;entryX=0;entryY=0.5;entryDx=0;entryDy=0;" edge="1" parent="1">
          <mxGeometry relative="1" as="geometry">
            <mxPoint x="80" y="420" as="sourcePoint" />
            <mxPoint x="120" y="610" as="targetPoint" />
            <Array as="points">
              <mxPoint x="80" y="610" />
            </Array>
          </mxGeometry>
        </mxCell>
        <mxCell id="BugLoS8FiQRtQ0UN0Pm9-799" value="3" style="edgeLabel;html=1;align=center;verticalAlign=middle;resizable=0;points=[];" vertex="1" connectable="0" parent="BugLoS8FiQRtQ0UN0Pm9-744">
          <mxGeometry x="0.8026" relative="1" as="geometry">
            <mxPoint as="offset" />
          </mxGeometry>
        </mxCell>
        <mxCell id="BugLoS8FiQRtQ0UN0Pm9-745" style="edgeStyle=orthogonalEdgeStyle;rounded=0;orthogonalLoop=1;jettySize=auto;html=1;entryX=0;entryY=0.5;entryDx=0;entryDy=0;" edge="1" parent="1">
          <mxGeometry relative="1" as="geometry">
            <mxPoint x="80" y="700" as="sourcePoint" />
            <mxPoint x="120" y="730" as="targetPoint" />
            <Array as="points">
              <mxPoint x="80" y="730" />
            </Array>
          </mxGeometry>
        </mxCell>
        <mxCell id="BugLoS8FiQRtQ0UN0Pm9-800" value="5" style="edgeLabel;html=1;align=center;verticalAlign=middle;resizable=0;points=[];" vertex="1" connectable="0" parent="BugLoS8FiQRtQ0UN0Pm9-745">
          <mxGeometry x="0.3514" y="1" relative="1" as="geometry">
            <mxPoint as="offset" />
          </mxGeometry>
        </mxCell>
        <mxCell id="BugLoS8FiQRtQ0UN0Pm9-746" style="edgeStyle=orthogonalEdgeStyle;rounded=0;orthogonalLoop=1;jettySize=auto;html=1;entryX=0;entryY=0.5;entryDx=0;entryDy=0;" edge="1" parent="1">
          <mxGeometry relative="1" as="geometry">
            <mxPoint x="80" y="700" as="sourcePoint" />
            <mxPoint x="120" y="810" as="targetPoint" />
            <Array as="points">
              <mxPoint x="80" y="810" />
            </Array>
          </mxGeometry>
        </mxCell>
        <mxCell id="BugLoS8FiQRtQ0UN0Pm9-801" value="4" style="edgeLabel;html=1;align=center;verticalAlign=middle;resizable=0;points=[];" vertex="1" connectable="0" parent="BugLoS8FiQRtQ0UN0Pm9-746">
          <mxGeometry x="0.6707" relative="1" as="geometry">
            <mxPoint as="offset" />
          </mxGeometry>
        </mxCell>
        <mxCell id="BugLoS8FiQRtQ0UN0Pm9-747" style="edgeStyle=orthogonalEdgeStyle;rounded=0;orthogonalLoop=1;jettySize=auto;html=1;entryX=0;entryY=0.5;entryDx=0;entryDy=0;" edge="1" parent="1">
          <mxGeometry relative="1" as="geometry">
            <mxPoint x="80" y="700" as="sourcePoint" />
            <mxPoint x="120" y="890" as="targetPoint" />
            <Array as="points">
              <mxPoint x="80" y="890" />
            </Array>
          </mxGeometry>
        </mxCell>
        <mxCell id="BugLoS8FiQRtQ0UN0Pm9-802" value="5" style="edgeLabel;html=1;align=center;verticalAlign=middle;resizable=0;points=[];" vertex="1" connectable="0" parent="BugLoS8FiQRtQ0UN0Pm9-747">
          <mxGeometry x="0.7809" y="1" relative="1" as="geometry">
            <mxPoint as="offset" />
          </mxGeometry>
        </mxCell>
        <mxCell id="BugLoS8FiQRtQ0UN0Pm9-748" style="edgeStyle=orthogonalEdgeStyle;rounded=0;orthogonalLoop=1;jettySize=auto;html=1;entryX=0;entryY=0.5;entryDx=0;entryDy=0;" edge="1" parent="1">
          <mxGeometry relative="1" as="geometry">
            <mxPoint x="80" y="980" as="sourcePoint" />
            <mxPoint x="120" y="1010" as="targetPoint" />
            <Array as="points">
              <mxPoint x="80" y="1010" />
            </Array>
          </mxGeometry>
        </mxCell>
        <mxCell id="BugLoS8FiQRtQ0UN0Pm9-803" value="5" style="edgeLabel;html=1;align=center;verticalAlign=middle;resizable=0;points=[];" vertex="1" connectable="0" parent="BugLoS8FiQRtQ0UN0Pm9-748">
          <mxGeometry x="0.3943" relative="1" as="geometry">
            <mxPoint as="offset" />
          </mxGeometry>
        </mxCell>
        <mxCell id="BugLoS8FiQRtQ0UN0Pm9-749" style="edgeStyle=orthogonalEdgeStyle;rounded=0;orthogonalLoop=1;jettySize=auto;html=1;entryX=0;entryY=0.5;entryDx=0;entryDy=0;" edge="1" parent="1">
          <mxGeometry relative="1" as="geometry">
            <mxPoint x="80" y="980" as="sourcePoint" />
            <mxPoint x="120" y="1090" as="targetPoint" />
            <Array as="points">
              <mxPoint x="80" y="1090" />
            </Array>
          </mxGeometry>
        </mxCell>
        <mxCell id="BugLoS8FiQRtQ0UN0Pm9-804" value="3" style="edgeLabel;html=1;align=center;verticalAlign=middle;resizable=0;points=[];" vertex="1" connectable="0" parent="BugLoS8FiQRtQ0UN0Pm9-749">
          <mxGeometry x="0.7173" relative="1" as="geometry">
            <mxPoint as="offset" />
          </mxGeometry>
        </mxCell>
        <mxCell id="BugLoS8FiQRtQ0UN0Pm9-750" style="edgeStyle=orthogonalEdgeStyle;rounded=0;orthogonalLoop=1;jettySize=auto;html=1;entryX=0;entryY=0.5;entryDx=0;entryDy=0;" edge="1" parent="1">
          <mxGeometry relative="1" as="geometry">
            <mxPoint x="80" y="980" as="sourcePoint" />
            <mxPoint x="120" y="1170" as="targetPoint" />
            <Array as="points">
              <mxPoint x="80" y="1170" />
            </Array>
          </mxGeometry>
        </mxCell>
        <mxCell id="BugLoS8FiQRtQ0UN0Pm9-805" value="5" style="edgeLabel;html=1;align=center;verticalAlign=middle;resizable=0;points=[];" vertex="1" connectable="0" parent="BugLoS8FiQRtQ0UN0Pm9-750">
          <mxGeometry x="0.8113" y="1" relative="1" as="geometry">
            <mxPoint as="offset" />
          </mxGeometry>
        </mxCell>
        <mxCell id="BugLoS8FiQRtQ0UN0Pm9-760" style="edgeStyle=orthogonalEdgeStyle;rounded=0;orthogonalLoop=1;jettySize=auto;html=1;" edge="1" parent="1" source="BugLoS8FiQRtQ0UN0Pm9-191">
          <mxGeometry relative="1" as="geometry">
            <mxPoint x="360" y="130" as="targetPoint" />
            <Array as="points">
              <mxPoint x="330" y="150" />
              <mxPoint x="330" y="130" />
            </Array>
          </mxGeometry>
        </mxCell>
        <mxCell id="BugLoS8FiQRtQ0UN0Pm9-806" value="8" style="edgeLabel;html=1;align=center;verticalAlign=middle;resizable=0;points=[];" vertex="1" connectable="0" parent="BugLoS8FiQRtQ0UN0Pm9-760">
          <mxGeometry x="0.5" relative="1" as="geometry">
            <mxPoint as="offset" />
          </mxGeometry>
        </mxCell>
        <mxCell id="BugLoS8FiQRtQ0UN0Pm9-765" style="edgeStyle=orthogonalEdgeStyle;rounded=0;orthogonalLoop=1;jettySize=auto;html=1;" edge="1" parent="1">
          <mxGeometry relative="1" as="geometry">
            <mxPoint x="360" y="210" as="targetPoint" />
            <mxPoint x="300" y="230" as="sourcePoint" />
            <Array as="points">
              <mxPoint x="330" y="230" />
              <mxPoint x="330" y="210" />
            </Array>
          </mxGeometry>
        </mxCell>
        <mxCell id="BugLoS8FiQRtQ0UN0Pm9-808" value="8" style="edgeLabel;html=1;align=center;verticalAlign=middle;resizable=0;points=[];" vertex="1" connectable="0" parent="BugLoS8FiQRtQ0UN0Pm9-765">
          <mxGeometry x="0.5" relative="1" as="geometry">
            <mxPoint as="offset" />
          </mxGeometry>
        </mxCell>
        <mxCell id="BugLoS8FiQRtQ0UN0Pm9-766" style="edgeStyle=orthogonalEdgeStyle;rounded=0;orthogonalLoop=1;jettySize=auto;html=1;" edge="1" parent="1">
          <mxGeometry relative="1" as="geometry">
            <mxPoint x="360" y="250" as="targetPoint" />
            <mxPoint x="300" y="230" as="sourcePoint" />
            <Array as="points">
              <mxPoint x="330" y="230" />
              <mxPoint x="330" y="250" />
            </Array>
          </mxGeometry>
        </mxCell>
        <mxCell id="BugLoS8FiQRtQ0UN0Pm9-809" value="5" style="edgeLabel;html=1;align=center;verticalAlign=middle;resizable=0;points=[];" vertex="1" connectable="0" parent="BugLoS8FiQRtQ0UN0Pm9-766">
          <mxGeometry x="0.5" relative="1" as="geometry">
            <mxPoint as="offset" />
          </mxGeometry>
        </mxCell>
        <mxCell id="BugLoS8FiQRtQ0UN0Pm9-767" style="edgeStyle=orthogonalEdgeStyle;rounded=0;orthogonalLoop=1;jettySize=auto;html=1;" edge="1" parent="1">
          <mxGeometry relative="1" as="geometry">
            <mxPoint x="360" y="290" as="targetPoint" />
            <mxPoint x="300" y="310" as="sourcePoint" />
            <Array as="points">
              <mxPoint x="330" y="310" />
              <mxPoint x="330" y="290" />
            </Array>
          </mxGeometry>
        </mxCell>
        <mxCell id="BugLoS8FiQRtQ0UN0Pm9-810" value="7" style="edgeLabel;html=1;align=center;verticalAlign=middle;resizable=0;points=[];" vertex="1" connectable="0" parent="BugLoS8FiQRtQ0UN0Pm9-767">
          <mxGeometry x="0.5" relative="1" as="geometry">
            <mxPoint as="offset" />
          </mxGeometry>
        </mxCell>
        <mxCell id="BugLoS8FiQRtQ0UN0Pm9-768" style="edgeStyle=orthogonalEdgeStyle;rounded=0;orthogonalLoop=1;jettySize=auto;html=1;" edge="1" parent="1">
          <mxGeometry relative="1" as="geometry">
            <mxPoint x="360" y="330" as="targetPoint" />
            <mxPoint x="300" y="310" as="sourcePoint" />
            <Array as="points">
              <mxPoint x="330" y="310" />
              <mxPoint x="330" y="330" />
            </Array>
          </mxGeometry>
        </mxCell>
        <mxCell id="BugLoS8FiQRtQ0UN0Pm9-811" value="5" style="edgeLabel;html=1;align=center;verticalAlign=middle;resizable=0;points=[];" vertex="1" connectable="0" parent="BugLoS8FiQRtQ0UN0Pm9-768">
          <mxGeometry x="0.5" y="1" relative="1" as="geometry">
            <mxPoint as="offset" />
          </mxGeometry>
        </mxCell>
        <mxCell id="BugLoS8FiQRtQ0UN0Pm9-769" style="edgeStyle=orthogonalEdgeStyle;rounded=0;orthogonalLoop=1;jettySize=auto;html=1;" edge="1" parent="1">
          <mxGeometry relative="1" as="geometry">
            <mxPoint x="360" y="430" as="targetPoint" />
            <mxPoint x="300" y="450" as="sourcePoint" />
            <Array as="points">
              <mxPoint x="330" y="450" />
              <mxPoint x="330" y="430" />
            </Array>
          </mxGeometry>
        </mxCell>
        <mxCell id="BugLoS8FiQRtQ0UN0Pm9-814" value="8" style="edgeLabel;html=1;align=center;verticalAlign=middle;resizable=0;points=[];" vertex="1" connectable="0" parent="BugLoS8FiQRtQ0UN0Pm9-769">
          <mxGeometry x="0.5061" y="-1" relative="1" as="geometry">
            <mxPoint as="offset" />
          </mxGeometry>
        </mxCell>
        <mxCell id="BugLoS8FiQRtQ0UN0Pm9-770" style="edgeStyle=orthogonalEdgeStyle;rounded=0;orthogonalLoop=1;jettySize=auto;html=1;" edge="1" parent="1">
          <mxGeometry relative="1" as="geometry">
            <mxPoint x="360" y="470" as="targetPoint" />
            <mxPoint x="300" y="450" as="sourcePoint" />
            <Array as="points">
              <mxPoint x="330" y="450" />
              <mxPoint x="330" y="470" />
            </Array>
          </mxGeometry>
        </mxCell>
        <mxCell id="BugLoS8FiQRtQ0UN0Pm9-815" value="3" style="edgeLabel;html=1;align=center;verticalAlign=middle;resizable=0;points=[];" vertex="1" connectable="0" parent="BugLoS8FiQRtQ0UN0Pm9-770">
          <mxGeometry x="0.4909" relative="1" as="geometry">
            <mxPoint as="offset" />
          </mxGeometry>
        </mxCell>
        <mxCell id="BugLoS8FiQRtQ0UN0Pm9-771" style="edgeStyle=orthogonalEdgeStyle;rounded=0;orthogonalLoop=1;jettySize=auto;html=1;" edge="1" parent="1">
          <mxGeometry relative="1" as="geometry">
            <mxPoint x="360" y="510" as="targetPoint" />
            <mxPoint x="300" y="530" as="sourcePoint" />
            <Array as="points">
              <mxPoint x="330" y="530" />
              <mxPoint x="330" y="510" />
            </Array>
          </mxGeometry>
        </mxCell>
        <mxCell id="BugLoS8FiQRtQ0UN0Pm9-816" value="8" style="edgeLabel;html=1;align=center;verticalAlign=middle;resizable=0;points=[];" vertex="1" connectable="0" parent="BugLoS8FiQRtQ0UN0Pm9-771">
          <mxGeometry x="0.5" relative="1" as="geometry">
            <mxPoint as="offset" />
          </mxGeometry>
        </mxCell>
        <mxCell id="BugLoS8FiQRtQ0UN0Pm9-772" style="edgeStyle=orthogonalEdgeStyle;rounded=0;orthogonalLoop=1;jettySize=auto;html=1;" edge="1" parent="1">
          <mxGeometry relative="1" as="geometry">
            <mxPoint x="360" y="550" as="targetPoint" />
            <mxPoint x="300" y="530" as="sourcePoint" />
            <Array as="points">
              <mxPoint x="330" y="530" />
              <mxPoint x="330" y="550" />
            </Array>
          </mxGeometry>
        </mxCell>
        <mxCell id="BugLoS8FiQRtQ0UN0Pm9-817" value="6" style="edgeLabel;html=1;align=center;verticalAlign=middle;resizable=0;points=[];" vertex="1" connectable="0" parent="BugLoS8FiQRtQ0UN0Pm9-772">
          <mxGeometry x="0.5" relative="1" as="geometry">
            <mxPoint as="offset" />
          </mxGeometry>
        </mxCell>
        <mxCell id="BugLoS8FiQRtQ0UN0Pm9-773" style="edgeStyle=orthogonalEdgeStyle;rounded=0;orthogonalLoop=1;jettySize=auto;html=1;" edge="1" parent="1">
          <mxGeometry relative="1" as="geometry">
            <mxPoint x="360" y="590" as="targetPoint" />
            <mxPoint x="300" y="610" as="sourcePoint" />
            <Array as="points">
              <mxPoint x="330" y="610" />
              <mxPoint x="330" y="590" />
            </Array>
          </mxGeometry>
        </mxCell>
        <mxCell id="BugLoS8FiQRtQ0UN0Pm9-818" value="7" style="edgeLabel;html=1;align=center;verticalAlign=middle;resizable=0;points=[];" vertex="1" connectable="0" parent="BugLoS8FiQRtQ0UN0Pm9-773">
          <mxGeometry x="0.5" y="1" relative="1" as="geometry">
            <mxPoint as="offset" />
          </mxGeometry>
        </mxCell>
        <mxCell id="BugLoS8FiQRtQ0UN0Pm9-774" style="edgeStyle=orthogonalEdgeStyle;rounded=0;orthogonalLoop=1;jettySize=auto;html=1;" edge="1" parent="1">
          <mxGeometry relative="1" as="geometry">
            <mxPoint x="360" y="630" as="targetPoint" />
            <mxPoint x="300" y="610" as="sourcePoint" />
            <Array as="points">
              <mxPoint x="330" y="610" />
              <mxPoint x="330" y="630" />
            </Array>
          </mxGeometry>
        </mxCell>
        <mxCell id="BugLoS8FiQRtQ0UN0Pm9-819" value="6" style="edgeLabel;html=1;align=center;verticalAlign=middle;resizable=0;points=[];" vertex="1" connectable="0" parent="BugLoS8FiQRtQ0UN0Pm9-774">
          <mxGeometry x="0.5064" relative="1" as="geometry">
            <mxPoint as="offset" />
          </mxGeometry>
        </mxCell>
        <mxCell id="BugLoS8FiQRtQ0UN0Pm9-775" style="edgeStyle=orthogonalEdgeStyle;rounded=0;orthogonalLoop=1;jettySize=auto;html=1;" edge="1" parent="1">
          <mxGeometry relative="1" as="geometry">
            <mxPoint x="360" y="710" as="targetPoint" />
            <mxPoint x="300" y="730" as="sourcePoint" />
            <Array as="points">
              <mxPoint x="330" y="730" />
              <mxPoint x="330" y="710" />
            </Array>
          </mxGeometry>
        </mxCell>
        <mxCell id="BugLoS8FiQRtQ0UN0Pm9-820" value="8" style="edgeLabel;html=1;align=center;verticalAlign=middle;resizable=0;points=[];" vertex="1" connectable="0" parent="BugLoS8FiQRtQ0UN0Pm9-775">
          <mxGeometry x="0.5212" y="1" relative="1" as="geometry">
            <mxPoint as="offset" />
          </mxGeometry>
        </mxCell>
        <mxCell id="BugLoS8FiQRtQ0UN0Pm9-776" style="edgeStyle=orthogonalEdgeStyle;rounded=0;orthogonalLoop=1;jettySize=auto;html=1;" edge="1" parent="1">
          <mxGeometry relative="1" as="geometry">
            <mxPoint x="360" y="750" as="targetPoint" />
            <mxPoint x="300" y="730" as="sourcePoint" />
            <Array as="points">
              <mxPoint x="330" y="730" />
              <mxPoint x="330" y="750" />
            </Array>
          </mxGeometry>
        </mxCell>
        <mxCell id="BugLoS8FiQRtQ0UN0Pm9-821" value="5" style="edgeLabel;html=1;align=center;verticalAlign=middle;resizable=0;points=[];" vertex="1" connectable="0" parent="BugLoS8FiQRtQ0UN0Pm9-776">
          <mxGeometry x="0.5364" relative="1" as="geometry">
            <mxPoint as="offset" />
          </mxGeometry>
        </mxCell>
        <mxCell id="BugLoS8FiQRtQ0UN0Pm9-777" style="edgeStyle=orthogonalEdgeStyle;rounded=0;orthogonalLoop=1;jettySize=auto;html=1;" edge="1" parent="1">
          <mxGeometry relative="1" as="geometry">
            <mxPoint x="360" y="790" as="targetPoint" />
            <mxPoint x="300" y="810" as="sourcePoint" />
            <Array as="points">
              <mxPoint x="330" y="810" />
              <mxPoint x="330" y="790" />
            </Array>
          </mxGeometry>
        </mxCell>
        <mxCell id="BugLoS8FiQRtQ0UN0Pm9-822" value="8" style="edgeLabel;html=1;align=center;verticalAlign=middle;resizable=0;points=[];" vertex="1" connectable="0" parent="BugLoS8FiQRtQ0UN0Pm9-777">
          <mxGeometry x="0.5" y="1" relative="1" as="geometry">
            <mxPoint as="offset" />
          </mxGeometry>
        </mxCell>
        <mxCell id="BugLoS8FiQRtQ0UN0Pm9-778" style="edgeStyle=orthogonalEdgeStyle;rounded=0;orthogonalLoop=1;jettySize=auto;html=1;" edge="1" parent="1">
          <mxGeometry relative="1" as="geometry">
            <mxPoint x="360" y="830" as="targetPoint" />
            <mxPoint x="300" y="810" as="sourcePoint" />
            <Array as="points">
              <mxPoint x="330" y="810" />
              <mxPoint x="330" y="830" />
            </Array>
          </mxGeometry>
        </mxCell>
        <mxCell id="BugLoS8FiQRtQ0UN0Pm9-823" value="6" style="edgeLabel;html=1;align=center;verticalAlign=middle;resizable=0;points=[];" vertex="1" connectable="0" parent="BugLoS8FiQRtQ0UN0Pm9-778">
          <mxGeometry x="0.5061" relative="1" as="geometry">
            <mxPoint as="offset" />
          </mxGeometry>
        </mxCell>
        <mxCell id="BugLoS8FiQRtQ0UN0Pm9-779" style="edgeStyle=orthogonalEdgeStyle;rounded=0;orthogonalLoop=1;jettySize=auto;html=1;" edge="1" parent="1">
          <mxGeometry relative="1" as="geometry">
            <mxPoint x="360" y="870" as="targetPoint" />
            <mxPoint x="300" y="890" as="sourcePoint" />
            <Array as="points">
              <mxPoint x="330" y="890" />
              <mxPoint x="330" y="870" />
            </Array>
          </mxGeometry>
        </mxCell>
        <mxCell id="BugLoS8FiQRtQ0UN0Pm9-824" value="5" style="edgeLabel;html=1;align=center;verticalAlign=middle;resizable=0;points=[];" vertex="1" connectable="0" parent="BugLoS8FiQRtQ0UN0Pm9-779">
          <mxGeometry x="0.5061" relative="1" as="geometry">
            <mxPoint as="offset" />
          </mxGeometry>
        </mxCell>
        <mxCell id="BugLoS8FiQRtQ0UN0Pm9-780" style="edgeStyle=orthogonalEdgeStyle;rounded=0;orthogonalLoop=1;jettySize=auto;html=1;" edge="1" parent="1">
          <mxGeometry relative="1" as="geometry">
            <mxPoint x="360" y="910" as="targetPoint" />
            <mxPoint x="300" y="890" as="sourcePoint" />
            <Array as="points">
              <mxPoint x="330" y="890" />
              <mxPoint x="330" y="910" />
            </Array>
          </mxGeometry>
        </mxCell>
        <mxCell id="BugLoS8FiQRtQ0UN0Pm9-825" value="6" style="edgeLabel;html=1;align=center;verticalAlign=middle;resizable=0;points=[];" vertex="1" connectable="0" parent="BugLoS8FiQRtQ0UN0Pm9-780">
          <mxGeometry x="0.491" y="2" relative="1" as="geometry">
            <mxPoint as="offset" />
          </mxGeometry>
        </mxCell>
        <mxCell id="BugLoS8FiQRtQ0UN0Pm9-781" style="edgeStyle=orthogonalEdgeStyle;rounded=0;orthogonalLoop=1;jettySize=auto;html=1;" edge="1" parent="1">
          <mxGeometry relative="1" as="geometry">
            <mxPoint x="360" y="990" as="targetPoint" />
            <mxPoint x="300" y="1010" as="sourcePoint" />
            <Array as="points">
              <mxPoint x="330" y="1010" />
              <mxPoint x="330" y="990" />
            </Array>
          </mxGeometry>
        </mxCell>
        <mxCell id="BugLoS8FiQRtQ0UN0Pm9-826" value="7" style="edgeLabel;html=1;align=center;verticalAlign=middle;resizable=0;points=[];" vertex="1" connectable="0" parent="BugLoS8FiQRtQ0UN0Pm9-781">
          <mxGeometry x="0.5061" y="2" relative="1" as="geometry">
            <mxPoint as="offset" />
          </mxGeometry>
        </mxCell>
        <mxCell id="BugLoS8FiQRtQ0UN0Pm9-782" style="edgeStyle=orthogonalEdgeStyle;rounded=0;orthogonalLoop=1;jettySize=auto;html=1;" edge="1" parent="1">
          <mxGeometry relative="1" as="geometry">
            <mxPoint x="360" y="1030" as="targetPoint" />
            <mxPoint x="300" y="1010" as="sourcePoint" />
            <Array as="points">
              <mxPoint x="330" y="1010" />
              <mxPoint x="330" y="1030" />
            </Array>
          </mxGeometry>
        </mxCell>
        <mxCell id="BugLoS8FiQRtQ0UN0Pm9-827" value="5" style="edgeLabel;html=1;align=center;verticalAlign=middle;resizable=0;points=[];" vertex="1" connectable="0" parent="BugLoS8FiQRtQ0UN0Pm9-782">
          <mxGeometry x="0.5061" y="1" relative="1" as="geometry">
            <mxPoint as="offset" />
          </mxGeometry>
        </mxCell>
        <mxCell id="BugLoS8FiQRtQ0UN0Pm9-783" style="edgeStyle=orthogonalEdgeStyle;rounded=0;orthogonalLoop=1;jettySize=auto;html=1;" edge="1" parent="1">
          <mxGeometry relative="1" as="geometry">
            <mxPoint x="360" y="1070" as="targetPoint" />
            <mxPoint x="300" y="1090" as="sourcePoint" />
            <Array as="points">
              <mxPoint x="330" y="1090" />
              <mxPoint x="330" y="1070" />
            </Array>
          </mxGeometry>
        </mxCell>
        <mxCell id="BugLoS8FiQRtQ0UN0Pm9-828" value="7" style="edgeLabel;html=1;align=center;verticalAlign=middle;resizable=0;points=[];" vertex="1" connectable="0" parent="BugLoS8FiQRtQ0UN0Pm9-783">
          <mxGeometry x="0.5061" relative="1" as="geometry">
            <mxPoint as="offset" />
          </mxGeometry>
        </mxCell>
        <mxCell id="BugLoS8FiQRtQ0UN0Pm9-784" style="edgeStyle=orthogonalEdgeStyle;rounded=0;orthogonalLoop=1;jettySize=auto;html=1;" edge="1" parent="1">
          <mxGeometry relative="1" as="geometry">
            <mxPoint x="360" y="1110" as="targetPoint" />
            <mxPoint x="300" y="1090" as="sourcePoint" />
            <Array as="points">
              <mxPoint x="330" y="1090" />
              <mxPoint x="330" y="1110" />
            </Array>
          </mxGeometry>
        </mxCell>
        <mxCell id="BugLoS8FiQRtQ0UN0Pm9-829" value="6" style="edgeLabel;html=1;align=center;verticalAlign=middle;resizable=0;points=[];" vertex="1" connectable="0" parent="BugLoS8FiQRtQ0UN0Pm9-784">
          <mxGeometry x="0.5" relative="1" as="geometry">
            <mxPoint as="offset" />
          </mxGeometry>
        </mxCell>
        <mxCell id="BugLoS8FiQRtQ0UN0Pm9-785" style="edgeStyle=orthogonalEdgeStyle;rounded=0;orthogonalLoop=1;jettySize=auto;html=1;" edge="1" parent="1">
          <mxGeometry relative="1" as="geometry">
            <mxPoint x="360" y="1150" as="targetPoint" />
            <mxPoint x="300" y="1170" as="sourcePoint" />
            <Array as="points">
              <mxPoint x="330" y="1170" />
              <mxPoint x="330" y="1150" />
            </Array>
          </mxGeometry>
        </mxCell>
        <mxCell id="BugLoS8FiQRtQ0UN0Pm9-830" value="5" style="edgeLabel;html=1;align=center;verticalAlign=middle;resizable=0;points=[];" vertex="1" connectable="0" parent="BugLoS8FiQRtQ0UN0Pm9-785">
          <mxGeometry x="0.5" relative="1" as="geometry">
            <mxPoint as="offset" />
          </mxGeometry>
        </mxCell>
        <mxCell id="BugLoS8FiQRtQ0UN0Pm9-786" style="edgeStyle=orthogonalEdgeStyle;rounded=0;orthogonalLoop=1;jettySize=auto;html=1;" edge="1" parent="1">
          <mxGeometry relative="1" as="geometry">
            <mxPoint x="360" y="1190" as="targetPoint" />
            <mxPoint x="300" y="1170" as="sourcePoint" />
            <Array as="points">
              <mxPoint x="330" y="1170" />
              <mxPoint x="330" y="1190" />
            </Array>
          </mxGeometry>
        </mxCell>
        <mxCell id="BugLoS8FiQRtQ0UN0Pm9-831" value="6" style="edgeLabel;html=1;align=center;verticalAlign=middle;resizable=0;points=[];" vertex="1" connectable="0" parent="BugLoS8FiQRtQ0UN0Pm9-786">
          <mxGeometry x="0.5" relative="1" as="geometry">
            <mxPoint as="offset" />
          </mxGeometry>
        </mxCell>
        <mxCell id="BugLoS8FiQRtQ0UN0Pm9-788" style="edgeStyle=orthogonalEdgeStyle;rounded=0;orthogonalLoop=1;jettySize=auto;html=1;" edge="1" parent="1" source="BugLoS8FiQRtQ0UN0Pm9-787">
          <mxGeometry relative="1" as="geometry">
            <mxPoint x="620" y="660" as="targetPoint" />
          </mxGeometry>
        </mxCell>
        <mxCell id="BugLoS8FiQRtQ0UN0Pm9-832" value="10" style="edgeLabel;html=1;align=center;verticalAlign=middle;resizable=0;points=[];" vertex="1" connectable="0" parent="BugLoS8FiQRtQ0UN0Pm9-788">
          <mxGeometry x="-0.3" relative="1" as="geometry">
            <mxPoint as="offset" />
          </mxGeometry>
        </mxCell>
        <mxCell id="BugLoS8FiQRtQ0UN0Pm9-787" value="" style="shape=curlyBracket;whiteSpace=wrap;html=1;rounded=1;flipH=1;labelPosition=right;verticalLabelPosition=middle;align=left;verticalAlign=middle;" vertex="1" parent="1">
          <mxGeometry x="560" y="100" width="20" height="1120" as="geometry" />
        </mxCell>
      </root>
    </mxGraphModel>
  </diagram>
</mxfile>
